<?xml version="1.0" standalone="no"?>
<!DOCTYPE svg PUBLIC "-//W3C//DTD SVG 20010904//EN"
 "http://www.w3.org/TR/2001/REC-SVG-20010904/DTD/svg10.dtd">
<svg version="1.0" xmlns="http://www.w3.org/2000/svg"
 width="700.000000pt" height="700.000000pt" viewBox="0 0 700.000000 700.000000"
 preserveAspectRatio="xMidYMid meet">
<metadata>
Created by potrace 1.11, written by Peter Selinger 2001-2013
</metadata>
<g transform="translate(0.000000,700.000000) scale(0.100000,-0.100000)"
fill="#000000" stroke="none">
<path d="M4383 6258 c-12 -13 -76 -99 -142 -193 -298 -421 -289 -411 -344
-407 -41 3 -76 24 -205 116 -136 98 -188 127 -213 118 -49 -19 -59 -33 -324
-487 -108 -185 -153 -255 -164 -255 -4 0 -29 11 -54 24 -57 31 -155 61 -227
71 -30 4 -62 9 -70 10 -8 2 -51 6 -95 10 -95 8 -142 21 -169 47 -45 43 -93 47
-201 19 -81 -21 -142 -50 -169 -80 -18 -20 -19 -29 -16 -116 1 -11 -12 -31
-27 -43 -204 -171 -329 -388 -359 -622 -4 -30 -6 -122 -5 -203 1 -148 -6 -187
-34 -187 -19 0 -22 6 -40 96 -22 107 -44 152 -95 198 -85 77 -210 116 -354
111 -207 -7 -374 -54 -465 -130 -58 -49 -124 -166 -151 -266 -17 -60 -31 -278
-20 -294 4 -5 39 -71 77 -145 79 -152 229 -434 278 -525 18 -33 53 -98 77
-145 125 -236 315 -591 435 -815 493 -914 558 -1021 696 -1142 89 -79 151
-106 240 -104 40 0 83 3 97 5 14 2 45 7 70 11 129 20 523 135 1025 300 76 25
121 34 145 31 32 -5 52 -8 163 -21 347 -43 573 -82 620 -105 65 -34 171 -45
213 -23 38 20 191 18 264 -2 3 -1 18 -5 35 -10 16 -5 43 -16 60 -26 63 -37
281 -68 341 -49 48 16 115 65 143 106 97 141 109 529 19 610 -18 17 -39 19
-234 18 -118 0 -213 0 -211 2 12 13 324 119 579 198 92 29 122 42 134 62 12
18 270 891 309 1044 2 8 29 101 59 205 67 231 225 784 230 805 2 8 18 65 36
125 17 61 40 142 50 180 11 39 55 196 99 350 l80 280 -49 86 c-27 47 -60 97
-72 111 -109 120 -148 155 -228 209 -31 21 -86 48 -121 60 -57 19 -78 21 -194
16 -152 -6 -162 -8 -233 -43 -65 -32 -125 -90 -157 -155 -32 -63 -41 -67 -175
-84 -131 -17 -147 -17 -163 0 -42 42 -87 106 -442 630 -213 314 -302 435 -323
435 -5 0 -18 -10 -29 -22z m180 -248 c57 -80 129 -182 160 -227 l55 -81 -43
-71 c-25 -38 -67 -115 -95 -171 -39 -78 -55 -100 -71 -100 -11 0 -64 18 -117
39 -109 44 -186 71 -205 71 -7 0 -66 -83 -131 -184 -65 -101 -128 -194 -141
-206 -30 -28 -65 -19 -106 29 -108 126 -229 229 -286 243 -25 7 -103 -36 -178
-98 -25 -20 -47 -35 -50 -33 -2 3 -6 45 -9 94 l-4 90 -61 3 -62 3 46 86 c25
47 65 118 89 157 92 152 125 191 153 182 10 -3 73 -46 138 -96 179 -134 234
-157 312 -129 45 15 89 70 280 351 53 79 114 167 136 197 l39 53 24 -28 c13
-16 70 -94 127 -174z m1397 -565 c123 -18 222 -52 267 -93 27 -24 112 -162
100 -162 -3 0 -34 17 -68 39 -35 21 -75 41 -87 46 -22 6 -23 5 -11 -17 6 -12
37 -59 69 -103 31 -44 68 -100 82 -125 l25 -45 -16 -83 c-10 -45 -22 -87 -27
-92 -7 -7 -38 0 -92 20 -79 29 -162 40 -162 21 0 -9 127 -131 182 -175 34 -26
36 -32 32 -73 -2 -24 -9 -53 -14 -63 -11 -20 -17 -22 -82 -23 -21 -1 -38 -6
-38 -12 0 -5 18 -36 40 -69 22 -32 41 -66 41 -75 4 -46 -5 -138 -14 -147 -3
-4 -27 3 -52 15 -82 38 -85 24 -17 -74 l47 -70 -107 -395 c-60 -217 -114 -417
-122 -445 -8 -27 -31 -111 -51 -185 -58 -213 -115 -401 -137 -451 -15 -37 -23
-46 -39 -42 -25 7 -24 -7 2 -103 21 -79 21 -120 -3 -193 l-11 -34 -15 29 c-38
75 -77 87 -182 55 -39 -12 -75 -19 -81 -15 -10 6 -7 132 6 304 2 30 7 116 10
190 3 74 8 167 10 205 5 73 11 198 20 375 3 58 7 137 10 175 3 39 7 122 10
185 3 63 7 149 10 190 3 41 7 120 10 175 3 55 8 136 10 180 3 44 7 127 10 185
3 58 8 134 10 170 2 36 7 110 10 165 3 55 8 129 10 165 3 36 7 97 10 135 9
134 17 190 31 220 21 45 132 110 219 128 23 5 81 2 145 -8z m-479 -287 c12
-22 15 -482 5 -653 -3 -44 -8 -136 -11 -205 -3 -69 -7 -154 -10 -190 -2 -36
-7 -110 -10 -165 -4 -55 -8 -125 -10 -155 -2 -30 -7 -107 -10 -170 -3 -63 -8
-137 -10 -165 -2 -27 -6 -102 -10 -165 -3 -63 -8 -140 -10 -170 -2 -30 -7
-102 -10 -160 -3 -58 -8 -134 -10 -170 -2 -36 -7 -108 -10 -160 -11 -183 -18
-254 -31 -340 -3 -20 -20 -55 -39 -78 -45 -58 -50 -88 -25 -151 11 -28 20 -56
20 -60 0 -12 -30 -23 -260 -91 -361 -108 -524 -166 -1025 -365 -510 -202 -866
-324 -1185 -405 -96 -25 -90 -23 -187 -40 -99 -16 -191 -18 -210 -5 -13 10
-13 17 1 65 26 89 -1 155 -184 444 -140 223 -166 275 -238 496 -53 162 -193
642 -221 755 -5 22 -17 67 -26 100 -33 120 -112 477 -150 675 -3 14 -14 70
-24 125 -48 241 -47 255 23 291 409 215 900 435 1226 550 286 101 746 216
1345 335 83 17 157 32 165 34 8 2 107 22 220 45 113 23 212 43 220 44 8 2 31
6 50 10 19 3 46 8 60 11 90 18 534 100 562 104 4 1 13 -9 19 -21z m-2855 -62
c81 -15 204 -64 269 -107 101 -68 242 -208 224 -223 -10 -9 -498 -170 -503
-166 -2 3 -11 55 -20 116 -9 60 -19 123 -21 140 -3 16 -8 45 -11 64 -3 19 -10
53 -16 75 -13 49 -21 36 -41 -65 -15 -71 -19 -105 -32 -245 -3 -33 -8 -81 -11
-106 l-5 -45 -122 -54 c-67 -30 -185 -84 -262 -121 -184 -88 -295 -139 -302
-139 -11 0 6 286 20 335 64 222 257 428 472 504 122 44 251 57 361 37z m-1571
-661 c55 -11 70 -14 154 -40 148 -44 224 -86 242 -132 10 -28 45 -225 64 -368
3 -22 10 -65 15 -95 5 -30 12 -75 15 -100 36 -267 289 -1261 426 -1672 62
-184 141 -337 266 -511 19 -27 33 -50 31 -52 -2 -2 -21 -6 -43 -9 -22 -3 -57
-9 -78 -12 -56 -9 -101 -56 -122 -129 -27 -94 -29 -130 -10 -180 23 -62 15
-73 -23 -34 -37 37 -50 75 -46 134 6 111 7 235 2 240 -11 12 -77 -56 -88 -91
-7 -20 -14 -34 -15 -32 -6 5 -13 54 -20 133 -8 85 -17 96 -49 66 l-24 -23 -30
44 c-100 147 -367 666 -484 943 -65 152 -76 184 -83 245 -4 40 -24 70 -53 82
-18 7 -80 135 -87 178 -4 25 -9 59 -12 77 -11 75 -18 88 -46 85 -32 -4 -55 29
-82 115 -18 58 -18 62 11 291 5 41 -5 40 -47 -3 -19 -19 -38 -35 -42 -35 -9 0
-2 63 13 120 5 19 12 53 15 75 3 22 8 50 10 62 8 35 -8 34 -61 -1 -27 -18 -56
-35 -66 -39 -28 -10 -28 29 -1 116 42 137 44 148 40 160 -4 12 -60 -42 -149
-143 -69 -78 -82 -72 -74 31 10 141 128 350 242 427 54 37 220 93 249 85 6 -1
24 -5 40 -8z m4533 -2231 c48 -34 17 -142 -53 -181 -70 -40 -177 -25 -205 28
-17 30 -15 78 2 95 14 14 15 11 11 -29 -4 -40 -2 -47 22 -63 63 -41 185 -23
205 31 14 38 13 115 -2 116 -46 5 -66 3 -89 -8 -30 -14 -40 -32 -34 -64 8 -38
23 -45 45 -19 19 22 20 22 20 3 0 -49 -65 -55 -89 -9 -20 37 -6 73 37 95 45
24 100 26 130 5z m-3341 -861 c22 -27 43 -93 43 -137 0 -15 -12 -34 -31 -50
-34 -29 -49 -32 -67 -14 -10 10 -6 18 19 39 28 23 31 29 22 54 -27 82 -142 26
-129 -63 11 -75 132 -130 193 -87 21 14 60 101 70 155 9 51 16 32 9 -29 -7
-74 -35 -140 -68 -160 -54 -34 -176 -1 -221 61 -38 51 -15 174 46 236 26 28
37 32 62 28 17 -3 40 -18 52 -33z"/>
<path d="M4960 4691 c0 -17 18 -21 24 -6 3 9 0 15 -9 15 -8 0 -15 -4 -15 -9z"/>
<path d="M4421 4663 c8 -10 33 -38 55 -63 99 -107 154 -176 154 -194 0 -17
-66 -117 -107 -161 -35 -38 -75 -107 -80 -139 -6 -39 12 -57 57 -58 31 -1 34
1 139 105 10 9 24 30 31 45 19 37 41 62 55 62 6 0 36 -31 68 -69 54 -66 150
-141 180 -141 22 0 25 27 10 95 -25 116 -85 235 -118 235 -7 0 -19 8 -28 18
-16 17 -15 22 9 68 14 27 33 63 43 81 15 30 19 33 41 33 8 0 40 50 40 64 0 11
-98 -39 -145 -73 -27 -21 -58 -40 -67 -44 -12 -4 -75 22 -178 73 -88 44 -163
80 -166 80 -4 0 0 -8 7 -17z"/>
<path d="M4915 4659 c-10 -15 3 -25 16 -12 7 7 7 13 1 17 -6 3 -14 1 -17 -5z"/>
<path d="M2887 4450 c-72 -13 -63 -29 33 -58 103 -31 216 -47 245 -34 20 9 23
15 16 34 -15 43 -65 61 -165 63 -50 1 -108 -2 -129 -5z"/>
<path d="M4218 4358 c-60 -32 -69 -47 -43 -68 33 -27 155 -7 155 25 0 24 -29
75 -43 75 -6 0 -38 -15 -69 -32z"/>
<path d="M3550 4300 c-30 -3 -45 -10 -45 -19 0 -16 50 -49 82 -55 168 -31 253
-27 253 12 0 27 -37 62 -68 63 -87 4 -183 3 -222 -1z"/>
<path d="M2497 4237 c-19 -13 -47 -94 -40 -114 9 -25 51 -12 97 28 25 22 46
47 46 55 0 14 -49 44 -73 44 -7 0 -21 -6 -30 -13z"/>
<path d="M2369 3879 c-17 -17 -20 -28 -15 -62 12 -71 41 -87 74 -39 26 36 35
68 28 98 -8 31 -57 33 -87 3z"/>
<path d="M2456 3504 c-20 -20 -20 -47 1 -91 19 -41 57 -67 132 -89 63 -18 83
-9 59 29 -28 42 -115 132 -146 150 -28 16 -32 16 -46 1z"/>
<path d="M2923 3312 c-7 -7 -13 -19 -13 -26 0 -23 51 -65 86 -72 34 -6 141 1
169 12 44 17 -13 63 -111 88 -70 18 -111 17 -131 -2z"/>
<path d="M3447 3276 c-23 -23 -5 -60 39 -81 57 -27 224 -15 224 15 0 51 -222
106 -263 66z"/>
<path d="M3971 3203 c-15 -29 -8 -53 24 -85 32 -31 117 -61 180 -62 35 -1 40
2 37 19 -4 28 -67 82 -129 111 -80 36 -100 39 -112 17z"/>
<path d="M4471 3007 c-16 -42 10 -77 83 -114 73 -37 128 -55 139 -44 24 24
-57 119 -131 153 -65 29 -82 30 -91 5z"/>
<path d="M4852 2653 c-7 -3 -19 -18 -28 -35 -17 -33 -8 -76 23 -110 35 -38 65
-8 65 67 0 64 -23 93 -60 78z"/>
<path d="M4827 2328 c-20 -29 -59 -73 -86 -96 -70 -60 -67 -92 10 -92 63 0
101 35 124 114 18 60 17 117 -2 123 -6 2 -27 -20 -46 -49z"/>
<path d="M3546 2164 c-28 -73 84 -111 223 -76 105 27 89 53 -48 78 -106 19
-167 18 -175 -2z"/>
<path d="M4112 2138 c-20 -20 -14 -45 16 -66 24 -18 40 -20 117 -16 147 7 197
26 143 55 -61 33 -251 52 -276 27z"/>
<path d="M3260 2133 c-76 -29 -126 -124 -72 -136 46 -10 122 60 122 112 0 14
-23 35 -33 30 -1 0 -9 -3 -17 -6z"/>
<path d="M2973 1996 c8 -20 -23 -29 -67 -21 -38 8 -86 -3 -67 -14 7 -5 -17
-25 -61 -51 -83 -49 -217 -178 -245 -236 -53 -108 -6 -200 126 -244 139 -46
259 -19 388 88 140 117 174 174 169 283 -5 131 -81 209 -202 209 -36 0 -45 -3
-41 -14z m186 -102 c59 -117 24 -209 -120 -320 -116 -89 -219 -118 -334 -94
-123 25 -164 112 -96 199 127 160 373 271 448 202 35 -33 65 -49 79 -44 22 8
17 27 -20 81 -19 28 -31 53 -28 56 10 10 48 -32 71 -80z"/>
<path d="M2300 5032 c0 -32 -1 -33 -22 -18 -28 20 -52 20 -71 1 -13 -13 -11
-24 16 -97 48 -128 79 -183 102 -183 15 0 21 8 23 33 l3 32 29 -20 c41 -29 53
-26 45 13 -9 39 -85 215 -108 248 l-17 23 0 -32z"/>
<path d="M2773 4979 c-18 -16 -41 -45 -52 -64 -18 -31 -18 -36 -5 -50 26 -25
54 -18 68 18 13 32 31 127 24 127 -3 0 -18 -14 -35 -31z"/>
<path d="M1890 4619 c25 -22 57 -47 72 -55 27 -14 29 -13 48 18 26 42 13 55
-60 63 -30 3 -66 8 -80 11 -22 4 -19 -1 20 -37z"/>
</g>
</svg>
