<svg version="1.1" id="Logo2_copy" xmlns="http://www.w3.org/2000/svg" x="0" y="0" viewBox="0 0 288 288" xml:space="preserve"><style>.st0{fill:#282828}.st3{fill:#2d271c}.st4{fill:#4c4022}.st8{fill:#f2edd7}.st9{fill:#8a3a31}.st10{fill:#4c4c4d}.st13{fill:#4b5760}.st14{fill:#ded094}.st17{fill:#aabcbb}</style><path class="st0" d="M117 231.5l62.3 8.2 1.4 2 7.5.7.6-1.9 13.2 1.2 1 2.2 10.8 1.7s7.7 1.2 11-8.7c1.8-5.3 1.8-11.4 1-15.7-.6-3.7-2.6-5.6-2.6-5.6l-13.4-.5-1.3 1.4-44.5-1.4-47 16.4z"/><path d="M117.9 88.4s10.1-15.2 12.5-21.3c2.4-6 11.1-20.6 12.6-21.1s9.5 5.3 11.4 7.5 6.8 3.9 9.1 2.2 13.8-19 15.1-21.7c1.3-2.7 2-5.4 4.9-1.6 2.9 3.8 36.7 53.8 36.7 53.8l-19.1 21.1-83.2-.1V88.4z" fill="#4d5145"/><path d="M131.2 66s9.3-20.8 11.7-19.9c2.5.9 15.9 11.3 18.2 10.5s7.1-6.1 10.8-12.1 7.7-14.7 9.8-14 7.6 10.3 9.6 13.6c2 3.4 6.1 8.9 6.1 8.9s-4.3 7-5.2 8.5c-.8 1.5-3 7.5-3 7.5l-14.8-5.2s-5 8.1-5.7 8.9-4.5 8.5-6.2 8.5c-1.8.1-3-1.5-4.3-3.1-1.3-1.7-4-5.7-6.2-7-2.2-1.3-4.7-3-6.1-2.8s-4.4 2.7-5.6 4.3c-1.2 1.6-3 2.6-3.4 2.1s-.4-3.3-.1-4.9 0-3.3-.5-3.5c-.5-.2-2.7-.2-3.2-.2s-1.9-.1-1.9-.1z" fill="#e3eeec"/><path class="st3" d="M122.7 81s-2.6 2.2-.7-1.5c1-1.9 5.4-8.9 6.7-11.5 1.4-2.6 3.4-5.3 5.2-8.5.9-1.6 1.8-3.3 2.7-5 .5-.9.9-1.7 1.4-2.6.2-.4.5-.9.7-1.3.1-.2.2-.4.4-.7l.3-.4.2-.2c.6-.8 1.2-1.8 2.1-2.6.4-.4 1-.8 1.7-1 .4-.1.8-.1 1.2 0 .4.1.7.4.9.5 1.8 1.3 3.6 2.7 5.4 4.1 1.8 1.4 3.6 2.8 5.5 4.2.5.4.9.7 1.4 1l.2.1h.1c-.1 0 .1 0 0 0h1c1.1 0 2.3-.1 3.4-.4.5-.1 1.1-.3 1.3-.6.1 0 .3-.3.4-.6l.5-.7c.7-1 1.3-2 2-3 1.4-2 2.7-4 4.1-6 2.7-4 5.4-8.1 8.1-12l1-1.5.2-.3.2-.2c0-.1.2-.3.3-.3.3-.2.6-.3.9-.2.3 0 .5.1.7.2.7.4 1.1.9 1.5 1.5l1 1.5c1.3 1.9 2.6 3.9 3.9 5.8 5 7.6 9.8 14.7 13.8 20.7 4 6.1 7.3 11.2 9.7 14.7 2.3 3.6 3.6 5.6 3.6 5.6s-1.4-2-3.9-5.4c-2.4-3.5-5.9-8.4-10.1-14.4-4.2-6-9-13-14.2-20.5l-3.9-5.7-1-1.5c-.3-.4-.7-.8-1-1-.2-.1-.2 0-.1-.1.1-.2-.2.3-.3.5l-1 1.5c-2.6 4-5.3 8.1-8 12.1-1.4 2-2.7 4-4.1 6.1l-2.1 3-.5.8-.3.4c-.1.1-.3.4-.4.5-.7.5-1.3.7-2 .9-1.3.3-2.5.4-3.7.4h-1.5c-.1 0 0 0-.2-.1-.1-.1-.2-.1-.3-.2l-.2-.1c-.5-.4-1-.7-1.4-1.1-1.8-1.5-3.7-2.9-5.5-4.3-1.8-1.4-3.6-2.8-5.3-4.1-.3-.2-.4-.3-.5-.3h-.4c-.3.1-.7.3-1.1.6-.7.6-1.3 1.5-1.9 2.3-.1.1-.2.3-.3.4l-.1.2c-.1.2-.3.4-.4.6-.3.4-.5.9-.8 1.3-.5.9-1 1.7-1.5 2.6-1 1.7-1.9 3.4-2.8 4.9-1.8 3.2-3.5 6.1-4.9 8.6-1.5 2.6-2.8 4.8-3.8 6.6-2.2 3.6-3.5 5.7-3.5 5.7z"/><path class="st3" d="M67.7 121.8c-1.7-4-4.1-16.6 1.7-28.5 6.4-13.1 13.7-15.6 13.7-15.6s-2.9-3.6 0-6.1c2.9-2.5 9.3-3.4 11.5-3.6s4.4 3.6 4.4 3.6 15-.8 22.3 4c11.8 7.8 15.2 13.9 16.7 19.8 1.5 6-3.4 27.1-15.2 30.9-11.9 3.7-29.9 5.9-34 5.1-4.2-.8-21.1-9.6-21.1-9.6zm63.2-55.7s.4 0 1.1-.1c.7-.1 1.8-.2 3.2-.2.4 0 .7 0 1.1.1.1 0 .2 0 .3.1.1 0 .1 0 .2.1l.1.1c.1 0 .2.2.2.3.1.1.1.2.1.4.2.9.1 1.8 0 2.8-.1 1-.2 2-.2 3.1v.7c0 .2.1.5.2.5h.1c.1 0 .2 0 .3-.1.2-.1.5-.2.7-.4 1-.6 1.9-1.4 2.9-2.2 1-.8 2-1.7 3.1-2.5.3-.2.6-.4.8-.6l.5-.3.3-.1c.1 0 .3-.1.5-.1.1 0 .4.1.6.2.2.1.3.1.5.2.3.2.7.3 1 .5 1.3.7 2.5 1.5 3.7 2.4 1.2.9 2.4 1.9 3.3 3.2.9 1.2 1.8 2.5 2.8 3.7.5.6 1 1.2 1.6 1.7.6.5 1.2 1 1.9 1.3.7.3 1.3-.2 1.9-.7.5-.5 1-1.2 1.5-1.8 1.8-2.6 3-5.5 4.8-8.2.9-1.3 1.8-2.6 2.6-3.8l.6-.9c.2-.3.3-.5.5-.9.1-.2.2-.4.4-.6.2-.2.5-.4.8-.4.5-.1 1 0 1.4.1 1.5.4 2.8 1.1 4.1 1.7 1.3.6 2.6 1.1 3.8 1.6 1.2.5 2.5 1 3.7 1.3.3.1.6.1.8.2h.2c.1-.1.3-.1.3-.2.3-.2.6-.8.8-1.3.9-2.1 1.4-4.3 2.4-6.1 1-1.7 2-3.1 2.7-4.2 1.5-2.3 2.4-3.6 2.4-3.6l.1.1s-.8 1.4-2.1 3.8c-.7 1.2-1.5 2.7-2.5 4.3-.8 1.7-1.2 3.8-2.1 6.1-.3.6-.4 1.2-1.2 1.7-.2.2-.3.2-.5.3h-.7c-.4 0-.7-.1-1-.2-1.3-.3-2.5-.8-3.8-1.3-1.3-.5-2.6-1.1-3.9-1.6-1.3-.5-2.7-1.2-4-1.6-.3-.1-.6-.1-.8-.1-.2 0-.2.1-.4.4-.1.3-.4.8-.6 1.1l-.7.9c-.9 1.2-1.8 2.5-2.7 3.8-.9 1.2-1.6 2.6-2.4 4-.8 1.4-1.7 2.7-2.6 4-.5.6-1 1.3-1.6 1.8-.3.3-.7.6-1.1.7-.4.2-.9.1-1.3 0-.8-.3-1.4-.9-2-1.4-.6-.6-1.1-1.2-1.6-1.8-1-1.2-1.9-2.4-2.9-3.6-.9-1.2-2.1-2.1-3.3-3-1.2-.8-2.5-1.5-3.8-2.1-.6-.3-1.3-.6-1.8-.7l-.2.1-.4.3c-.3.2-.5.4-.8.6-2.1 1.7-3.9 3.5-6.1 4.8-.3.1-.5.3-.9.4-.2.1-.3.1-.6.1-.2 0-.5-.1-.7-.3-.4-.4-.4-.7-.4-1v-.9c.1-1.1.3-2.1.4-3.1.1-.9.2-1.9.1-2.6-.1-.4-.1-.5-.5-.6-.3-.1-.7-.1-1-.2-1.4-.1-2.5-.1-3.2-.1h-1.1l.1-.1z"/><circle transform="rotate(-20.439 103.278 108.654)" class="st4" cx="103.3" cy="108.7" r="35.6"/><path class="st4" d="M95.5 79.5l-5.4 2c-1.8.7-3.9-.3-4.6-2.1l-1.1-3.1c-.7-1.8.3-3.9 2.1-4.6l5.4-2c1.8-.7 3.9.3 4.6 2.1l1.1 3.1c.6 1.8-.3 3.9-2.1 4.6z"/><circle transform="rotate(-20.439 103.278 108.654)" cx="103.3" cy="108.7" fill="#e0e0e0" r="31.7"/><path class="st3" d="M103.3 140.9c-4.6 0-9.1-1-13.4-2.9-7.8-3.6-13.8-10-16.8-18.1-6.2-16.7 2.3-35.3 19-41.5 16.7-6.2 35.3 2.3 41.5 19 6.2 16.7-2.3 35.3-19 41.5-3.7 1.3-7.5 2-11.3 2zm-.1-63.4c-3.6 0-7.3.6-10.8 2-16.1 6-24.3 24-18.3 40.1 2.9 7.8 8.7 14 16.2 17.5 7.6 3.5 16 3.8 23.8.9 16.1-6 24.3-24 18.3-40.1-4.6-12.6-16.5-20.4-29.2-20.4z"/><path d="M99.7 91.6c-.1 0-.1 0-.2.1-.3.1-.4.2-.5.3h-.3c-.6-1.2-2.2-4-4.9-7.8.7 1.8 1.1 2.9 1.3 3.2.1.2.1.4.2.6.1.2.1.4.2.6.1.2.2.4.2.5l.2.4c.2.4.3.8.5 1.2.1.3.4.9.9 1.9v.1l-2.2.8c-.2-.6-.4-1.1-.6-1.6-.4-1-.7-1.8-.9-2.5-.1-.3-.3-.6-.4-1.1-.2-.6-.3-1-.5-1.4l-.2-.7c-.1-.2-.2-.5-.2-.7l-.4-1.2c-.2-.5-.4-.9-.5-1.1-.2-.5-.4-.8-.6-1.1.1-.1.2-.1.3-.1l.9-.3c.1-.1.3-.1.4-.2l.1.1s.1-.1.1-.2c0 0 .3-.1.4-.2.1 0 .2-.1.3 0 .4.8 1.4 2.5 3 5 1 1.7 1.8 2.9 2.3 3.8-.8-1.8-1.3-3.2-1.6-4l-.1-.4c-.2-.4-.3-.7-.5-1.1-.2-.6-.4-1.2-.7-1.9-.3-.8-.6-1.4-1-2l.6-.3.3-.1c.3 1.1.9 2.6 1.6 4.5.6 1.6 1.2 3 1.8 4.4.3.8.6 1.4.7 1.7v.1l.3.6-.3.1z" fill="#5b3b31"/><path d="M115.3 82.4l-4 4.8 1.5.7 1.4.6zM76.9 96.7l6.2 1-.7 1.5-.7 1.4z" fill="#473e30"/><path class="st0" d="M131.2 98.3l-10 1 .9 2.3.9 2.4zm-55.9 20.8l8.2-5.8.8 2.4.9 2.4zm29-38s-2.8 12.2-2.8 24.7 2.8 25.7 2.8 25.7l2.8-25.7c0-12.5-2.8-24.7-2.8-24.7z"/><path class="st3" d="M63.2 121.2s27.9-18.8 71.1-30.2 92.4-18.3 92.4-18.3-1.5-10.3 16.5-11c18-.7 26.8 20.1 26.8 20.1L236.3 200s-.7 5.4-2.9 5.9c-23.3 5-114.5 42-140.1 44.4-6.3.6-11.4-4-16.9-11.4C70.9 231.6 18.1 131 18.1 131s-1.8-22 14.7-25.6c16.5-3.6 19.4-1.3 24.2 1.6s4.8 5 4.8 5l1.4 9.2z"/><path class="st8" d="M22.8 130.5s-2.8.7-1.5-6.6c1.3-7.3 8.8-14.7 8.8-14.7s7.5-5.7 14.9-3.7 13.9 3.5 15.2 7.2c1.3 3.7 2.4 22.7 6.6 39.2s14 56.1 18.8 63.6c4.7 7.5 8.9 13.4 8.9 13.4s-5.9-2.4-8.9.9-3.2 7.9-3.2 9.5c0 1.7 3.2 6.4 3.2 6.4s-5.7-3.9-6.1-7 1.3-11.9 1.3-11.9-2.4.9-3.3 2.4c-.9 1.5-1.5 3.7-1.5 3.7s-1.3-4.4-1.3-6.2-.6-4-.6-4l-2.2 3.1s-13.4-23.1-17.4-32.6c-4-9.5-7.2-15-7.2-15s-.9-2 0-4.4c.9-2.4-1.7-2-2.8-2.2-1.1-.2.4-2-.9-3.1s-2.2-2-2.4-4.2c-.2-2.2-.4-8.2-.4-8.2l-2.4 2.1s-3.3-5.1-3.5-8.3 1.7-9 1.7-10.5-2 .6-2.6 1.8-2.2 2.4-2.2 1.1c0-1.3 2.6-10.5 2.6-12.1s-3.3 1.8-4.2 2.8c-.9.9-3.1.9-2.6-1.7.6-2.6 3.5-10.1 3.5-10.1s-.9-.4-2.9 1.8c-1.9 2.4-5.4 7.5-5.4 7.5zm199.5 63.7s2.9-1.8 7-2.3c4-.6 5.1 4.6 5.1 4.6l2-6.1s-2.2-5.7-2.2-7.7 2.2.9 2.2.9l17.4-63.8s-5.9-7.2-4-6.6 5.1 2.2 5.1 2.2l.7-7.3s-5-5.5-4.2-5.7c.7-.2 5.5 0 5.5 0l.9-5.3s-11.6-8.8-9-9.2c2.6-.4 10.3 3.3 10.3 3.3l2-9s-9.4-11.6-8.3-11.6c1.1 0 8.3 4.8 8.3 4.8s-3.5-6.8-4.2-7.7c-.7-.9-11.7-5.8-19.6-3.7-7.9 2.2-8.3 5.9-8.6 8.8-.3 2.9-6.4 121.4-6.4 121.4z"/><path class="st8" d="M63.3 123s5.9 33 11.2 51.5 10.1 35.2 12.5 39.2c2.4 4 10.6 15.2 11.4 17.4.7 2.2 2.4 5 2.2 6.8-.2 1.8-1.5 5.5-1.5 5.5s.9.2 7 0 31-7.3 50.8-15.4 31.5-12.9 43.5-16.4 18.9-5.5 18.9-5.5-3.7-4.4-2.4-6.8c1.3-2.4 3.9-4.6 3.9-4.6s2.8-50.1 3.5-61.6 2.2-31.5 2.2-38.1V74.5s-84 14.3-111.3 24.6S63.3 123 63.3 123z"/><path class="st9" d="M200.8 118.9c-.5-.3-1.4-.4-1.7-.9-1.9-2.7-3.5-5.3-5.1-7.8-1.6-2.4-3.5-4.9-5.6-7.6-2.4-2.8-4.8-5.1-7.5-7.5.8.6 1.4 1.4 2.4 1.9 1.9.8 3.7 1.6 5.6 2.5 1.7.8 4.1 1.6 5.5 3.3 1.7 2.1 3 3.6 3.8 4.5.8.8 1.1.9.7.4.6.7 1.6.7 2.4 1.2 1.3 1.3 1.5 3.1 2.1 4.5.2.1.7.6.7.8.4 2.1.4 4.2 1.4 6.4-.2-.1-.5-.2-.5-.2v1.2c-1.3-.7-2.8-1.8-4.2-2.7zm1.9-22.9l-.3.2h.3c.1.1.1-.1 0-.2zm-.5.4l-.1.1c.1 0 .1 0 .1-.1zm-.3.5c.1 0 .2-.1.2-.2-.1 0-.2.1-.2.2zm.4-.2c-.1 0-.1-.1-.1-.2 0 .1-.1.1-.1.2h.2zm0 0c.1 0 .2 0 .2.1-.1-.1-.1-.1-.2-.1zm1.1 1.5c0 .1-.3-.3-.4-.2-.1.3-.1.6-.3.8 0 .2-.5-.1-.5 0-.1.3-.1 1.3.2 1 .4-.5.6-.9.9-1.3.2-.5.3-.9.6-1.4.1-.1.2-.2.3-.2-.2 0-.3.1-.5.2-.3 0-.1.7-.3 1.1zm1.4-3.6v.3c-.4-.1-.6.2-.7.5l.3.1c.1-.1 0-.2-.2-.2.5 0 .7-.1.9-.4-.1-.1-.2-.3-.3-.3zm.5.1c0 .1-.1.1-.1.2l.1-.2z"/><path class="st9" d="M201.3 98.1c-.6.5-1.1 1-1.7 1.5 0 .1.1.2 0 .2h-.3l-.2.2s0 .1-.1.1c0 .1.1.1.1.2.1 0 .1 0 .2.1 0 0-.1 0-.2-.1h-.2c0 .1-.1.2-.2.2 0-.1.1-.2.2-.2l.1-.2v-.1l-.6.4-.1.1c-.1.2-.1.3-.4.2l-.1.1-.4.3v.5s-.2-.1-.3-.1c.1.1.1.2 0 .3.2 0 .4.1.5.1.3.1-.2-.6.3-.3-.5-.3 0 .4-.3.3-.1 0-.3-.1-.5-.1-.1.2-.3.3-.6.2 0-.3.3-.3.6-.2v-.3c.1 0 .3.1.3.1v-.5c-.3.2-.6.4-.9.7-.9.7-1.8 1.5-2.6 2.3-.4.4-.8.9-1.2 1.3-.4.5-.8.9-1.2 1.4l-2.7 3c-1.8 2-2.2 4.3-4.4 6.2-.8.7-1.3 2.6-1.6 3.5.4 1.5 2.7 1.7 2.9 1.6 2.1 0 1.3-1 2.9-2-1 .7-.9-1.2.8-1.6 2.4-.5 1.8-2.9 3-4.2.3-.3.4-.8.7-1.2.9-1 1.6-2 2.2-3.1.3-.5.6-1.1 1-1.5.2-.2.3-.5.6-.7.2-.3.5-.5.7-.8.5-.5.6-1.4.9-2 .3-.4.8-.6 1.1-.8.4-.4.6-.9.8-1.4-.3.5-.5.8-.9 1.3-.3.3-.3-.7-.2-1 0-.2.5.1.5 0 .2-.2.2-.5.3-.8 0-.2.4.2.4.1.2-.3-.1-1 .2-1.1.2-.1.4-.1.5-.2.1 0 .2-.1.2-.2l.1-.2c-.2-.1-.3-.2-.4-.3.1 0 .3-.1.4-.1-.1 0-.3.1-.4.1.1.1.3.3.4.3.1-.6.4-1.1.6-1.7-.2.2-.4.4-.9.4.2 0 .3.1.2.2l-.3-.1c.1-.3.2-.6.6-.5v-.2c.1 0 .2.1.3.2 0 0 .1-.1.1-.2-.3.3-.8.3-.8.3z"/><path class="st9" d="M198.9 100.3s0-.1.1-.1l-.5.4c.3 0 .4-.1.4-.3z"/><path class="st10" d="M123.4 206.2c.3 0 .6 0 .9.1-.1 0-.3-.1-.4-.1-.3-.1-.4-.1-.5 0zm1.7.1h.3-.3zm1.5.4c-.3-.1-.5-.2-.8-.2.3 0 .5.1.8.2zm-1.2-.4c.1 0 .1.1 0 0 .1.1.3.1.4.2-.1-.1-.3-.1-.4-.2zm0 0c-.1 0-.2-.1-.3-.1.1 0 .2.1.3.1z"/><path class="st10" d="M126 205.7c.2 0 .1.2.4.3.8.2 1.4.3 2.1.7.3.1.6.6.9.8.3.2.9.7 1.2 1 .3.3.5.5.2 0-1.2-1.5-2.3-2.1-3.8-2.6-1.3-.3-2.5-.4-3.8-.3h-1.1 1.4c.6.1 1.4-.1 2.5.1zm-9.2 1.6c.1-.1.4-.2.4-.2.7 0 1.4-.3 2.1-.5h-.3c-.4.1-.4.2-.1.1-.9.1-1.7.3-2.5.5.2 0 .2.1.4.1z"/><path class="st10" d="M116.1 207.4c.2-.1.3-.1.5-.2-.3 0-.4.1-.5.2z"/><path d="M129.5 208.2c.7.8 1.3 1.7 1.6 2.6.3.9.6 1.9.7 2.9.1.1.1.2.1.4s-.1.3-.1.5c0 .3 0 .6-.1.8v.3c0 .2 0 .1.1 0 0-.1.1-.2.1-.3 0 .1-.1.2-.1.3 0 .1-.1.3-.2.4 0 .3-.1.5-.2.8.1-.3.2-.5.2-.8 0-.2.1-.3.1-.5v-.1c-.1.6-.3 1.2-.6 1.8-.1.1-.1.3-.2.4-.2.4-.4.8-.7 1l-.2.3h.1l-.1.1c-.3.4-.6.7-.9 1.1-.2.3-.4.5-.6.8 0 0-.2.1-.3.2-.1.1-.2.3-.3.5.2-.1.5-.3.6-.4.3-.2.4-.7.8-.8-.4.2-.5.7-.8.8-.2.1-.4.3-.6.4-.3.3-.8.7-1.2 1 .4-.5.8-.7 1.2-1 .1-.2.3-.3.3-.5.1-.1.3-.2.3-.2.2-.3.4-.5.6-.8-.6.7-1.3 1.4-2.1 2-2.4 2-4.8 4-7.6 5.1-1.4.6-2.9.9-4.4.9-1.5 0-3.1-.3-4.6-.8-1.7-.4-3.2-1.3-4.1-2.5-.9-1.3-1-2.8-.4-4.2 1.2-2.8 3.7-5 6.2-6.8 2.6-1.8 5.3-3.5 8.4-4.3 1.1-.3 2.8-.7 4.2-.3 1.4.3 2.4 1.4 2.8 2.3.7 1.2 1 1.5 1.3 1.4.3 0 .4-.6.4-.6.1-1.1-.3-2.1-1.1-3.1s-2.2-2.1-4.6-2.3c.8.1 1 .2.9.3-.1.1-.6-.1-1.3 0-1.3 0-3.2.5-4.7.8-.5.1-1 .3-1.6.5-.5.2-1.1.4-1.6.7-1 .6-2.2 1.2-3.2 2-2.1 1.5-4.1 3.3-5.9 5.2-.2.2-.4.5-.7.7l-.6.9c-.2.3-.4.6-.6 1-.2.4-.4.7-.5 1.1-.4 1-.6 2.2-.4 3.4 0 .6.3 1.1.5 1.7.3.5.6 1 1 1.4.7.9 1.6 1.5 2.6 1.9l1.5.6c.5.1.9.3 1.4.4 1.8.5 3.9.8 6 .5 2.1-.3 4.1-1.1 5.9-2.1 1.9-1.1 3.3-2.5 4.5-3.7 1-.9 2.1-1.8 2.8-2.6 1.2-1.3 2-2.6 2.5-4-.6 1.6-1.3 2.6-2.4 3.9-.8.9.4-.8.8-1.4.2-.3.7-.6.8-.9.4-.6.6-1.3.8-2.1 0-.3.2-.3.3-.4.2-1.1 0-2-.1-2.7 0-.5-.1-1-.2-1.4-.1-.3-.1-.6-.2-.8-.1-.2-.1-.4-.2-.5 0 .2-.1.2-.1.3l-.3-.9.3.9c.1-.1.1-.1.1-.3-.6-1.3-1.5-2.7-2.8-3.5.7.5 1.3 1.2 1.6 2-.2-.3-.1-.3.1 0l.1.3c-.4-.7-.9-1.2-1.3-1.8 0 0-.3-.2-.4-.3-.2-.2-.1-.2-.1-.3-.1-.1-.3-.2-.4-.3.1.2.4.4.6.7.3-.2.5 0 .5 0z" fill="#8a5631"/><path class="st10" d="M131.6 216.2c0-.1.1-.2.1-.4l-.2.8c-.1.2-.2.5-.3.7.1-.2.3-.6.4-1.1z"/><path d="M93.3 232.6s-2.7-3.2-5.6-.8c-2.9 2.3-5.1 10.5.1 12.8s8 .5 9-1.1c1-1.5 1.9-5.8 1.3-7.5-.6-1.7-2.7-6.2-2.7-6.2s2.7 6.7 1.4 9c-1.3 2.3-1.6 7.1-6.3 4.7-4.7-2.4-4.3-2.7-3.5-5.8.7-3.1 4.6-2.9 4.7-.9s.3 2.3-.7 2.6-2-1-2-1 .3 4.4 2.7 3.2c2.4-1.2 2.8-2.5 2.8-3.9 0-1.3-1.2-5.1-1.2-5.1zm128.3-36.2s-3.4 2.8-3.3 4.7c.1 1.9 1 4.2 2.2 4.3 1.2.2 6.3 1.5 8.8-1.3 2.5-2.8 2.5-7.1 0-7.8s-6.2.9-7 2.8c-.7 1.9 1.4 4 2.4 4s2.8-.2 2.5-2.1c-.3-1.9-1.2-1.6-1.2-1.6s-.1 3-1.3 2.2c-1.2-.8-1.6-3.3.7-3.9 2.3-.6 4.7-.8 4.3 1.4-.4 2.2-.1 4.3-2.8 5-2.6.7-6.2.5-7-1.4-.8-1.8 1.7-6.3 1.7-6.3z" fill="#e2e0c5"/><path class="st13" d="M134.5 200.6c0-.1 0-.1 0 0 0-.1 0-.1 0 0zm-.7.1c0-.1 0-.1 0 0zm1-.2s.1 0 0 0zm-2.1.7zm.7-.3zm2.4.4c-.1 0 0 0 0 0zm0-.5zm-.3-.1zm0 0zm-5 4.2s0 .1 0 0zm1.5-2.9zm-.9 3.3zm4.7-3.7s.1.1 0 0zm-1.6 2.5zm-3.1 1.2zm.1-2.4zm-.1-.1zm-.5 2.2c0 .1 0 0 0 0zm.2-1.6zm2.7-2.5s-.1 0 0 0zm1.2 1.8zm0-.1s0 .1 0 0c0 .1 0 .1 0 0zm0 .1zm.4-.2zm-.1.1zm-.3.4zm0 1c0-.1-.1-.3 0-.3-.1-.1-.1-.1-.1-.2l.2.1v-.1c.1 0 0 0 .1.1l-.1-.1c.1.1.1 0 .2.1l.1-.1-.1-.1c.1 0 0 0 .1.1.2.1-.3-.3-.2-.3v-.1c-.2-.1.1.1 0 0l-.2-.2c.1 0 0 0 0-.1.1.1.1 0 .2.1l-.2-.2c.1.1.1.1.2.1l-.1-.1.1.1s-.1-.1 0-.1l.1.1c.1.1 0-.1 0-.1s-.1 0-.1-.1c0 0-.1-.1 0 0l.1.1c0-.1-.1-.1 0-.1-.1-.1 0 0 0 0l-.1-.1c-.1 0-.1-.1-.2-.1.1.1-.1-.2 0-.1 0 0 .1.1 0 .1l.3.3s0-.1 0 0l-.1-.1-.2-.2c0-.1.1.1.1.1 0-.1-.1-.1-.1-.1.1 0 0-.1.2.1l.1.1.1.1c-.1-.1 0-.1 0-.1l-.1-.1c-.3-.3.2.2.2.1s0 0-.1-.1c0 0 .1.1.1 0l.2.2c0-.1.1 0 0-.1s.1.1-.1 0l-.1-.1s0-.1 0 0l-.1-.1c0-.1-.1-.2-.1-.1l.1.1c.1.1 0 0 .1 0l.1.1c-.1-.1 0 0 0-.1 0 0-.1-.2-.2-.3l.1.1c-.1-.1 0 0 0 0s.2.1.2.2c0-.1-.1-.1-.1-.1l-.1-.1.1.1v-.1c-.1 0 0-.1-.1-.2h.1c.1.1 0 0 0-.1l.1.1h.1l-.1-.1.2.2c0-.1-.2-.2-.1-.2l.2.2c.1.1.1.1.1 0-.1-.1-.1 0-.1-.1s-.2-.3-.2-.3c0-.1 0-.1-.1-.1.1.1.3.3.3.2l-.2-.2c0-.1.2.1 0 0l.2.2-.1-.1c-.1-.1 0-.1-.1-.1 0-.1 0 0 .1 0 0 0-.2-.1-.2-.2.2.2.1 0 .2.1 0 0 .1 0 0 0l.1.1-.1-.2.2.2c-.1-.2 0-.1-.1-.2l.2.2v-.1c.1.1.1.1.2.1l-.1-.1.1.1s0-.1-.1-.1l-.1-.1.1.1.1.1s-.2-.3-.3-.3l-.1-.1.1.1-.1-.1.1.1.2.3.1.1.1.1c0-.1-.1-.1-.1-.1.1.1.1.2.2.2l-.1-.1-.1-.1s-.1-.2 0-.1c-.2-.2-.1-.2-.2-.3 0 0 0-.1 0 0l.2.2-.1-.1.1.1h.1c0-.1-.1-.1-.1-.1h.1l.2.2s0-.1-.1-.2c0 0-.1-.1-.1-.2l-.1-.1.1.1v-.1l.1.1s0-.1-.1-.1l.1.1h.1c0-.1 0 0-.1-.1.2.2.1 0 .1 0-.2-.2 0 0-.1-.2 0 .1.1.1.2.2s0 .1.2.2l-.1-.2c.1.1 0-.1.1.1v.1c.1 0-.1-.2-.2-.3l.2.2-.2-.2c.1.1 0 0 0-.1l-.2-.1c0 .1.1.2.1.1s-.1-.1-.1-.1c.1.1 0 0 0 .1-.1-.1-.1-.2-.2-.2l.1.2-.1-.1c-.1-.1-.1-.1-.1-.2-.2-.1 0 .1.1.2v-.1.1l-.1-.1s0 .1 0 0-.1-.1-.1-.2l.1.1c0-.1-.1-.1-.1-.1v.1l-.1-.1s0 .1.1.1c0 0 .1.3-.1 0 .1.1 0 .1 0 .2l-.2-.2c-.1 0 0 .1.1.1-.1 0-.2-.2-.2-.2v.2l-.1-.1.1.1-.1-.1.1.1c0-.1 0 0-.1-.1l.1.1c0 .1-.1-.1-.1-.1l.1.1c-.1-.1 0 .1-.1 0l-.1-.1v.2c-.1-.1-.1-.2-.2-.2l.1.1c-.1 0 0 .1-.1 0 .1.1 0 0 0 .1l.1.1c-.2-.2.1.1-.1 0l-.1-.1h-.1l.1.1s.1.1 0 .1l-.1-.1.1.1s-.2-.1-.1 0l.1.1s-.1 0-.1-.1v.1l-.1-.1v.2l-.1-.1.1.1s0 .1 0 0l-.1-.1c0 .1-.1-.1-.1 0 .1.1-.1-.1 0 0 0 0 0-.1-.1-.1v.1l-.1-.1.1.1-.1-.1c-.2-.2-.1 0-.2-.1l.1.1c.2.3-.2 0-.2.1l-.1-.1.1.1-.1-.1c0 .1.1.1.1.2-.1 0-.1-.1-.1-.1v.1l-.1-.1s0 .1-.1 0l.1.1c-.1-.1 0 .1-.1 0v-.1.1l-.1-.1v.1c-.1-.1 0 .1-.1 0 0 0 .1 0 .1.1-.1-.1 0 0-.1 0l-.1-.1.2.2c-.1 0 0 0-.1-.1 0 .1-.3-.2-.2 0l-.1-.1.1.1s0 .1-.1.1c0 .1-.1 0 0 .1s-.2-.1-.1 0c0 0 .1.1.1.2 0 0-.1 0-.1-.1 0 0 .1.1 0 .1v.1c.1.1-.2-.1 0 .1l-.1-.1c0 .1 0 .1.1.2-.2-.1 0 0-.1 0l.1.1s-.3-.1-.3 0l-.1-.1.1.1c-.1 0-.2 0-.2.1s.1.2.1.1c0 .1 0 .1-.1.1 0 0-.1 0-.1-.1.1.1 0 0 0 0h.1c.1.1 0 0-.1 0l.1.1-.1-.1s0 .1.1.2c0 0-.1 0-.1-.1h-.1l.1.1c-.1-.1-.1-.1-.2-.1l.1.1c.1.1.1.1 0 .1l-.1-.1.1.1-.1-.1c.1.1 0 .1-.1 0 .2.2-.1 0 .1.1l-.1-.1s.2.1.2.2c-.1 0-.1-.1-.2-.1l.2.2c-.3-.1-.2.1-.4 0 0 .1.1.2 0 .2h-.1.1v.1c-.1 0-.3 0-.2.1.2.2-.2-.1-.1 0l-.1-.1c0 .1.1.1.2.3l-.1-.1.1.1c-.1 0-.1 0-.2-.1l.1.1-.1-.1s0 .1-.2 0c.1.1 0 .2-.1.2l.1.1-.1-.1s.2.1.1.1c0 0-.1 0 0 .1 0 0-.1 0-.2-.1.2.1-.1 0-.1 0s-.3.1-.4.4c-.1.3-.2.6.3 1.1.1.1.1.1.3.2h-.1c.1 0 .2.1.4.2.1 0-.1-.1.1 0l-.2-.1h.1c-.1 0-.3-.2-.2-.2 0 0 .1.1.2.1h.1c-.1 0 .1.1.1.1h-.1s.1 0 .1.1c.1 0 0 0 .1.1l-.1-.1c.2.1-.1-.1.1 0 0 0 .1 0 .1.1h.1c.1 0 0 0 0 0 .1 0 0 0 .2.1.1 0-.2-.1-.1-.1s0 0 .1.1l.1.1c.2 0 .6.2.5.1.1.1.1 0 .1.1-.1-.1.3.1.3 0l-.1-.1c.3.1.2-.1.3 0h-.1l-.1-.1s.2.1.1.1c0 0-.1 0-.1-.1.2.1.3-.1.4-.1 0-.1.2-.2.3-.3 0 0-.2-.1-.1-.1.3.2 0-.1.2 0-.1-.1.3 0 .1-.2l.1.1v-.1l-.1-.1s.1.1 0 0h.1l-.1-.1c.2.1 0 0 .1 0 0 0-.1-.1 0-.1.1.1.1 0 .2.1 0-.1 0-.1.1-.1l-.1-.1h.1c.1.1 0-.1.1 0-.1-.1 0 0 0 0-.1 0-.2-.1-.1-.1l-.1-.1.2.2c0-.1-.1-.2 0-.2.1.1 0 0 .2.1 0-.1-.1-.1-.3-.2l.1.1c-.1-.1.2 0 .1-.1l-.1-.1c-.1-.1.1.1.1 0l.1.1c-.1-.1-.1-.1 0-.1l.1.1s0-.1-.1-.1h.1s-.1 0-.1-.1h.1c-.6-.3-.5-.2-.4-.2-.2-.1 0 0 0 0zm.4-1.5c0 .1 0 .1 0 0zm-.4.3c0 .1 0 .1 0 0 0 .1 0 .1 0 0zm.1.3s-.1-.1 0 0c-.1-.1 0 0 0 0zm.3-1zm.6-.5zm-.1-.1zm-.6.8zm.6-.7zm.1 0c0 .1 0 0 0 0zm-.5.2zm.5 0v-.1.1zm.1-.2c0 .1 0 .1 0 0 0 .1 0 0 0 0zm-.4.2s0-.1 0 0c0-.1 0 0 0 0zm20.7-2c0-.1 0 0 0 0zm-1-.3zm1.6.4zm-3.6-.6zm1.2.2zm2.9 1.5zm.5-.4zm-.2-.3s-.1 0 0 0zm-.1.1c0-.1 0-.1 0 0zm-11.5-1.6s0 .1 0 0zm5.5.5zm-5.6.2zm11.1 1.8c0 .1 0 0 0 0 0 .1 0 .1 0 0zm-6.1 1zm-5-2.8zm3.8-.4zm-.1-.2zm-3.6 0c-.1.1 0 .1 0 0zm2.6 0zm5.9.6zm-.6 2.3zm0-.1zm-.1 0zm.9.1zm-.2.1c0-.1 0-.1 0 0 0-.1 0 0 0 0zm-1.1.1zm-1.7.6c.2 0 .4-.2.6-.2 0-.2.1-.2.1-.2v.2-.1.1-.1c0 .1.1.1 0 .2h.2s0-.2.1-.1v.1c.1.2.1-.4.3-.3 0-.1.1-.1.1-.1 0-.2 0 .1-.1 0v-.2c0 .1 0 0 .1-.1 0 .1.1 0 .1.2 0-.1 0-.2.1-.3v.2-.1.1s0-.2.1-.1v.1h.1c0 .1 0 .1 0 0 0 .2 0-.1.1-.1v-.2s0-.2.1 0v.1c0-.1 0-.1.1-.1v.1c0-.1.1 0 .1 0v-.3c0 .2 0-.2.1-.1v.5s0-.1 0 0v-.5.1c0-.1 0-.2.1-.1 0 .1.1 0 .1.2v.2c0-.1 0-.1.1-.1v-.1c0-.4 0 .3.1.2v-.1l.1.1s0 .1.1.3c0-.1.1.1.1-.1-.1-.1 0 .2-.1 0v-.1s.1-.1.1 0v-.1c.1-.1.1-.2.1-.2v.1c0 .1 0 0 .1 0v.1h.1c0-.2 0 0 .1 0s.1-.3.1-.4v.1c0-.1 0 0 0 0s.1.2.1.3v-.2h.1v-.2h.1c0-.1.1-.1 0-.2v.1s0 .1 0 0v-.1s.1 0 .1.1l.1.1v-.1h.1v.1c0 .2.1.1.1.3 0 .1.1.1.1.1 0-.1 0-.1-.1-.2.1-.1 0-.4.1-.3v-.2c0 .2.1.4.2.4 0-.1-.1-.1-.1-.3v.1c0-.1.1.2.1 0l.1.2v-.2c0-.1.1 0 .1.1 0-.1-.1-.2 0-.2 0 .3.1.1.1.2 0 0 .1.1 0 0v.2c0-.2 0-.2.1-.3 0 .3 0 0 .1.2 0-.2.1-.1 0-.3l.1.2v-.1c0 .1.1.1.1.2v-.3.3s0-.4-.1-.4v-.1.2-.2l.1.1s0 .3.1.3v.2c0 .2 0 .2.1.3v-.3c-.1-.2 0-.2 0-.3 0 0 0-.1 0 0s.1.2.1.3v-.2l.1.1v.1c0-.1-.1-.1 0-.2v.3s.1 0 0-.2c0-.1-.1-.2 0-.2v-.1.1s.1 0 .1.1v-.1c.1.3.2.1.2 0-.1-.2 0 0 0-.2 0 .1.1.2 0 .3v.3s0-.3.1-.2v.2c.1 0 0-.2 0-.3 0 0 .1.1.1.2s-.1-.1-.1-.2c.1.2.1 0 .1-.1-.1-.2-.1 0-.2-.2v.2c0-.1 0-.2-.1-.3v-.1c-.1-.2-.1.1-.1.2v-.2s0 .1 0 0v-.2.2c0-.1-.1-.1 0-.2h-.1v-.2.1s-.1.3-.1 0c0 .1-.1.1-.1.2 0-.2-.1-.2 0-.3v.1c0-.1-.1-.2 0-.3v.2c0-.1 0-.2-.1-.2v.1-.1h-.1v.1c0 .1 0-.1-.1-.1v.1c-.1-.2-.1.1-.2 0v-.1s-.1 0-.1.2c0-.2 0-.2-.1-.3v.1c0-.1-.1 0-.1-.1v.2c-.1-.2-.1.2-.2-.1v-.1h-.1v.1s0 .1-.1.1c0-.2 0 0-.1-.1v.1s-.1-.2-.1-.1v.1h-.1v-.1l-.1.1v-.1.1-.1.1s0 .1-.1 0v-.1c-.1.1-.1-.1-.1 0v-.1c0 .2-.1-.2-.1 0v-.1.1-.1.2-.1.1c-.1-.2-.1-.1-.1-.2v.2c-.1.3-.2-.2-.3 0v-.1c0 .1 0 .2-.1.2v-.1c0 .1-.1.1-.2.1 0 .1-.1 0-.1 0v-.2s-.1.1-.1 0v.1c0-.2-.1.1-.1 0v-.1.1-.1l-.1.1c0-.2-.1 0-.1-.1v-.1.2c0-.1-.1 0-.1-.1-.1.1-.1-.3-.2-.1v-.1l-.1.1v-.1h-.2c-.1.1-.1-.1-.1 0v-.1c0 .1-.1-.2-.1-.1v.1s0 .1-.1 0v-.1s0 .1-.1.1c0 .1-.1-.2-.1.1 0-.1-.1 0-.1-.1l-.2.2c0-.2 0 0-.1-.1v.1c-.1 0-.2-.3-.3-.2v-.1.1c-.1-.1-.2-.1-.3-.1 0 .1-.1.2-.1.2-.1.1-.1.1-.2 0v-.1c0 .1 0 0-.1 0v.1c0 .1-.1 0-.1-.1v.2-.1s-.1.1-.1.2v-.1h-.1v.1c0 .1 0 .2-.1.1v-.2.2c0 .1-.1.1-.1.1s0-.2-.1-.1c0 .1 0 0-.1.2v-.2c0 .1-.1 0-.1-.1 0 .3-.1-.1-.1.1v-.1.2c-.1-.3-.3-.1-.4-.3-.1 0-.2.1-.2.1l-.1-.1v.1s0 .1-.1.1c-.1-.1-.2-.2-.3-.1-.1.3 0-.2-.1-.1v-.1c-.1.1-.1.1-.2.3v-.2l-.1.1v-.1s-.1.1-.1-.2c-.1.1-.3.1-.4 0 0 .1-.1.1-.1.1v-.1s-.1.2-.1.1c0 0 0-.1-.1.1v-.2c0 .2-.1 0-.1 0s-.4-.2-.9-.3c-.5-.1-1.1-.1-1.5.5 0 .1-.1.2-.1.3v-.1c0 .1-.1.3-.1.4 0 .1.1-.1 0 .1v-.2.1c0-.1.1-.3.1-.2v.3c0-.1-.1.1-.1.1v-.1.3l.1-.1c0 .2.1-.1.1.1v.2h.1v.1c0 .1 0-.1 0 0s.1 0 0 .2c0 .1.1-.2.1-.1v.1h.1s0 .2-.1.1c.1.2.1.7.3.6 0 .1 0 .1-.1.1.1-.1.1.3.2.3v-.1c.1.3.2.2.4.3v-.1c0-.1.1-.1.1-.1s-.1.2 0 .2v-.1c.1.3.3.3.5.4.3 0 .6.2.8.2v-.2c0 .4.2 0 .2.2.2-.1.3.3.5 0v.1c0 .1 0 0 .1 0 .1.1.1-.1.2 0v-.1s0 .1 0 0v.1l.1-.1c0 .2.1 0 .1.1 0 0 .1-.1.2-.1 0 .1.1.1.1.2h.4v-.1.1c0 .2.1 0 .1.1 0-.1 0 0 0 0v-.2.3c.1 0 .2-.2.3-.1 0 .1.1 0 0 .2.1-.1 0-.2 0-.3 0 0 0-.1 0 0v.3c.1-.1.2.1.2 0v-.1c.1-.2.1.1.2 0v.1c0-.1 0-.2.1-.1 0 .1 0 .1-.1.2 0 0 .1 0 .1-.1 0 0 0 .1.1.1v-.1c0 .1.1.1.2.1v.1c.4-1.6.4-1.3.4-1.4zm3-.8c0 .1 0 .1 0 0zm-1.1 0c0 .1 0 .1 0 0 0 .1 0 .1 0 0zm-.2.3s0-.1 0 0c0-.1 0-.1 0 0zm1.8-.7c0 .1 0 .1 0 0 0 .1 0 .1 0 0zm1.7-.1s-.1 0 0 0c-.1 0 0 0 0 0zm-.2-.2s0 .1 0 0c0 .1 0 .1 0 0zm-1.9.4s0 .1 0 0c0 .1 0 .1 0 0zm1.9-.3zm.2.1c0 .1 0 .1 0 0zm-1.1-.1c0 .1 0 .1 0 0zm.8.2v.1zm.4 0zm-.8 0v-.1.1zm23.3-.5s0-.1 0 0c0-.1 0 0 0 0zm-1-.3c0-.1 0-.1 0 0zm1.6.4zm-3.6-.8zm1.2.3zm2.8 1.7zm.5-.4zm-.2-.3zm0 .1zm-11.8-1.2s0 .1-.1.1l.1-.1zm5.6-.2c0-.1 0 0 0 0zm-5.6.9zm11.2 1.4s-.1-.1 0 0c-.1 0 0 .1 0 0zm-6 .8zm-5.2-2.2zm3.7-1zm-.1-.1c0-.1 0-.1 0 0zm-3.6.5zm2.5-.5zm6.3.5zm-.8 2.2zm.1-.1zm-.1.1zm.8.1zm-.2 0zm-1.1.1z"/><path class="st13" d="M174.9 203.5c.2 0 .4-.2.5-.2 0-.2.1-.2.1-.2v.2-.1.1-.1c0 .1.1.1 0 .2h.2s0-.2.1-.1v.1c.1.2.1-.4.2-.3 0-.1.1-.1.1-.1 0-.2 0 .1-.1 0v-.2c0 .1 0 0 .1-.1 0 .1.1 0 .1.2 0-.1 0-.2.1-.3v.2-.1.1s0-.2.1-.1v.1h.1c0 .1 0 .1 0 0 0 .2 0-.1.1-.1v-.2s0-.2.1 0v.1c0-.1 0-.1.1-.1v.1c0-.1.1 0 .1 0v-.3c0 .2.1-.2.1-.1v.5s0-.1 0 0v-.5.1c0-.1 0-.2.1-.1 0 .1.1 0 .1.2v.2c0-.1 0-.1.1-.1v-.1c.1-.4 0 .3.1.2v-.1s0 .1.1.1v.3c0-.1.1.1.1-.1-.1-.1 0 .2-.1 0v-.1s.1-.1.1 0v-.1c.1-.1.1-.2.1-.2v.1c0 .1 0 0 .1 0v.1h.1c0-.2 0 0 .1 0s.1-.3.1-.4v.1c0-.1 0 0 0 0s.1.2.1.3v-.2h.1v-.2h.1v.1l.1-.1c0-.1.1-.1 0-.2v.1s0 .1 0 0v-.1s.1 0 .1.1l.1.1v-.1h.1v.1c0 .2.1.1 0 .3 0 .1.1.1.1.1v-.2c.1 0 .1-.4.1-.3 0-.1 0-.1.1-.2 0 .2.1.4.1.4v-.3.1c0-.1.1.2.1 0l.1.2v-.1c0-.1 0-.1.1-.1 0-.1.1 0 .1.1v-.2c0 .3.1.1.1.2 0 0 0 .1 0 0v.2c0-.2 0-.2.1-.3 0 .3 0 0 .1.2 0-.2.1-.1.1-.3 0 0 0 .2.1.2v-.1c0 .1.1.1.1.2v-.2c0-.2 0-.1.1-.1v-.2.2-.2s0 .1.1.1v.3s0 .1-.1.2v.1c0-.1 0-.1.1-.1 0 .2 0 .2.1.3v-.2s0-.2.1-.1c-.1-.2.1-.2 0-.3 0 0 0-.1 0 0v.1s0 .1.1.1v-.1.4s.1 0 .1-.2c0-.1-.1-.2 0-.2v-.1.1s.1 0 .1.1v-.1c.1.3.1.1.2.1v-.3c0 .1.1.2 0 .3 0 .1-.1.1 0 .3 0 0 0-.3.1-.2v.2c.1 0 0-.2 0-.3.1 0 .1.1.1.2s-.1-.1-.1-.2c0 .2.1 0 .1-.1-.1-.2-.1 0-.1-.2v-.2c-.1-.2-.1.1-.1.2v-.2s0 .1 0 0v-.2.2c0-.1-.1-.1 0-.2h-.1v-.2.1s-.1.3-.1 0c0 .1-.1.1-.1.2 0-.2-.1-.2 0-.3 0-.1 0 .1-.1.1v-.3.1-.1h-.1v.1c0 .1 0-.1-.1-.1v.1c-.1-.2-.1.1-.2 0v-.1s-.1 0-.1.2c0-.2 0-.2-.1-.3v.1c0-.1-.1 0-.1-.1v.2c-.1-.2-.1.1-.1-.1v-.1h-.1v.1s0 .1-.1.1v-.1.1s0-.2-.1-.1v.1h-.1v-.1l-.1.1v-.1.1-.1.1s0 .1-.1 0v-.1c-.1.1-.1-.2-.1 0v-.1c0 .2 0-.2-.1 0v-.1.1-.1.2-.1.1c0-.2-.1-.1-.1-.2v.2c-.1.3-.2-.2-.3 0v-.1c0 .1 0 .2-.1.2v-.1c-.1.1-.1.1-.2.1 0 .1-.1 0-.1 0v-.2s-.1.1-.1 0v.1c0-.2-.1.1-.1 0v-.1c0-.1 0 0-.1.1v-.1l-.1.1c0-.2-.1 0-.1-.1v-.1.2c0-.1-.1 0-.1-.1-.1.1-.1-.3-.2-.1v-.1l-.1.1v-.1h-.2c-.1.1-.1-.1-.1 0v-.1c0 .1-.1-.2-.1-.1s0 .1-.1.2v-.1s0 .1-.1 0v-.1s0 .1-.1.1c0 .1-.1-.2-.1.1 0-.1-.1 0-.1-.1l-.2.2c0-.2 0 0-.1-.1v.1c-.1 0-.2-.3-.3-.2v-.1.1c-.1-.1-.2-.1-.3-.1 0 .1-.1.2-.1.2-.1.1-.2.1-.2 0v-.1c0 .1 0 0-.1 0v.1c0 .1-.1 0-.1-.1v.2-.1s-.1.1-.1.2v-.1h-.1v.1c0 .1 0 .2-.1.1v-.2.2c0 .1-.1.1-.1.1s0-.2-.1-.1c0 .1-.1 0-.1-.1 0 .3-.1-.1-.1.1v-.1.2c-.1-.3-.3-.1-.5-.3-.1 0-.2.2-.2.1l-.1-.1.1.1s0 .1-.1.1c-.1-.1-.2-.2-.3-.1-.1.3 0-.2-.1 0v-.1c-.1.1-.1.1-.2.3v-.1.1c0-.1-.1-.1 0-.2v.1-.1s-.1.1-.2-.2c-.1.2-.3.1-.4.1 0 .1-.1.1-.1.1v-.1s-.1.2-.1.1c0 0-.1 0-.1.1 0 0-.1-.1 0-.2 0 .2-.1 0-.1 0s-1.7-.6-2.2.5c0 .1-.1.2-.1.3 0 0 0-.2 0 0v.5-.2.1c0-.1.1-.4.1-.2v.3c0-.1-.1.1-.1.1v-.1.3l.1-.1c0 .2.1-.1.1.1v.2h.1c0 .1.1 0 .1.2.1.1 0-.2.1-.1v.1h.1v.1c.1.1.2.7.3.5v.2c.1-.1.1.3.2.3v-.1c.1.3.3.1.4.3v-.1c0-.1.1-.1.1-.1v.1c.1.3.4.2.6.3.3-.1.6.1.8.1v-.2c.1.4.1-.1.2.2.2-.1.3.2.4-.1v.1c0 .1 0 0 .1 0s.1-.1.2 0v-.1s0 .1 0 0v.1-.1c0 .2.1 0 .1.1 0 0 .1-.1.2-.1 0 .1.1.1.1.2.1 0 .2-.1.4 0v-.1.1c0 .2.1 0 .1.1 0-.1 0 0 0 0v-.2.3c.1 0 .2-.2.3-.2 0 .1.1 0 .1.2.1-.1 0-.2 0-.3 0 0 0-.1 0 0v.3c.1-.1.2.1.2 0v-.1c.1-.2.1.1.1 0v.1c0-.1 0-.2.1-.1 0 .1 0 .1-.1.2 0 0 .1 0 .1-.1 0 0 0 .1.1.1v-.1c0 .1.1.1.2.1-.8-1.6-.8-1.6-.7-1.5-.1-.2-.1.1 0 0zm2.8-.7s0 .1 0 0zm-1 0z"/><path class="st13" d="M176.5 203s0-.1 0 0c-.1-.1-.1 0 0 0zm1.8-.5zm1.6 0zm-.1-.2zm-1.9.2c0 .1 0 0 0 0zm1.9-.2c-.1 0-.1 0 0 0zm.1.2zm-1-.2zm.8.2v.1zm.3 0zm-.8-.1v-.1.1zm20-10.6zm-.5.8c-.1 0-.1 0 0 0zm.8-1.4zm-1.8 3.1zm.6-1c.1 0 .1 0 0 0zm2.4-2.2zm-.3-.7zm-.3.3zm0 0zm-7.1 7.5v.1-.1zm4-2.7zm-3.8 3.4zm7.7-7.5c.1.1 0 .1 0 0 .1.1.1.1 0 0zm-1.8 6.5zm-5.9 1zm2.7-2.5zm-.2-.1zm-2.7 2c0 .1 0 .1 0 0zm1.9-1.4s.1 0 0 0c.1 0 0 0 0 0zm3.5-3.6c0-.1 0-.1 0 0zm1.8 1.4zm-.1-.1s.1 0 0 0c.1.1.1 0 0 0zm0 .1c.1 0 0 0 0 0zm.5-.7v-.1.1zm-.1.1zm-.3 1.1z"/><path class="st13" d="M200 197.2c0-.1.1-.3.1-.4 0-.1 0-.2.1-.3-.1-.1-.1-.2-.1-.2l.2.1v-.1c.1 0 0 0 .1.1l-.1-.1c.1 0 .1-.1.2.1l.1-.2s-.2-.1-.1-.1 0 0 .1.1c.2-.1-.3-.3-.2-.4 0 0 0-.1-.1-.1-.2-.1.1.1 0 0-.2-.1-.1-.1-.2-.1.1 0 0-.1 0-.1.1 0 .1-.1.2-.1 0 0-.2-.1-.2-.2.1 0 .1.1.2 0h-.1.1s-.1-.1 0-.1l.1.1v-.1c.1 0 0 0 0 0 .2 0-.1-.1 0-.1h-.2s-.1-.1 0-.1l.1.1-.1-.1h.1c-.1-.1 0-.1 0-.1l-.1-.1h-.2c.2 0-.2-.1-.1-.1s.1.1.1.1c.2.1.3.1.4.2 0 0 0-.1 0 0l-.2-.1c-.1 0-.2 0-.2-.1s.2 0 .1 0c0-.1-.2-.1-.1-.1s0-.1.2 0h.1c.1.1 0 0 .1 0-.1 0-.1-.1 0-.1h-.1c-.3-.2.2.1.2 0l-.1-.1s.1 0 .1-.1h.3s.1-.1 0-.1.1.1-.1.1l-.1-.1v-.1h-.1c0-.1-.2-.1-.1-.2.1 0 .1.1.1.1.1 0 0 0 .1-.1.1 0 0 0 .1.1v-.1c-.2-.1 0 0 0-.1s-.2-.2-.3-.3h.1c-.1 0 0 0 0 0h.3c0-.1-.1 0-.1-.1v-.1c-.1 0-.1 0-.2-.1v-.1s.1 0 .1.1c0 0 .1 0 0-.1-.1 0-.1-.1-.2-.1h.1s.1 0 0 0c.1 0 0 0 0-.1h.1v-.1c.1 0 .3.1.3.1-.1 0-.2-.1-.2-.1.1.1.1 0 .3.1.1 0 .1-.1.1-.1h-.2c0-.1-.4-.2-.3-.2l-.1-.1h.4-.3v-.1h.1c0-.1.2 0 0-.1h.2-.1c-.1 0-.1-.1-.1-.1-.1-.1 0-.1.1-.1-.1 0-.2 0-.2-.1.3.1.1-.1.2 0 0 0 .1 0 0 0h.2c-.2 0-.2-.1-.2-.1.3.1 0-.1.3 0-.2 0-.1-.1-.2-.1h.2-.1c.1 0 .1-.1.2-.1l-.2-.1c-.2 0 0 0-.1-.1h.3c-.1 0-.3-.1-.4-.1-.1 0-.1 0-.1-.1h.2-.2.1s.3.1.3 0l.1.1h.1c0-.1-.1 0-.1-.1h.3-.2s-.2-.1-.1-.1c-.3 0-.2-.1-.3-.1 0 0-.1 0 0 0 .1.1.2 0 .3 0h-.2.2-.2.1c.1 0 .3 0 .3.1 0 0 0-.1-.2-.1h-.2l-.1-.1h.1s-.1 0-.1-.1h.1s0-.1.1-.1h-.1c.3 0 .1-.1.1-.2h-.2c.1 0 .2-.1.3 0 .1 0 .1.1.3 0 0 0-.3-.1-.2-.1h.2c.1-.1-.2 0-.3-.1 0-.1.1 0 .2 0v-.1c.1 0-.1.1-.2 0 .2 0 0-.1-.1-.1-.2.1 0 .1-.2.1.1 0 .2 0 .2.1h-.1.1-.3.1c-.1 0-.2 0-.2-.1-.2 0 .1.1.2.2h-.1.1-.2s.1 0 0 0h-.2l.2.1h-.2v.1h-.2.1s.3.1 0 .1c.1.1.1.1.1.2-.1-.1-.2 0-.3 0-.1 0 .1.1.1.1h-.3.2-.2.1-.1.1-.1v.1h.1c.1.1-.1 0-.2 0h.1c-.2 0 .1.1 0 .1h-.1s0 .1.1.2h-.3l.1.1c-.1 0 0 .1-.1.1.1 0 0 0 .1.1h.1c-.3 0 .1.1-.1.1h-.1v.1h.1s.1.1 0 .1c-.2-.1 0 0-.1 0l.1.1h-.1c.1 0 .2 0 .1.1h-.1v.1h-.1l.1.1h-.1.1-.1.1v.1h-.1c0 .1-.2 0-.1.1h-.1c.1.1-.2 0 0 .1h-.1.1-.1l.2.1h-.1.1-.3.2c.3.2-.2.1-.1.3h-.1l.1.1c-.1 0-.1 0-.2-.1.1.1.2.1.2.1-.1 0-.1 0-.1-.1 0 .1.1.2 0 .2v.1h-.1s-.1 0 0 0h-.1s0 .1-.1.1c0 0 .1 0 .1.1-.2 0 .1.1-.1.1-.1 0 0 0 .1.1h-.1l.1.1c-.2 0 0 .1-.1 0h.1-.1l-.1-.1s.1.1.2.1h-.1c0 .1-.4 0-.2.1h-.1l.1.1h-.1v.2c.1.1-.1 0 0 .1h-.1c.1.1-.2 0-.1 0 0 0 .1.1.2.1h-.1s.1.1 0 .1h-.1v.1c.1.1-.2 0 0 .1h-.1c.1.1.1.1.1.2-.2-.1 0 0-.1 0h.1c0 .1-.3 0-.3.1h-.1l.1.1-.2.2s.2.1.1.1v.1s-.1 0-.1-.1c.1.1 0 0 0 0h.1c.1.1 0 0-.1 0l.1.1-.1-.1s0 .1.1.2c0 0-.1 0-.1-.1h-.1l.1.1-.2-.2.1.1v.1l-.1-.1c.1.1 0 0 .1.2l-.1-.1c.1.1 0 .1-.1 0 .2.2-.1 0 0 .2l-.1-.1.1.2c-.1 0-.1-.1-.2-.2l.1.2c-.2-.1-.3.1-.5 0 0 .1 0 .2-.1.2h-.1l.1.1v.1c-.1 0-.3-.1-.3.1.1.3-.2-.2-.1 0v-.1.3c-.1-.2 0 0-.1-.1v.1c0-.1-.1-.1-.1-.1v.1l-.1-.1s-.1.1-.2-.1c0 .2-.2.2-.3.2v.1l-.1-.1v.1s-.1 0 0 .1c0 0-.1 0-.1-.2.1.2-.1 0-.1 0s-.4 0-.8.2-.9.5-.9 1.2c0 .1 0 .2.1.3 0 0-.1-.1-.1 0 .1.1.1.3.2.4 0 .1 0-.1 0 0l-.1-.2.1.1c0-.1-.1-.4 0-.3l.1.1.1.1v.1c.1 0 0 0 0-.1 0 0 0 .1.1.1v.1-.1c.1.2 0-.1.1.1v.2h.1c0 .1.1 0 .1.1.1.1 0-.2 0-.1v.1-.1.1c.2.1.5.5.5.3.1.1 0 .1 0 .2 0-.2.2.2.3.1v-.1c.2.2.3 0 .5.1v-.3s.1.2.1.1l-.1-.1c.2.2.4 0 .7 0 .2-.2.6-.2.8-.3l-.1-.2c.3.3.1-.1.3.1.1-.2.4 0 .4-.3l.1.1v-.1c.1 0 .1-.1.1-.1l-.1-.1s.1.1.1 0v.1-.1c.1.2.1 0 .2 0 0-.1 0-.2.1-.2.1.1.2 0 .2 0l.3-.3-.1-.1v.1c.1.1 0-.1.1 0-.1-.1 0 0-.1 0s-.1-.2-.1-.1v-.1l.2.2c.1-.1 0-.3.2-.4.1.1.1-.1.2.1 0-.1-.1-.1-.2-.3 0 0 0-.1.1 0l.1.1v-.1.1c0-.2.3-.1.2-.2-.1-.1 0 0-.1 0 0-.2.2 0 .2-.1l.1.1c0-.1-.1-.1 0-.1.1.1.1.1.1.2 0 0 .1-.1 0-.2 0-.1.1 0 .1 0s-.1 0-.1-.1c.1 0 .2-.1.2-.2 0 0 .1 0 .1.1-.4 0-.1.2-.1.1zm.6-3.3c0 .1 0 .1 0 0zm-.4 1z"/><path class="st13" d="M200.3 195.3c0-.1-.1-.1 0 0-.1-.1 0 0 0 0zm.2-2zm.4-1.7zm-.2.1zm-.3 2zm.3-2c0 .1 0 .1 0 0zm.2-.1zm-.5 1c.1.1.1 0 0 0zm.5-.7zm.1-.4zm-.3.8h-.1.1zm-28.1-80.7zm.6.2zm-1-.3zm2.2.3zm-.7 0c0-.1 0-.1 0 0-.1-.1-.1-.1 0 0zm-2-1.4zm-.2.4zm.2.3zm0-.1c0 .1 0 .1 0 0zm6.4-1.1v-.1.1zm-2.7 1.6zm2.4-2.3zm-6 .9s0-.1 0 0zm2.7-1.6zm3.3.7zm-1.4 1.9s0 .1 0 0zm.1.1c0 .1 0 .1 0 0zm1.6-1.4c-.1-.1-.1 0 0 0zm-1.1 1.1zm-3.4.8zm-.3-2.2zm0 .1v-.1.1zm0 0zm-.4-.1v.1-.1zm.1 0zm.5-.2z"/><path class="st13" d="M174 108.4c-.1.1-.1.3-.2.2v.2l-.1-.2v.1c0-.1-.1 0-.1-.2h-.1s.1.2 0 .1v-.1c-.1-.1.1.4 0 .4v.1c.1.2 0-.1 0 0 .1.2 0 .1.1.2v.1c-.1-.1-.1 0-.1-.2 0 .1.1.2 0 .3-.1-.1 0-.1-.1-.2v.1-.1c0-.1 0-.1 0 0-.1-.2 0 .1 0 .1s0 .1.1.2c0 0 0 .1 0 0v-.1c0 .1 0 0-.1 0v.1c0 .1 0 .1.1.2-.1-.2 0 .2 0 .1v-.1c-.1-.2-.1-.3-.1-.4 0 0 0 .1 0 0l.1.2c0 .1.1.2.1.2 0 .1-.1-.2 0-.1 0 .1.1.2 0 .1 0-.1 0 0-.1-.2v-.1c0-.2 0 0-.1-.1v.2c.1.4-.1-.2-.1-.2v.1l-.1-.1s-.1-.1-.1-.2c0 .1-.1 0 0 .1s0-.2.1 0v.1s0 .1-.1 0v.2c0-.1 0 0-.1 0v-.1c.1.2 0 0 0 .1 0 0 0 .3.1.4 0 0 0-.1-.1-.1 0 .1 0 0 0 0l-.1-.2v.2c0 .1.1.1.1.2 0 0-.1-.1 0-.1v.1c0 .1 0 .1.1.2v-.1s0-.1 0 0c-.1-.1 0 0 0 .1l-.1-.1v-.1.1c0-.1-.1-.3-.1-.3 0 .1.1.2.1.2 0-.2-.1-.1-.1-.3 0-.1-.1-.1-.1 0s0 .1.1.2c0 .1.1.4 0 .3v.2c0-.2-.2-.4-.2-.4 0 .1.1.1.1.3v-.1c0 .1-.1-.2 0 0l-.1-.2v.2c0 .1 0 0-.1-.1 0 .1.1.2.1.2-.1-.2-.1-.1-.1-.2 0 0 0-.1 0 0v-.2c.1.2 0 .2 0 .3-.1-.3 0 0-.1-.2.1.2 0 .1 0 .3l-.1-.2v.1c0-.1-.1-.1-.1-.2v.2-.1.1c.1.2 0 .1 0 .1v-.1s0-.1-.1-.2c0 0 .1.3.1.4v.1l-.1-.2v.2s0-.1-.1-.1l-.1-.3v-.3.1c0-.2-.1-.2-.1-.2v.3c.1.2 0 .2.1.3 0 0 0 .1 0 0s-.1-.2-.1-.3c0 0 0 .1.1.2 0 0 0-.1-.1-.1v-.1c0 .1.1.1.1.2 0-.1-.1-.2-.1-.3v.2c0 .1.1.2.1.2v.1-.1l-.1-.1v.1c-.1-.3-.1-.1-.1 0l.1.2c0-.1-.1-.2-.1-.2-.1-.1 0-.1-.1-.3v.2c0-.2 0 .1-.1-.1v-.1c-.1 0 0 .2.1.3 0 0-.1-.1-.1-.2s.1.1.1.2c-.1-.2 0 0 0 .1l.1.2c0-.1-.1-.2 0-.2 0 .1.1.2.1.3l-.1-.2v.1c0 .1.1.2 0 .2.1.2 0-.1 0-.2v.2s0-.1 0 0v.2-.2c0 .1.1.1.1.2v.1s0-.3.1 0v-.2c0 .1.1.2.1.2v-.1c0 .1.1.2.1.3v-.2c0 .1.1.2.1.2v-.1.1-.1c0-.1 0 .1.1.1v-.1c.1.2 0-.1.1 0v.1s.1 0 0-.2c.1.2.1.2.1.3v-.1c0 .1 0 0 .1.1v-.2c.1.2 0-.1.1 0v.1h.1v-.2c0 .2 0 0 .1.1v-.1s.1.2.1.1v-.2.2-.1l.1.1v-.1s0-.1 0 0v.1c0-.1.1.1.1 0v.1c0-.2.1.2 0 0v.1-.1.1-.2.1-.1c.1.2.1 0 .1.2l-.1-.2c-.1-.3.2.1.2 0v.1-.1c0 .1 0 .1.1.2v-.2.1c0-.1 0-.1.1-.1 0-.1 0 0 .1 0v.2s0-.1.1 0v-.1c.1.2 0-.1.1 0v.1-.1c.1.2 0 0 .1.1v-.1.2s0-.2-.1-.2c0 .1 0 0 .1.1 0-.1.2.3.1.1v.1-.1.1s.1 0 .1-.1.1 0 .1 0v.1c0-.1.1.2.1 0v-.2s0 .1.1.1v-.1c0-.1.1.2 0-.1l.1.1v-.2c.1.2 0 0 .1.1v-.1l.2.2v.1-.1h.2v-.2c0-.1 0-.1.1-.1v.1c0-.1 0 0 0 0v-.1c0-.1 0 0 .1.1v-.2l.1.1v-.2s.1.1 0 .1h.1v-.1c0 .1.1.1.1.2 0-.1 0-.1-.1-.1v-.1l.1.1v-.2l.1.1c0-.1 0 0 .1 0-.1-.3.1.1 0-.1l.1.1c0-.1-.1-.2-.1-.2 0 .1.1.2.1.2l-.1-.2c.2.2.2 0 .4.2 0-.1 0-.2.1-.2h.1l-.1-.1v-.1c.1.1.2.2.2 0-.1-.3.1.2.1 0v-.2c.1.3 0 0 .1.1v-.1c0 .1.1.1.1.1v-.1.1s0-.1.1.1c0-.2.1-.2.2-.2v-.1l.1.1v-.2s.1.1.1.2c-.1-.2.1 0 .1 0s1.1.1.9-1.1c0-.1 0-.2-.1-.3 0 0 .1.1 0 0s-.1-.3-.2-.4c0-.1 0 .1 0 0l.1.2s0-.1-.1-.1c0 .1.1.3.1.2l-.1-.1-.1-.1v-.1.1s0-.1-.1-.1v-.1.1c-.1-.2 0 .1-.1-.1 0-.1 0-.1-.1-.1v-.1.1c0-.1 0 0-.1-.1s.1.2 0 .1v-.1s-.1-.1 0-.1c-.1-.1-.4-.5-.4-.4-.1-.1 0-.1 0-.1 0 .2-.2-.2-.2-.2v.1c-.2-.2-.2-.1-.3-.1v.2s-.1-.2-.1-.1c0 0 0 .1.1.1-.2-.2-.3-.1-.4-.2-.1.1-.3 0-.4.1l.1.2c-.2-.4 0 .1-.2-.1 0 .1-.2-.1-.2.2v-.1s0 .1-.1 0v.1s0-.1 0 0v-.1.1c-.1-.2 0 0-.1-.1 0 0 0 .1-.1.1 0-.1-.1-.1-.1-.1s-.1.1-.2.1l.1.1v-.1c-.1-.1 0 .1-.1 0 .1.1 0 0 0 0 0 .1.1.2 0 .1v.1c0-.1-.1-.2-.1-.3 0 0 0 .2-.1.2 0-.1 0 0-.1-.2 0 .1.1.2.1.3 0 0 0 .1 0 0s-.1-.1-.1-.1v-.1c0 .1-.1-.1-.1 0v.1c0 .2-.1-.1-.1 0v-.2.1s0-.1-.1-.1c0 0 0 .1.1.1 0-.1-.1 0-.1 0-.3.7-.3.7-.4.6.1.2 0 0 0 0zm-1.1 1.1zm.5-.1zm0-.2s.1 0 0 0c.1 0 0 0 0 0zm-.7.7zm-.8.2zm.1.2zm.9-.5zm-.9.4zm-.2-.1c.1 0 .1 0 0 0 .1 0 0 0 0 0zm.6.1c0-.1 0 0 0 0zm-.4-.2zm-.2.1c0-.1 0-.1 0 0 0-.1 0 0 0 0zm.4 0zm-26.4 3c-.1 0-.1 0 0 0-.1 0-.1 0 0 0zm1 .5zm-1.7-.7c0-.1 0-.1 0 0zm4.1 1.3zm-1.4-.3c0-.1 0-.1 0 0 0-.1 0-.1 0 0zm-2.8-2.3zm-.7.2zm.2.4c0-.1 0-.1 0 0 0-.1 0-.1 0 0zm0-.1zm13.2 1.8v-.1.1zm-6.4.5zm6.4-1.3zm-12.3-1.7c0-.1 0 0 0 0s0-.1 0 0zm6.4-.1zm5.9 1.8zm-4.1 1.3l-.1.1zm.1.2zm4.1-.9zm-2.9.7zm-7.2-.6zm1-2.1zm0 .1c0-.1 0-.1 0 0zm.1-.1zm-.9-.2zm.2 0zm1.2 0zm1.7-.5c-.2 0-.4.2-.6.1 0 .2-.1.2-.2.2v-.2.1c0-.1-.1-.1 0-.2h-.2s0 .2-.1.1v-.1c-.1-.2-.2.4-.3.3 0 .1-.1 0-.1.1 0 .2 0-.1.1 0 0 .2-.1.1-.1.2 0-.1 0 0-.1 0 0-.1-.1 0-.1-.2 0 .1-.1.2-.1.2v-.2s0 .1-.1.1v-.1h-.1c0-.1 0-.1 0 0 0-.2 0 .1-.1 0v.2s-.1.1-.1 0v-.1c-.1.1 0 .1-.1.1v-.1c0 .1-.1 0-.1 0s0 .1-.1.1v.2c0-.2-.1.2-.1.1v-.1c0-.2 0-.3.1-.4 0 0-.1.1 0 0v.4c-.1.1 0 .2-.1.1 0-.1-.1 0-.1-.2v-.1c.1-.1 0 0 0-.1 0 .1-.1.1-.1.1v.1c-.1.4 0-.3-.1-.2-.1.1 0 0 0 .1 0 0 0-.1-.1-.1v-.3c0 .1-.1-.1-.1.1 0 .1.1-.1.1 0v.1s-.1.1-.1 0v.1c-.1 0-.1.2-.1.1s0-.1.1-.1c0-.1 0 0-.1-.1 0-.1 0 0 .1-.1h-.1c0 .2 0 0-.1 0s-.1.2-.2.4v-.1c0 .1 0 0 0 0v-.3c-.1 0 0 .1 0 .2h-.1v.2h-.1v-.1h-.1c0 .1-.1.1-.1.2v-.1s0-.1 0 0c0-.1 0 0-.1.1v-.2.1h-.1v-.3c0 .1 0 .2-.1.2v-.3c0-.1-.1-.1-.1-.1v.2c-.1 0-.1.4-.2.3-.1.1 0 .1-.1.2 0-.2 0-.4-.1-.4v.3h-.1v-.1c-.1.1-.1-.2-.1 0v-.2.1c0 .1-.1.1-.1.1-.1.1-.1 0-.1-.1v.2c0-.3-.1-.1-.1-.2 0 0 0-.1 0 0v-.2c0 .2-.1.2-.1.2.1-.3-.1 0 0-.3 0 .2-.1.1-.1.2v-.2.1c0-.1-.1-.1-.1-.2l-.1.2v-.1.1c0 .2 0 .1-.1.1v-.3c0 .1-.1.3-.1.4 0 .1 0 .1-.1.1v-.2l-.1.2v-.1s.1-.3 0-.3l.1-.1v-.1c-.1 0 0 .1-.1.1v-.3.2s-.1.2-.1.1c0 .3-.1.2-.1.3.1-.1 0-.2 0-.3v.1-.1.1c0-.1 0-.2.1-.3 0 0-.1 0-.1.2v.2l-.1.1v-.1l-.1.1v-.1s-.1 0-.1-.1c-.1.1 0 0 0 .1 0-.3-.1-.1-.2-.1 0 .2 0 0-.1.2v-.3c0-.1.1-.1.1-.3 0 0-.1.3-.2.2.1-.2-.1 0 0-.1 0-.1 0 0 0 0-.1-.1-.1.2-.1.3-.1 0 0-.1 0-.2h-.1c.1-.1 0 .1 0 .2 0-.2-.1 0-.1 0 0 .2.1 0 .1.3 0-.1.1-.2.1-.1v.1c0-.1 0 0 .1-.1 0 .1-.1.2 0 .3l.1-.2v.1c0 .1 0 .2-.1.2 0 .2.1-.1.2-.2v.1c0-.1 0-.1.1-.1 0 .1 0 .1-.1.2h.1c0 .1-.1.1-.1.2l.1-.2v.2h.1v.1s.2-.2.1.1c.1-.1.1-.1.2-.1-.1.1 0 .2 0 .3 0 .1.1-.1.1-.1 0 .1 0 .2-.1.3v-.2.2-.1.1c0-.1 0-.1.1-.1v.1h.1v-.1c.1-.1 0 .1 0 .2v-.1c0 .2.1-.1.2 0v.1c.1 0 .1 0 .2-.1v.3l.1-.1c0 .1.1 0 .1.1 0-.1 0 0 .1-.1v-.1c0 .3.1-.1.2.1v.1h.1v-.1s.1-.1.1 0c-.1.2 0 0 0 .1v-.1c.1 0 0 .2.1.1 0-.1 0-.2.1-.1v.1h.1v.1l.1-.1v.1-.1.1-.1s0-.1.1 0v.1c.1 0 .1.2.1 0v.1c.1-.1 0 .2.1 0v.1-.1.1-.2.1-.1c0 .2.1.1.1.3v-.2c.1-.3.2.2.4.1v.1l.1-.1v.2c.1-.1 0-.2.1-.2v.1c.1-.1.2-.1.2 0 0-.1.1 0 .1 0v.1s0 .1.1 0v.1s.1-.1.1.1v-.1c0 .2.1-.1.1 0v.1c0 .1 0 0 .1-.1v.1l.1-.1c0 .2.1 0 .1.1v-.1.2s.1-.1.1-.2c0 .1.1 0 .1.1.1 0 .1.4.2.1h.1v.1l.1-.1v.1h.2c.1-.1.1.1.1 0h.1v.1c0-.1.1.2.1.1s.1-.1.1-.2c.1 0 0 .1 0 .1s.1-.1.1 0v.1s0-.1.1-.1c.1-.1.1.2.1-.1 0 .1.1 0 .1.1l.2-.2c0 .2 0 0 .1.1v-.1c.1 0 .2.3.3.2v.1-.1c.1.1.3.1.4.1 0-.1.1-.2.1-.1.1-.1.2-.1.3 0v.1c0-.1.1 0 .1 0v-.1c0-.1.1 0 .1.1v-.2.1s.1-.1.1-.2v.1h.2v-.1c0-.1 0-.2.1-.1 0-.1.1-.1.1-.1s0 .2.1.1c0-.1.1 0 .1-.2v.2c0-.1.1 0 .1.1 0-.3.1.1.1-.1v-.1.2-.2c.2.3.4.1.6.3.1 0 .2-.2.3-.1l.1.1-.1-.1s0-.1.1-.1c.1.1.2.2.4.1.1-.3.1.2.1 0v.1c.1-.1.1-.1.2-.3 0 .3.1 0 0 .1v-.1c0 .1.1.1.1.2v-.1.1c.1 0 .2-.1.2.1.1-.2.3-.1.5-.1 0-.1.1-.1.1-.1v.1s.1-.2.1-.1c0 0 .1 0 .1-.1 0 0 .1.1.1.2 0-.2.1 0 .1 0s2.1.5 2.5-.7c0-.1.1-.2 0-.3 0 0 .1.2.1 0-.1-.1 0-.3 0-.4v-.1.2s0-.1-.1-.1c0 .1 0 .4-.1.2v-.3c0 .1.1-.1 0-.1-.1-.1 0 0 0 .1v-.3l-.1.1c0-.2-.1.1-.1-.1v-.2h-.1v-.1.1c0-.1-.1 0-.1-.2-.1-.1 0 .2-.1.1v-.1h-.1v-.1c-.2-.1-.3-.6-.4-.5v-.2c-.1.2-.2-.2-.3-.2v.1c-.1-.3-.3-.1-.5-.2v.1c0 .1-.1.1-.1.1v-.2.1c-.1-.2-.4-.2-.6-.3-.3.1-.6-.1-.9 0v.2c-.1-.4-.2.1-.3-.2-.2.1-.3-.2-.5.1v-.1c0-.1 0 0-.1 0s-.1.1-.2 0v.1s0-.1-.1 0v-.1.1c0-.2-.1 0-.1-.1 0 0-.1.1-.2.1 0-.1-.1-.1-.1-.2-.1 0-.2.1-.4 0 0-.2-.1 0-.1-.1 0 .1 0 0 0 0v-.1c-.1 0-.2.2-.3.2 0-.1-.1 0-.1-.2-.1.1 0 .2 0 .3 0 0 0 .1 0 0v-.3c-.1.1-.2-.1-.3 0v.1c-.1.2-.1-.1-.2 0v-.1c0 .1 0 .2-.1.1 0-.1 0-.1.1-.2 0 0-.1 0-.1.1 0 0 0-.1-.1-.1v.1c0-.1-.1-.1-.2-.1v-.1c0 1.5 0 1.2-.1 1.2zm-3.1.5s0-.1 0 0zm1.1.2c0-.1 0-.1 0 0 0-.1 0-.1 0 0zm.3-.3c0 .1 0 .1 0 0 0 .1 0 .1 0 0zm-2 .4c0-.1 0-.1 0 0 0-.1 0-.1 0 0zm-1.7-.4s0 .1 0 0c0 .1 0 0 0 0zm0 .3c0-.1 0-.1 0 0zm2.1.1s0-.1 0 0c0-.1 0-.1 0 0zm-2-.2zm-.2-.2zm1.1.4zm-.8-.4zm-.4 0s0-.1 0 0c0-.1 0-.1 0 0zm.9.2zm-27.1-4.6s0 .1 0 0c0 .1 0 .1 0 0zm1.1.3c0 .1 0 0 0 0zm-1.8-.3c0-.1 0-.1 0 0zm4 .7zm-1.3-.3zm-3.2-1.6zm-.6.4zm.3.3zm0-.1c0 .1 0 .1 0 0zm12.9 2.1s.1 0 0 0zm-6.1-.6zm6.3-.1zm-12.5-2.3c.1-.1.1 0 0 0 .1-.1 0-.1 0 0zm7-.6zm5.5 2.9zm-4.2.4zm.1.2c-.1 0 0 0 0 0zm4 0zm-2.8.1zm-6.8-1.1zm.8-2.2zm0 .1v-.1.1zm.2-.1c-.1 0 0 0 0 0zm-1-.1zm.2 0zm1.2-.1z"/><path class="st13" d="M124.4 104.5c-.2 0-.4.2-.6.1-.1.2-.1.2-.2.2v-.2l-.1.1v-.1.1c0-.1-.1-.1 0-.2h-.2s0 .2-.1.1v-.1c-.1-.2-.2.4-.3.3 0 .1-.1 0-.1.1 0 .2 0-.1.1 0 0 .2-.1.1-.1.2 0-.1 0 0-.1 0 0-.1-.1 0-.1-.2 0 .1-.1.2-.1.3v-.2s0 .2-.1.1v-.1h-.1c0-.1 0-.1 0 0 0-.2-.1.1-.1.1v.2s-.1.1-.1 0v-.1c-.1.1 0 .1-.1.1v-.1c0 .1-.1 0-.1 0s0 .1-.1.1v.2c0-.2-.1.2-.1.1v-.1c0-.2 0-.3.1-.4 0 0-.1.1-.1 0v.4c-.1.1 0 .2-.1.1 0-.1-.1 0-.1-.2v-.2c0 .1-.1.1-.1.1v.1c-.1.4 0-.3-.1-.2-.1.1 0 0 0 .1 0 0 0-.1-.1-.1v-.3c0 .1-.1-.1-.1.1.1.1.1-.2.1 0v.1s-.1.1-.1 0v.1c-.1.1-.1.2-.1.2 0-.1 0-.1.1-.1 0-.1 0 0-.1 0v-.1h-.1c0 .2-.1 0-.1 0-.1 0-.1.3-.2.4v-.1c0 .1 0 0 0 0s-.1-.2-.1-.3c-.1.1 0 .1 0 .2h-.1v.2h-.1v-.1s-.1 0-.1.1-.1.1 0 .2v-.1s0-.1 0 0v.1s-.1 0-.1-.1l-.1-.1v.1h-.1v-.3.2c0-.2-.1-.1 0-.3 0-.1-.1-.1-.1-.1v.2c-.1.1-.1.4-.2.3 0 .1 0 .1-.1.2 0-.2-.1-.4-.2-.4 0 .1.1.1 0 .3v-.1c0 .1-.1-.2-.1 0l-.1-.2v.1c0 .1-.1.1-.1.1 0 .1-.1 0-.1-.1v.2c0-.3-.1-.1-.1-.2 0 0-.1-.1 0 0v-.2c0 .2 0 .2-.1.3 0-.3 0 0-.1-.2 0 .2-.1.1-.1.3l-.1-.2v.1c0-.1-.1-.1-.1-.2v.2-.1.1c0 .2 0 .1-.1.1v-.3.5-.2.2l-.1-.1s0-.3-.1-.3c0 0 0-.1.1-.2v-.1c0 .1 0 .1-.1.1 0-.2 0-.2-.1-.3v.2s0 .2-.1.1c.1.2-.1.2 0 .3 0 0 0 .1 0 0s-.1-.2-.1-.3c0 0 .1.1 0 .2l-.1-.1v-.1c0 .1.1.1 0 .2h-.1v-.3s-.1 0 0 .2c0 .1.1.2 0 .2v.1-.1s-.1 0-.1-.1v.1c-.1-.3-.2-.1-.2 0 .1.2 0 0 0 .3 0-.1-.1-.2-.1-.3-.1-.1.1-.1 0-.3 0 0 0 .3-.1.2 0-.2 0 .1-.1-.1v-.1c-.1 0 0 .2 0 .3-.1 0-.1-.1-.1-.2s.1.1.1.2c-.1-.2-.1 0-.1.1.1.2.1 0 .2.2v-.2c0 .1 0 .2.1.3v-.2s0 .2.1.1v.2c.1.2.1-.1.1-.2v.2h.1s0-.1 0 0v.2-.2c0 .1.1.1 0 .2h.1v.1s.1-.3.1 0c0-.1.1-.1.1-.2 0 .2.1.2 0 .3 0 .1 0-.1.1-.1v.3-.2c0 .1 0 .2.1.2v-.1.1h.1v-.1c0-.1 0 .1.1.1v-.1c.1.2.1-.1.2 0v.1s.1 0 .1-.2c0 .2 0 .2.1.3v-.1c0 .1.1 0 .1.1v-.2c.1.2.1-.1.2.1v.1h.1v-.1s0-.1.1-.1c0 .2 0 0 .1.1v-.1s0 .2.1.1v-.2.1h.1v.1l.1-.1v.1-.1.1-.1s0-.1.1 0v.1c.1-.1.1.2.1 0v.1c.1-.2.1.2.1 0v.1-.1.1-.2.1-.1c0 .2.1.1.1.2v-.2c.1-.3.2.2.4 0v.1-.2.2c.1-.1 0-.2.1-.2v.1c.1-.1.1-.1.2-.1 0-.1.1 0 .1 0v.2s.1-.1.1 0v-.1c0 .2.1-.1.1 0v.1c0 .1 0 0 .1-.1v.1l.1-.1c0 .2.1 0 .1.1v-.1.2l.1-.2c0 .1.1 0 .1.1.1 0 .1.3.2.1v.1l.1-.1v.1h.2c.1-.1.1.1.1 0v.1c0-.1.1.2.1.1s.1-.1.1-.2c.1 0 0 .1 0 .1s0-.1.1 0v.1s0-.1.1-.1c.1-.1.1.2.1-.1 0 .1.1 0 .1.1l.2-.2v.1-.1c.1 0 .2.3.3.2v.1-.1c.1.1.2.1.3.1 0-.1.1-.2.1-.1.1-.1.2-.1.3 0v.1c0-.1.1 0 .1 0v-.1c0-.1.1 0 .1.1l.1-.1v-.1.1s.1-.1.1-.2v.1l.1.1v-.1c0-.1.1-.2.1-.1 0-.1.1-.1.1-.1s0 .2.1.2c0-.1.1 0 .1-.2v.2c0-.1.1 0 .1.1.1-.3.1.1.1-.1v.1c0-.1 0-.2.1-.2v.2-.2c.1.3.4.1.5.4.1 0 .2-.1.3-.1l.1.1v-.1s0-.1.1-.1c.1.1.2.2.3.2.1-.3 0 .2.1.1v.1l.3-.3c-.1.3.1 0 0 .1v-.1.2l.1-.1v.1s.2-.1.1.2c.1-.1.3-.1.5 0 0-.1.1-.1.1-.1v.1s.1-.2.1-.1c0 0 .1.1.1-.1 0 0 .1.1 0 .2 0-.2.1 0 .1 0s.5.2 1 .3c.5.1 1.2.1 1.5-.5 0-.1.1-.2.1-.3v.1c0-.1.1-.3.1-.4 0-.1-.1.1 0-.1l-.1.2v-.2c0 .1-.1.3-.1.2v-.3c0 .1.1-.1.1-.1v-.2l-.1.1c0-.2-.1.1-.1-.1.1 0 0-.1 0-.2h-.1v-.1c0-.1 0 .1-.1 0 0-.1-.1 0 0-.2 0-.1-.1.2-.1.1s.1 0 0-.1h-.1s0-.2.1-.1c-.1-.2-.1-.7-.3-.6 0-.1 0-.1.1-.1-.1.1-.1-.3-.2-.3v.1c-.1-.3-.3-.2-.4-.3v.1c0 .1-.1.1-.1.1s.1-.2 0-.2v.1c-.1-.3-.4-.3-.6-.4-.3 0-.6-.2-.9-.2v.2c0-.4-.2 0-.2-.2-.2.1-.3-.3-.5 0v-.1c0-.1 0 0-.1 0-.1-.1-.1 0-.2 0v.1s0-.1-.1 0v-.1l-.1.1c0-.2-.1 0-.1-.1-.1 0-.2.1-.2.1 0-.1-.1-.1-.1-.2h-.4c0-.2-.1 0-.1-.1 0 .1 0 0 0 0 0 .1 0 .2-.1.1v-.2c-.1 0-.2.2-.3.1 0-.1-.1 0 0-.2-.1.1 0 .2-.1.3 0 0 0 .1 0 0v-.2h-.1v-.1c-.1.1-.2-.2-.3 0v.1c-.1.2-.1-.1-.2 0v-.1c0 .1-.1.2-.1.1s0-.1.1-.2c0 0-.1 0-.1.1 0 0 0-.1-.1-.1v.1c0-.1-.1-.1-.2-.1v-.1c.6 1.4.7 1.1.6 1.1zm-3.3.6s0-.1 0 0zm1.1 0zm.3-.2c0 .1 0 .1 0 0 0 .1 0 .1 0 0zm-2.1.5zm-1.8.1zm.1.2c0-.1 0-.1 0 0z"/><path class="st13" d="M120.8 105.4c.1 0 .1-.1 0 0 .1-.1 0-.1 0 0zm-2.1.2zm-.2-.1c0-.1 0-.1 0 0zm1.2.1c.1 0 0 0 0 0zm-.9-.2v-.1zm-.4 0zm.9.1v.1s.1-.1 0-.1zm-16.7 13.1c.1 0 .1 0 0 0 .1 0 .1 0 0 0zm.6-.2zm-.9.4c0-.1 0 0 0 0zm1.9-1.1c0 .1 0 .1 0 0zm-.6.4zm-2.4.1zm.1.5zm.4.1c0-.1 0-.1 0 0-.1-.1-.1-.1 0 0zm-.1-.1zm4.8-4.2s-.1 0 0 0zm-1.6 2.5zm1-3zm-4.7 4c-.1-.1 0-.1 0 0 0-.1-.1-.1 0 0zm1.4-3.1zm3.3-.9zm-.3 2.3zm.1 0zm.7-1.9zm-.4 1.4zm-2.4 2.3zm-1.5-1.6zm.1.1s-.1-.1 0 0c-.1-.1-.1-.1 0 0zm-.1-.1zm-.4.3h.1zm.1-.1zm.3-.5z"/><path class="st13" d="M102 115.1v.3c.1.1.1.1.1.2l-.2-.1v.1c-.1 0 0 0-.1-.1l.1.1c-.1 0-.1 0-.2-.1l-.1.1.1.1c-.1 0 0 0-.1-.1-.2 0 .3.3.2.3v.1c.2.1-.1-.1 0 0 .2.1.1.1.2.2-.1 0 0 0 0 .1-.1-.1-.1 0-.2-.1l.2.2c-.1-.1-.1-.1-.2-.1l.1.1h-.1s.1.1 0 .1l-.1-.1c-.1 0 0 0 0 0-.1-.1 0 .1 0 .1s.1 0 .2.1c0 0 .1.1 0 0l-.1-.1.1.1c.1.1 0 0 0 .1l.1.1c.1 0 .1 0 .2.1-.2-.1.2.1 0 .1-.1 0-.1-.1 0-.1-.1-.1-.3-.2-.3-.3 0 0 0 .1 0 0l.1.1c.1.1.2.1.2.2 0 0-.2-.1-.1 0 0 .1.1.1.1.1-.1 0 0 .1-.2-.1l-.1-.1-.1-.1c.1.1.1.1 0 .1l.1.1c.3.3-.2-.2-.2-.1l.1.1s-.1-.1-.1 0c0 0-.1-.1-.2-.1 0 0-.1 0 0 .1.1 0-.1-.1.1 0l.1.1v.1s.1 0 .1.1.1.1.1.1l-.1-.1h-.1l-.1-.1c.2.1 0 0 0 .1l.3.3s-.1 0-.1-.1c.1 0 0 0 0 0l-.2-.1c0 .1.1 0 .1.1.1.1.1.1.2.1l-.1-.1v.1c.1 0 0 .1.2.1h-.1c-.1-.1 0 0 0 .1h-.2l.1.1c-.1 0-.3-.2-.3-.2.1.1.2.1.2.2-.1-.1-.1 0-.3-.2-.1-.1-.1 0-.1 0 .1.1.1 0 .2.1 0 .1.3.3.2.3 0 .1 0 0 .1.1-.1-.1-.4-.2-.4-.2.1 0 .1.1.2.1 0 0-.2-.1 0 0l-.2-.1h.1c.1 0 .1.1.1.1.1.1 0 0-.1 0 .1 0 .2.1.2.1-.2-.1-.1 0-.2-.1 0 0-.1 0 0 0l-.1-.1c.2.1.2.1.2.2-.2-.2 0 0-.2-.1.2.1 0 .1.2.2l-.2-.1h.1-.2l.1.1h-.1l.1.1c.2.1 0 0 .1.1 0 0-.1 0-.1-.1l-.1-.1s.3.2.4.2c.1 0 .1.1.1.1l-.2-.1.2.1h-.1l-.3-.2-.1-.1-.1-.1c0 .1.1.1.1.1-.1-.1-.2-.1-.2-.1h.2s.2.1.1.1c.2.1.1.1.3.2-.1-.1-.2-.1-.3-.1 0 0 .1 0 .2.1 0 0-.1 0-.1-.1h-.1c.1 0 .1.1.1.1h-.1c-.1-.1-.2-.1-.2-.2 0 0 0 .1.1.1s.2.1.2.1l.1.1h-.1.1s-.1 0-.1-.1l.1.1-.1-.1h-.1c0 .1 0 0 .1.1-.2-.1-.1 0-.1.1l.2.1c-.1 0-.2-.1-.2-.1l-.2-.2s.2.2.1.2l-.1-.1c-.1 0 0 0 0 0-.1 0 .2.1.3.2 0 0-.1 0-.2-.1s.1 0 .2.1c-.2-.1 0 0 0 .1l.2.1c-.1 0-.2-.1-.1-.1.1.1.1 0 .1.1-.1 0 0 0-.1-.1.1 0 .2.1.2.1l-.2-.1s.1.1.1 0c.1.1.2.1.2.1.2.1-.1-.1-.1-.2h.1c-.1 0 0 0-.1-.1.1 0 .1.1.1.1.1 0 .1.1.2.1l-.1-.1c.1 0 .1.1.2.1v-.1l.1.1h-.1s-.2-.2.1 0c-.1-.1 0-.1-.1-.2.1.1.2.1.2.1.1 0-.1-.1-.1-.1.1 0 .2.1.2.2l-.1-.1-.1-.1c.1 0 .1.1.2.1l-.1-.1h.1c-.1 0-.1-.1-.1-.1l.1.1h-.1l.1.1-.1-.1c.2.1-.1-.1.1-.1l.1.1s0-.1-.1-.1c.1.1.2.1.3.1l-.1-.1c.1 0 0-.1.1 0-.1-.1 0 0 0-.1l-.1-.1c.2.1-.1-.1.1 0 0 0 .1 0 .1.1h-.1s-.1-.1 0-.1l.1.1-.1-.1s.2.1.1 0c-.1 0-.1-.1-.1-.1h.1v-.1l.1.1c-.1-.1 0 0 0-.1h.1l-.1-.1.1.1h-.1l.1.1c0-.1.2.1.1 0s.2.1 0 0c0 0 .1 0 .1.1l.1.1-.1-.1.1.1c.2.1.1 0 .2.1l-.1-.1c-.2-.2.2 0 .1-.1l.1.1-.1-.1c.1 0 .1.1.1.1 0-.1-.1-.1-.2-.2.1 0 .1.1.1.1 0-.1-.1-.1 0-.1v-.1s.1 0 .1.1l.1.1s0-.1.1 0l-.1-.1c.2.1 0-.1.1 0l-.1-.1h.1l-.1-.1c.2.1 0-.1.1 0 0 0-.1 0-.1-.1h.1l.1.1-.2-.2h.1c0-.1.3.2.2 0l.1.1-.1-.1h.1v-.1c-.1-.1.1 0 0-.1s.2.1.1 0c0 0-.1-.1-.2-.1 0 0 .1 0 .1.1 0 0-.1-.1 0-.1h.1v-.1c-.1-.1.2.1 0-.1l.1.1c0-.1-.1-.1-.1-.2.2.1 0 0 .1 0l-.1-.1s.3.1.3 0l.1.1-.1-.1c.1 0 .2 0 .2-.1l-.1-.1v-.1s.1 0 .1.1c-.1-.1 0 0 0 0h-.1c-.1-.1 0 0 .1 0l-.1-.1.1.1s0-.1-.1-.2c0 0 .1 0 .1.1h.1l-.1-.1c.1.1.1.1.2.1l-.1-.1c-.1-.1-.1-.1 0-.1l.1.1-.1-.1.1.1c-.1-.1 0-.1.1 0-.2-.2.1 0-.1-.1l.1.1s-.2-.1-.2-.2c.1 0 .1.1.2.1l-.2-.2c.2.1.2-.1.4 0 0-.1-.1-.2 0-.2h.1-.1v-.1c.1 0 .2.1.2-.1-.2-.2.2.1.1 0l.1.1c0-.1-.1-.1-.2-.3l.1.1-.1-.1c.1 0 .1 0 .1.1l-.1-.1.1.1s0-.1.2 0c-.1-.2 0-.2.1-.2l-.1-.1.1.1s-.1-.2-.1-.1c0 0 .1 0 0-.1 0 0 .1 0 .2.1-.2-.1 0 0 0 0s1-.3.3-1.3l-.2-.2s.1.1 0 0c-.1 0-.2-.2-.3-.3-.1-.1.1.1 0 0l.1.1s-.1 0-.1-.1c.1.1.2.3.1.2l-.1-.1-.1-.1c.1 0 0-.1 0-.1-.1 0 0 0 0 .1l-.1-.1-.1-.1.1.1c-.2-.2.1.1-.1 0 0-.1-.1-.1-.1-.1s0-.1 0 0c-.1 0 0 .1 0 .1-.1 0 0 0-.1-.1-.1 0 .1.1.1.1l-.1-.1-.1-.1c-.2 0-.6-.3-.5-.2l-.1-.1c.1.1-.2-.1-.3-.1l.1.1c-.3-.1-.2 0-.3 0h.1l.1.1-.1-.1s.1 0 .1.1c-.2-.1-.3 0-.4 0 0 .2-.3.2-.3.3 0 0 .2.1.1.1-.3-.2 0 .1-.2 0 0 .1-.3 0-.1.2l-.1-.1c-.1 0 0 .1 0 .1l.1.1s-.1-.1 0 0l.1.1c-.2-.1 0 0-.1 0 0 0 .1.1 0 .1-.1-.1-.1 0-.2-.1 0 .1 0 .1-.1.2l.1.1c-.1-.1 0 .1-.1 0 .1.1 0 0 0 0 .1 0 .2.1.1.1l.1.1-.2-.2c0 .1.1.2 0 .2-.1-.1 0 .1-.2-.1 0 .1.1.1.3.2 0 0 0 .1 0 0l-.1-.1c.1.1-.2 0-.1.1l.1.1c.1.1-.1-.1-.1 0l-.1-.1c.1.1.1.1 0 .1l-.1-.1s0 .1.1.1h-.1s.1 0 .1.1h-.1c-.6.2-.7.2-.8.2.3.1 0 0 0 0zm-.4 1.7c0-.1 0-.1 0 0zm.4-.5zm-.1-.2s.1 0 0 0c.1 0 0 0 0 0zm-.2 1.1zm-.5.7z"/><path class="st13" d="M101.4 118s0-.1 0 0c-.1-.1-.1-.1 0 0zm.4-1zm-.5.9zm-.2 0zm.6-.3c-.1-.1 0-.1 0 0zm-.5.1zm-.1.2s-.1 0 0 0zm.3-.3c.1 0 .1.1 0 0 .1.1.1 0 0 0z"/><path class="st14" d="M205 242.2s-2.1-7.4-.8-13.4c1.3-6.1 6.8-11.5 6.8-11.5h6.6s-6.3 1.3-7.2 12.6c-1 11.9 2.1 13.6 2.1 13.6l-7.5-1.3z"/><path d="M217.1 242.5c-2.5 0-4.9-3.6-3.9-12.1 1-9.6 5.5-11.9 7.6-11.8 2.5.1 2.8 8.8 2.3 13.2-.7 5.2-3.5 10.7-6 10.7z" fill="#758e8d"/><path class="st14" d="M180.9 238.2s-2.4-5.3-1.8-10.9c.3-2.8 1.9-4.2 1.9-4.2l6.1-2.2s-2.9 2.8-3.3 6.4c-.8 6.8 2.5 11.6 2.5 11.6l-5.4-.7z"/><path d="M189 238.5s-2.7-5-1.9-11.6c.5-4 3.8-7.3 3.8-7.3l4.7-1.6 10.5.4s-4.1 3.8-5.6 8.8c-1.9 6.5.7 12.4.7 12.4l-12.2-1.1zm-10.3-1.9s-1.3-4.7-1-8.1c.2-2.5.9-4.5.9-4.5l-27.5 9.6 27.6 3z" fill="#514639"/><circle class="st17" cx="219.3" cy="222.9" r="1"/><circle class="st17" cx="217.3" cy="227.7" r="2.2"/><path class="st13" d="M99.3 132.9c.1 0 .1 0 0 0 .1 0 .1 0 0 0zm.5-.4zm-.7.7zm1.3-1.6zm-.4.5zm-2.3 1.1c.1 0 0 0 0 0zm.4.3zm.4-.1s-.1 0 0 0c-.1 0-.1 0 0 0zm-.1 0zm2.4-5.2s-.1 0-.1-.1l.1.1zm-.2 2.6zm-.6-2.9zm-2.5 5.1c-.1 0 0 0 0 0-.1 0-.2 0 0 0zm-.3-3.1zm2.8-2zm.9 2.1zm.1 0c.1 0 0 0 0 0zm-.3-1.8c-.1 0 0 0 0 0zm.3 1.2s0 .1 0 0c0 .1 0 .1 0 0zm-1 2.8c-.1 0-.1 0 0 0zm-2.4-.8zm.1.1h-.1c0-.1 0-.1.1 0zm-.1-.1zm-.2.4zm0-.1zm0-.6z"/><path class="st13" d="M96.9 130.2c0 .1.2.2.1.3l.2.1h-.3.1-.1.2-.2v.1s.2 0 .1.1h-.1c-.2 0 .5.2.3.2h.1c.3 0-.1 0 0 0 .2 0 .1 0 .3.1h.1-.2c.1 0 .3.1.3.1h-.2s.2 0 .1.1h-.1c-.1 0-.1 0 0 0h.3s.2.1 0 0h-.1c.1 0 .2 0 .1.1h-.1c.2 0 0 0 0 .1h.3c-.2 0 .2.1.1.1h-.1c-.2 0-.4-.1-.5-.1 0 0 .1 0 0 0h.4c.1 0 .2 0 .1.1h-.5.2c.4.1-.3 0-.2 0h-.3c.1 0-.1 0 .1.1.1 0-.2 0 0 0h.2s.1.1 0 .1h.1c.1 0 .2.1.2.1h-.3c.2 0 0 0 0 0s.3.1.4.1h-.2c.1 0 0 0 0 0h-.3.4-.2.1c.1 0 .1 0 .3.1H98s-.1 0 0 0h-.1.2-.4c.1 0 .3 0 .3.1h-.4.2c0 .1.4.1.4.1.1 0 .1 0 .2.1H98h.2c.1 0-.2 0 0 0h-.3.4-.3s-.1 0 0 0h-.2c.3 0 .2.1.3.1h-.3c.2 0 .1 0 .3.1h-.3.1-.2.2-.1.1c.1 0 .4.1.5.1h.1-.2.1s-.4-.1-.4 0h-.3.1-.3.3c.3 0 .2.1.4.1.1 0 .1 0 0 0h-.4.1-.3s0 .1.2.1h.3-.1.1-.1.2c-.3 0-.1.1-.1.1h.3-.6s.3.1.2.1h-.3c-.1 0 .2 0 .4.1-.2 0 0 0 .1.1h.3-.2.1-.1.3-.3.4c.2 0-.1-.1-.2-.1h.1-.1.2s-.1 0 0 0h.2-.2.3s-.3-.1 0 0c-.1 0-.1 0-.2-.1h.5-.2.2-.2.1-.1.3-.1c.2 0-.1-.1 0-.1h.1s0-.1-.2-.1h.3-.1.1-.1c.3 0-.2-.1.1-.1h.2-.2.2-.2.3c-.1 0 0 0-.1-.1h.1-.1.2-.1s-.1 0 0 0h.1c-.1 0 .2 0 0-.1h.1c-.2 0 .2 0 0 0h.1-.1.1-.2.1-.1.3-.2c-.4-.1.2-.1.1-.1h.1-.2.2c-.1 0-.2 0-.2-.1h.2c-.1 0-.1-.1-.1-.1h-.1c-.1 0 0 0 0-.1h.1s.1 0 0 0h.1s-.1-.1.1 0h-.2c.2 0-.1 0 0 0h.1l-.1-.1h.2s-.2 0-.3-.1h.1s.4 0 .2-.1h.2l-.2-.1h.1v-.1c-.1 0 .1 0 0-.1h.2c-.1 0-.1 0-.2-.1h.2s-.1 0 0 0c-.1 0 .2 0-.1-.1h.2c-.1 0-.1-.1-.2-.1h.1-.1s.3 0 .3-.1h.1-.1c.1 0 .1-.1.1-.1-.1 0-.2-.1-.2-.1-.1 0-.1-.1 0-.1h.1c-.1 0 0 0 0 0h-.1.1-.1.2s-.1 0-.2-.1h.2-.1c-.1 0-.2-.1-.1-.1s.2 0 .3.1h-.2c-.1 0-.1-.1-.1-.1h.2c-.1 0 0 0-.2-.1h.3c-.3-.1.1 0-.1-.1h.2c-.1 0-.2-.1-.3-.1.1 0 .2 0 .3.1l-.3-.1c.3 0 .1-.1.4-.1 0 0-.2-.1-.1-.1h.1-.2c.1 0 .3 0 .1-.1-.3-.1.3 0 .1 0h.1c-.1-.1-.1-.1-.3-.2.3.1 0 0 .2 0h-.1.2l-.1-.1h.1s-.1-.1.2 0c-.2-.1-.1-.2 0-.2-.1 0-.1-.1-.1-.1h.2s-.2-.1-.1-.1c0 0 .1 0-.1-.1h.2c-.2-.1 0 0 0 0s.2-.1.3-.4c0-.2-.1-.5-.7-.8-.1-.1-.2-.1-.3-.1 0 0 .2.1.1 0-.1 0-.3-.1-.4-.2-.1 0 .1.1-.1 0l.2.1h-.2c.1 0 .4.2.2.1 0 0-.1 0-.2-.1h-.1c.1 0-.1-.1-.1-.1h.1s-.1 0-.2-.1h-.1l.1.1c-.3-.1.1.1-.1 0-.1 0-.1 0-.2-.1h-.2c-.1 0 .2.1.1.1s0 0-.1-.1c0 0-.2-.1-.1-.1-.2 0-.7-.1-.6 0-.1 0-.1 0-.2-.1.1.1-.3 0-.3 0h.1c-.3 0-.2.1-.3.1h.1c.1 0 .1.1.1.1-.1 0-.2-.1-.2 0h.1c-.3 0-.3.1-.4.2 0 .2-.2.2-.2.4 0 0 .3.1.2.1-.4-.1.1.1-.3.1.1.1-.3.1 0 .2h-.1c-.1 0 0 0 0 0-.1 0 .1.1 0 .1h.1s-.1 0 0 0h-.1l.1.1c-.2-.1 0 0-.1 0l.1.1h-.2v.2h.1-.1c.1 0 0 0 0 0 .1 0 .2.1.1.1h.1c-.1 0-.2 0-.3-.1 0 .1.2.1.2.2h-.2c.1.1.2 0 .4.1 0 0 .1 0 0 0h-.3c.1.1-.2 0 0 .1h.1c.2.1-.2 0 0 .1h-.1c.1 0 .2.1.1.1s-.1 0-.2-.1c0 0 0 .1.2.1h-.1.2c-.1 0-.1 0-.1.1h-.1c-.4.3-.7.3-.6.3zm.4 1.6zm.2-.5zm-.2-.2zm.4 1s-.1 0 0 0c-.1 0 0 0 0 0zm-.2.8zm.2 0zm0-1c-.1 0-.1 0 0 0-.1 0-.1 0 0 0zm0 1zm-.2 0c-.1 0-.1 0 0 0zm.3-.5zm-.4.4zm0 .2zm.2-.4zm10.7 16.9zm-.6-.7c0-.1 0 0 0 0zm.9 1.1zm-2.1-2.4zm.7.8c-.1 0-.1 0 0 0-.1 0-.1 0 0 0zm1.2 3c0-.1 0 0 0 0zm.6-.2zm-.1-.4zm0 0zm-6.9-7.2h-.1.1zm3.4 3.1zm-4.1-2.7zm6.7 7.5c0 .1 0 0 0 0-.1 0-.1.1 0 0zm-5.2-2.4zm-1.5-5.1zm3 1.6zm0-.2c.1 0 0 0 0 0zm-2.4-1.8c-.1.1-.1.1 0 0zm1.7 1.3c.1 0 0 0 0 0zm3.6 3.6zm-1.9 1.8zm.1-.1c0 .1 0 .1 0 0zm-.1 0zm.6.6zm-.2-.1c.1 0 .1 0 0 0 .1 0 0 0 0 0zm-.9-.5z"/><path class="st13" d="M103.2 149.7c.2.1.4 0 .5.2.1-.1.2-.1.3-.1l-.2.2h.1c0 .1-.1 0-.1.1l.1-.1c-.1.1.1.1-.1.2l.1.1s.1-.2.1-.1 0 0-.1.1c0 .2.4-.3.4-.2h.1c.1-.2-.1.1 0 0 .1-.2.1-.1.2-.2 0 .1.1 0 .1 0 0 .1.1.1 0 .2.1 0 .2-.2.2-.2-.1.2-.1.1-.1.2l.1-.1v.1s.1-.1.1 0l-.1.1h.1c0 .1-.1 0-.1 0-.1.2.1 0 .1 0s0-.1.1-.2c0 0 .1-.1.1 0l-.1.1.1-.1v.1c.1-.1.1 0 .1.1l.1-.1c0-.1 0-.1.1-.2-.1.2.2-.2.2 0 0 .1-.1.1-.1.1-.1.2-.2.3-.3.4 0 0 .1 0 0 0l.1-.2c.1-.1.1-.2.2-.2s-.1.2 0 .1c.1 0 .1-.2.1-.1s.1 0 0 .2l-.1.1c-.1.1.1 0-.1.2.1-.1.1-.1.1 0l.1-.1c.3-.3-.2.2-.1.2l.1-.1v.1c0 .1 0 .1-.1.3.1 0 0 .1.1 0 0-.1-.1.1-.1-.1l.1-.1h.1v-.1c.1 0 .2-.2.2-.1l-.1.1v.1l-.1.1h.1c.1-.2 0 0 .1 0s.2-.2.3-.3c0 .1 0 .1-.1.2 0-.1 0 0 0 0s0 .2-.1.3c.1 0 0-.1.1-.2 0-.1 0-.1.1-.2h.1s-.1.2-.1.1c0 0 0 .1.1 0 0-.1.1-.1.1-.2v.1s0 .1 0 0c-.1.2 0 0 .1 0v.2l.1-.1c0 .1-.1.3-.2.3.1-.1.1-.2.2-.2-.1.2 0 .1-.1.3 0 .1 0 .1.1.1.1-.1 0-.1.1-.2.1 0 .3-.4.3-.3.1-.1.1 0 .1-.1-.1.2-.2.5-.1.4 0-.1 0-.2.1-.3v.1c.1 0 0 .2.1.1l-.1.3v-.1c0-.1.1-.1.1-.1.1-.1.1 0 0 .1 0-.1.1-.2.1-.2-.1.3 0 .1 0 .3 0 0 0 .1 0 0l-.1.2c.1-.2.1-.2.2-.2l-.1.3c.1-.2.1-.1.2-.2 0 0-.1.2-.1.3v-.1.2l.1-.2v.1l.1-.1c.1-.2 0 0 .1-.1v.1s0 .1-.1.2c0-.1.2-.3.2-.5 0-.1.1-.1.1-.1l-.1.2.1-.2v.1s-.2.3-.1.4l-.1.1v.1c.1 0 .1-.1.1-.1-.1.2-.1.2-.1.3v-.2s.1-.2.1-.1c.1-.3.1-.2.2-.3 0 0 .1 0 0 0-.1.1-.1.2-.1.3 0 0 0-.1.1-.2v.3c0-.1 0-.2.1-.2v.1c-.1.1-.1.3-.1.3s.1 0 .1-.2c0-.1 0-.2.1-.2l.1-.1v.1l.1-.1v.1s.1 0 .1.1l.1-.1c-.1.3.1.2.1.1l.1-.3c0 .1 0 .2-.1.3 0 .1-.1.1-.1.3 0 0 .2-.3.2-.2-.1.2.1 0 0 .1 0 .1 0 0-.1 0 .1.1.1-.2.2-.3.1 0 0 .2 0 .2h.1c-.1.1 0-.1 0-.2-.1.2.1 0 .1 0v-.3c0 .1-.1.3-.1.2.1-.1 0-.1 0-.1 0 .1 0 0-.1.1 0-.1.1-.2.1-.3l-.1.3s.1-.2 0-.1c.1-.1.1-.2.1-.2 0-.2-.1.1-.2.2v-.1c0 .1 0 .1-.1.1 0-.1.1-.1.1-.2s.1-.2.1-.2l-.1.2c0-.1 0-.2.1-.2h-.1l.1-.2v.1s-.2.3-.1-.1c-.1.1-.1.1-.2.1.1-.1 0-.2.1-.3 0-.1-.1.1-.1.1 0-.1.1-.2.1-.3l-.1.1-.1.1c0-.1.1-.2 0-.2l-.1.1v-.1c0 .1 0 .1-.1.1.1-.1 0 0 0-.1h-.1v.1c-.1.1.1-.2 0-.2v.1c0-.2-.1.1-.1-.1 0 0 .1-.2.1-.1 0 0-.1 0-.2.1.1-.2.1-.2.1-.3l-.1.1c0-.1-.1 0 0-.1 0 .1 0 0-.1 0v-.1.1c.1-.3-.1.1-.1-.1 0-.1 0-.1.1-.1l-.1-.1v.1s-.1.1-.1 0c.1-.2 0 0 0-.2l-.1.1s.1-.2 0-.1c0 .1-.1.2-.1.1v-.1h-.1s0-.1.1-.1c-.1.1 0 0-.1 0v-.1l-.1.1v-.2.1h-.1l.1-.1c-.1 0 0-.2-.1-.1v-.1c-.1.1.1-.2-.1 0v-.1.1l.1-.1-.1.2.1-.1v.1c.1-.3 0-.1.1-.3l-.1.2c-.2.3-.1-.3-.2-.2l.1-.1-.1.1c0-.1.1-.1.1-.2-.1.1-.1.2-.2.2 0-.1.1-.1.1-.1-.1 0-.2.1-.2 0h-.1c0-.1 0-.1.1-.1 0 0 0-.1 0 0l.1-.1s-.1 0 0-.1c0 .1-.1.1-.1.1.1-.2-.1.1-.1-.1h.1c0-.1-.1 0-.1.1v-.1l-.1.1c.1-.2-.1 0 0-.1 0 0 0 .1-.1.1 0-.1-.1 0 0-.1l.1-.1-.2.2v-.2c-.1 0 .1-.4 0-.2l.1-.1-.1.1v-.1s-.1 0-.1-.1c-.1.1 0-.1-.1 0v-.1c-.1.1.1-.2 0-.1l-.2.2s0-.1.1-.1c0 0-.1.1-.1 0v-.1h-.1c-.1.1.1-.2-.1 0 0-.1 0 0 .1-.2-.1 0-.1.1-.2.1.1-.2 0 0 0-.1l-.1.1c-.1 0 .1-.3 0-.3l.1-.1-.1.1c0-.1-.1-.2-.1-.3-.1 0-.2.1-.2.1-.1 0-.2 0-.2-.1l.1-.1c-.1.1 0 0 0 0v.1c-.1.1 0 0 0-.1l-.1.1.1-.1s-.1 0-.2.1c0 0 0-.1.1-.1v-.1.1c-.1.1-.2.1-.1.1l.2-.2c-.1 0-.1.1-.1.1-.1.1-.1.1-.1 0-.1 0 .1-.2.1-.2-.1.1 0 0-.2.1-.1 0 .1-.1.1-.1-.1.1-.1 0 0-.1-.2.2 0-.1-.2 0l.1-.1c0 .1-.2.2-.2.2 0-.1.1-.2.2-.2l-.2.2c.1-.3-.1-.3-.1-.5h-.2v-.1l-.1.1h-.1c0-.1.1-.3-.1-.3-.3.2.2-.2 0-.1 0 0 .1 0 .1-.1-.1 0-.2 0-.4.1l.1-.1-.1.1c0-.1 0-.1.1-.2l-.1.1.1-.1s-.1 0 0-.2c-.2.1-.2-.1-.3-.2-.1.1-.1 0-.1 0l.1-.1c-.1 0-.2.1-.2 0 0 0 0-.1-.1 0 0 0 0-.1.1-.2-.2.2 0-.1 0-.1s-.1-.4-.3-.7c-.2-.3-.6-.6-1.3-.3-.1.1-.2.1-.3.2-.1 0 .1-.1 0-.1-.1.1-.3.2-.4.3-.1 0 .1 0 0 .1l.2-.1-.1.1c.1 0 .4-.2.3-.1l-.1.1-.1.1c.1-.1-.1 0-.1 0 0 .1 0 0 .1 0l-.1.1c-.1.1 0 0-.1 0h.1c-.2.2.1 0-.1.1-.1 0-.1.1-.2.1l.1.1h-.1c-.1.1.1 0 .1 0-.1 0 0 0-.1.1s.2-.1.1 0l-.1.1h.1s-.2.1-.1.1c0 .2-.5.6-.3.6-.1.1-.1 0-.2.1.2 0-.2.3-.1.3l.1-.1c-.2.3 0 .3 0 .5l.1-.1h.2s-.2.1-.1.1c0 0 0-.1.1-.1-.2.3.1.4.1.7.2.1.3.5.5.7 0 0 .2-.2.2-.1-.3.4.1.1 0 .3.2 0 0 .4.4.2l-.1.1c0 .1 0 0 .1 0 0 .1.1 0 .1.1l.1-.1s-.1.1 0 .1h-.1l.1-.1c-.2.2 0 .1 0 .2.1 0 .2 0 .2.1-.1.1 0 .2 0 .2.1 0 .2.1.3.2l.1-.1-.1.1c-.1.2.1 0 0 .1.1-.1 0 0 0 0 0-.1.2-.2.1-.1h.1l-.2.2c.1 0 .3-.1.3 0-.1.1.1 0-.1.2.1 0 .1-.2.3-.3 0 0 .1 0 0 0l-.1.1h-.1c.2-.1 0 .2.2.2l.1-.1c.2-.1-.1.2.1.1l-.1.1c.1 0 .2-.1.1 0s-.1.1-.2.1c0 0 .1 0 .2-.1.1 0 0 .1 0 .1s0-.1.1-.1c0 .1 0 .1.1.2l-.1.1c-.2-.4-.4-.2-.3-.2zm2.7 1zm-.8-.6c0 .1 0 0 0 0zm-.3.1s0-.1 0 0c0-.1 0 0 0 0zm1.8.4s-.1 0 0 0c-.1 0 0 0 0 0zm1.3.7zm0-.2c-.1 0 0 0 0 0zm-1.7-.6zm1.6.6z"/><path class="st13" d="M107.9 151.4c0-.1 0-.1 0 0-.1 0 0 0 0 0zm-.8-.7zm.5.6zm.3.1c0 .1 0 .1 0 0zm-.6-.4s0-.1.1-.1c0 0-.1 0-.1.1zm22.1 2.3c0-.1 0-.1 0 0 0-.1 0-.1 0 0zm-.8-.5c0-.1 0-.1 0 0zm1.3.7zm-3.1-1.4zm1 .4c0 .1 0 .1 0 0 0 .1 0 .1 0 0zm2.3 2.4c-.1 0-.1 0 0 0zm.5-.3zm-.2-.4zm0 .1c0-.1 0-.1 0 0zm-10.2-2.3s0 .1-.1.1l.1-.1zm5-.1zm-5.2.9zm9.8 2.4c-.1 0-.1-.1 0 0-.1 0-.1.1 0 0zm-5.3.2zm-4.5-2.6c.1 0 .1 0 0 0 .1 0 0 0 0 0zm3.5-1.1zm-.1-.2zm-3.3.6zm2.3-.5zm5.5 1zm-.9 2.4zm.1-.1v.1c-.1 0-.1 0 0-.1zm-.2 0c0 .1 0 0 0 0zm.8.3zm-.2 0zm-1 0z"/><path class="st13" d="M125.1 155.7c.1 0 .3-.2.5-.1 0-.2.1-.2.1-.2v.3-.1.1-.2c0 .1.1.1 0 .2h.1s0-.2.1-.1v.1c.1.2.2-.5.3-.4 0-.1.1-.1.1-.1 0-.3 0 .1 0 0 0-.2 0-.1.1-.3 0 .1 0 0 .1-.1 0 .1.1 0 .1.2 0-.1.1-.3.1-.3v.2-.1.1s0-.2.1-.1v.1h.1c0 .1 0 .1 0 0 0 .2 0-.1.1-.1v-.2s.1-.2.1 0v.1c0-.1 0-.2.1-.1v.1c0-.2.1 0 .1 0v-.3c0 .2.1-.2.1-.1v.1c0 .2-.1.4-.1.5 0 0 .1-.1 0 0v-.5.1c.1-.1 0-.2.1-.1 0 .1.1 0 .1.2v.3c0-.1 0-.1.1-.1v-.1c.1-.4 0 .3 0 .2v-.1s0 .2.1.1v.3c0-.1.1.1.1-.1 0-.1-.1.2-.1-.1v-.2s.1-.1.1 0v-.1c.1-.1.1-.2.1-.2 0 .1 0 .1-.1.1 0 .1 0 0 .1.1v.1h.1c0-.2 0 0 .1 0s.1-.3.2-.4v.2c0-.1 0 0 0 0v.1h.1v-.2h.1v.2s0 .1.1-.1c0-.1.1-.1.1-.3v.1s0 .1 0 0v-.1h.1v.4c0-.1 0-.3.1-.3v.3c0 .1.1.1.1.1v-.2c.1 0 .1-.4.2-.4 0-.1 0-.1.1-.2 0 .2 0 .5.1.5v-.3.1c0-.1 0 .2.1 0v.3-.1c0-.1.1-.1.1-.1 0-.1.1 0 .1.1v-.3c0 .3.1.1 0 .3 0 0 0 .1 0 0v.2c0-.3.1-.2.1-.3v.3c0-.2.1-.1.1-.3v.3-.1c0 .1.1.1.1.2v-.3c0-.2 0-.1.1-.2v.3c0-.1.1-.4.1-.5v-.1.2-.2.1s-.1.4 0 .4c0 0-.1.1-.1.2v.1c0-.1 0-.1.1-.1v.3-.2s.1-.2.1-.1c0-.3.1-.2.1-.4 0-.1 0-.1 0 0v.3c0 .1 0 .3-.1.3 0 0 .1 0 .1-.2v-.3.1s.1 0 .1.1v-.2c0 .3.1.1.2.1v-.3.3c0 .2-.1.1 0 .3 0 0 .1-.3.1-.2v.3c.1.1 0-.2.1-.4 0 .2.1 0 .1-.1-.1-.2 0 0-.1-.3 0 .1 0 .3-.1.2v-.3.2c0-.1 0-.2.1-.3 0-.2-.1.1-.1.2v-.2s0 .1 0 0v-.2l-.1.2v-.2h-.1v-.2.1s-.1.3-.1 0c-.1.1-.1.1-.1.2.1-.2 0-.2 0-.3 0-.1 0 .1-.1.1v-.3.2-.2h-.1v.1c-.1.1 0-.2 0-.2v.1c0-.2-.1.1-.1 0v-.1s-.1 0-.1.2v-.3l-.1.1c0-.1-.1 0-.1-.1v.1-.1.1c0-.3-.1.2-.1-.1v-.2h-.1v.1s0 .1-.1.1c.1-.2 0 0 0-.2v.1h-.1v-.2l-.1.1v-.1.1-.2.1s0 .1-.1 0v-.1c-.1.1 0-.2-.1 0v-.1c-.1.2 0-.2-.1 0v-.1.1-.1.2-.1.1c0-.3-.1-.1-.1-.3v.2c-.1.4-.2-.2-.3-.1v-.1l-.1.2v-.2c-.1.1 0 .2-.1.2v-.2c-.1.1-.1.1-.2.1v.1c0 .1-.1 0-.1 0v-.1s0-.1 0 0v-.1s-.1.1-.1-.1v.2c0-.2-.1.1-.1 0v-.1c0-.1 0 0-.1.1v-.1l-.1.1c0-.2-.1 0-.1-.1v-.1s-.1.2-.1.3c0-.1-.1 0-.1-.1-.1 0-.1-.4-.1-.2v-.2l-.1.2v-.1h-.2c-.1.1-.1-.1-.1 0v-.1c0 .2-.1-.2-.1-.1s-.1.1-.1.2v-.2s0 .1-.1 0v-.1s0 .1-.1.1c-.1.1 0-.2-.1.1 0-.1-.1 0 0-.2l-.2.2v-.1.1c-.1 0-.1-.3-.2-.3v-.1.1c-.1-.1-.2-.1-.3-.1 0 .1-.1.2-.1.2-.1.1-.1.1-.2 0v-.1c0 .1 0 0-.1 0v.1c0 .1-.1 0-.1-.1v.1-.2s-.1.1-.1.2v-.1l-.1-.1v.1c0 .1-.1.2-.1.1v-.3.2c0 .1-.1.1-.1.1s0-.2-.1-.2c0 .1 0 0-.1.2v-.2c0 .1-.1 0-.1-.1-.1.3-.1-.1-.1.1v-.2c0 .1 0 .2-.1.3v-.3.3c-.1-.3-.3-.1-.4-.4-.1.1-.2.2-.2.1l-.1-.1v.1s0 .1-.1.1c-.1-.1-.2-.3-.3-.1-.1.3 0-.3-.1-.1v-.1c-.1.1-.1.1-.2.3v-.3.2-.1s-.1.1-.1-.2c-.1.2-.3.1-.4 0 0 .1-.1.1-.1.1v-.2s-.1.2-.1.1c0 0 0-.1-.1.1v-.2c0 .3-.1 0-.1 0s-1.5-.8-2.1.6c0 .1-.1.2-.1.3v-.1c0 .1-.1.3 0 .5v.1-.2.2c0-.1.1-.4.1-.3v.3c0-.1-.1.1-.1.1v-.1.3l.1-.1c0 .3.1-.1.1.1v.2h.1c0 .1.1 0 0 .2 0 .1.1-.2.1-.1v.1h.1v.2c.1.2.1.7.3.6v.2c.1-.2.1.3.2.3v-.1c.1.3.2.2.3.3v-.1c0-.1.1-.1.1-.2v.1c.1.3.3.2.5.4.2-.1.5.2.7.1v-.2c0 .5.1-.1.2.3.2-.1.2.3.4-.1v.1c0 .1 0 0 0 0 0 .1.1-.1.1 0v-.1s0 .1 0 0v.1-.1c0 .3.1 0 .1.1 0 0 .1-.1.2-.1 0 .1.1.1.1.2.1 0 .2-.1.3 0v-.2.1c0 .2.1-.1.1.1 0-.1 0 0 0 0v-.3.3c.1 0 .2-.2.3-.2 0 .1.1 0 0 .2.1-.1 0-.2.1-.4 0 0 0-.1 0 0v.3c.1-.1.1.2.2 0v-.1c.1-.2 0 .2.1 0v.1c0-.1 0-.2.1-.1 0 .1 0 .1-.1.2 0 0 .1 0 .1-.2v-.1c0 .1.1.1.1.1v.1c.3.3.2.7.3.6zm2.6-.5s-.1.1 0 0zm-.9-.1zm-.3.2v-.1.1zm1.7-.4zm1.4.2zm-.1-.2zm-1.6 0c0 .1 0 0 0 0zm1.6 0zm.1.3c0-.1 0-.1 0 0zm-.9-.4zm.7.4zm.3 0zm-.7-.2v-.1.1zm22.2-.5zm-.9-.4c0-.1 0-.1 0 0zm1.4.6s0 .1 0 0zm-3.2-1.2zm1.1.4zm2.2 2.3c0-.1 0-.1 0 0zm.6-.4zm-.2-.4zm0 .1c0-.1 0 0 0 0zm-10.4-1.9v.1-.1zm5.1-.3zm-5.1 1.1zm9.7 2c0 .1 0 0 0 0s0 .1 0 0zm-5.2.4zm-4.5-2.4zm3.3-1.2zm0-.2zm-3.3.7zm2.3-.6zm5.6.8zm-.9 2.5zm.1-.2v.1c-.1.1-.1 0 0-.1zm-.2.1zm.8.2zm-.2 0zm-.9 0z"/><path class="st13" d="M147 157.2c.1 0 .3-.2.5-.2 0-.2.1-.2.1-.2v.3-.1.1-.2c0 .1.1.1 0 .2h.1s0-.2.1-.1v.1c.1.2.2-.5.2-.4 0-.1.1-.1.1-.1 0-.3 0 .1 0 0 0-.2 0-.1.1-.3 0 .1 0 0 .1-.1 0 .1.1 0 .1.2 0-.1.1-.3.1-.3v.2-.1.1s0-.2.1-.1v.1h.1c0 .1 0 .1 0 0 0 .2 0-.1.1-.1v-.2s.1-.2.1 0v.1c0-.1 0-.2.1-.1v.1c0-.2.1 0 .1 0v-.3c0 .2.1-.2.1-.1v.1c0 .2 0 .4-.1.5 0 0 0-.1 0 0v-.5.1c0-.1 0-.2.1-.1 0 .1.1 0 .1.2v.3c0-.1 0-.1.1-.1v-.1c.1-.4 0 .3 0 .2v-.1s0 .2.1.1v.3c0-.1.1.1.1-.1 0-.1-.1.2-.1 0v-.2s.1-.1.1 0v-.1c.1-.1.1-.2.1-.2 0 .1 0 .1-.1.1 0 .1 0 0 .1.1v.1h.1c0-.2 0 0 .1 0s.1-.3.2-.4v.2c0-.1 0 0 0 0v.1h.1v-.2h.1v.2l.1-.1c0-.1.1-.1 0-.3v.1s0 .1 0 0v-.1h.1v.4c0-.1 0-.3.1-.3v.3c0 .1.1.1.1.1v-.2c.1 0 .1-.4.2-.4 0-.1 0-.1.1-.2 0 .2 0 .5.1.4v-.3.1c0-.1 0 .2.1 0v.3-.1c0-.1.1-.1.1-.1 0-.1.1 0 .1.1v-.3c0 .3.1.1 0 .3 0 0 0 .1 0 0v.2c0-.3.1-.2.1-.3v.3c0-.2.1-.1.1-.3v.3-.1c0 .1.1.1.1.2v-.3c0-.2 0-.1.1-.2v.3c0-.1.1-.4.1-.5v-.1.2-.2.1s-.1.4 0 .4c0 0-.1.1-.1.2v.1c0-.1 0-.1.1-.1v.3-.2s.1-.2.1-.1c0-.3.1-.2.1-.4 0-.1 0-.1 0 0v.3c0 .1 0 .3-.1.3 0 0 .1 0 .1-.2v-.4.1s.1 0 .1.1v-.2c0 .3.1.1.2.1v-.3.3c0 .2-.1.1 0 .3 0 0 .1-.3.1-.2v.3c.1.1 0-.2.1-.4 0 .2.1 0 .1-.1 0-.2 0 0-.1-.3 0 .1 0 .3-.1.2v-.3.2c0-.1 0-.2.1-.3 0-.2-.1.1-.1.2v-.2s0 .1 0 0v-.2l-.1.2v-.2h-.1v-.2.1s-.1.3-.1 0c-.1.1-.1.1-.1.2.1-.2 0-.2 0-.3 0-.1 0 .1-.1.1v-.3.2-.2h-.1v.1c-.1.1 0-.2 0-.2v.1c0-.2-.1.1-.1 0v-.1s-.1 0-.1.2v-.3l-.1.1c0-.1-.1 0-.1-.1v.1-.1.1c0-.3-.1.2-.1-.1v-.2h-.1v.1s0 .1-.1.1c.1-.2 0 0 0-.2v.1h-.1v-.2l-.1.1v-.1.1-.2.1s0 .1-.1 0v-.1c-.1.1-.1-.2-.1 0v-.1c-.1.2 0-.2-.1 0v-.1.1-.1.2-.1.1c0-.3-.1-.1-.1-.3v.2c-.1.4-.2-.2-.3-.1v-.1l-.1.2v-.2c0 .1 0 .2-.1.2v-.2c-.1.1-.1.1-.2.1v.1c0 .1-.1 0-.1 0v-.1s0-.1 0 0v-.1s-.1.1-.1-.1v.2c0-.2-.1.1-.1 0v-.1c0-.1 0 0-.1.1v-.1l-.1.1c0-.2-.1 0-.1-.1v-.1s-.1.2-.1.3c0-.1-.1 0-.1-.1-.1.1-.1-.4-.1-.2v-.2l-.1.2v-.1h-.2c-.1.1-.1-.1-.1 0v-.1c0 .2-.1-.2-.1-.1s-.1.1-.1.2v-.2s0 .1-.1 0v-.1s0 .1-.1.1c-.1.1 0-.2-.1.1 0-.1-.1 0 0-.2l-.2.2v-.1.1c-.1 0-.1-.3-.2-.3v-.1.1c-.1-.1-.2-.1-.3-.1 0 .1-.1.2-.1.2-.1.1-.1.1-.2 0v-.1c0 .1 0 0-.1 0v.1c0 .1-.1 0-.1-.1v.1-.2s-.1.1-.1.2v-.1l-.1-.1v.1c0 .1 0 .2-.1.1v-.3.2c0 .1-.1.1-.1.1v-.1s0-.2-.1-.2c0 .1 0 0-.1.2v-.2c0 .1-.1 0-.1-.1 0 .3-.1-.1-.1.1v-.2.3c-.1-.3-.3-.1-.4-.4-.1.1-.2.2-.2.1l-.1-.1v.2c-.1-.1-.2-.3-.3-.1-.1.3 0-.3-.1-.1v-.1c-.1.1-.1.1-.2.3v-.3.2-.1s-.1.1-.1-.2c-.1.2-.3.1-.4.1 0 .1-.1.1-.1.1v-.2s-.1.2-.1.1c0 0-.1-.1-.1.1 0 0-.1-.1 0-.2 0 .3-.1 0-.1 0s-1.6-.7-2 .6c0 .1-.1.2-.1.4v-.1.6-.2.2c0-.1 0-.4.1-.3v.3c0-.1-.1.1 0 .1v-.1.3-.1c0 .3.1-.1.1.1v.2h.1c0 .1.1 0 0 .2 0 .1 0-.2.1-.1v.1h.1v.2c.1.2.2.7.3.6v.2c.1-.2.1.3.2.3v-.1c.1.3.2.1.3.3v-.1c0-.1.1-.1.1-.2v.1c.1.3.3.2.5.4.2-.1.5.2.7.1v-.2c0 .5.1-.1.2.2.1-.1.2.3.4-.1v.1c0 .1 0 0 0 0 0 .1.1-.1.1 0v-.1s0 .1 0 0v.1-.1c0 .3.1 0 .1.1 0 0 .1-.1.2-.1 0 .1.1.1.1.2.1 0 .2-.1.3 0v-.2.1c0 .2.1-.1.1.1 0-.1 0 0 0 0v-.3.3c.1 0 .2-.2.3-.2 0 .1.1 0 0 .2.1-.1 0-.2 0-.4 0 0 0-.1 0 0v.3c.1-.1.1.2.2 0v-.1c.1-.2.1.2.1 0v.1c0-.1 0-.2.1-.1 0 .1 0 .1-.1.2 0 0 .1 0 .1-.2v-.1c0 .1.1.1.1.1.2.7.2.7.3.9-.1-.3-.1 0 0 0z"/><path class="st13" d="M149.5 156.5c0 .1-.1.1 0 0zm-.9-.1zm-.2.2v-.1.1zm1.6-.4zm1.4.2zm-.1-.3c0 .1 0 .1 0 0zm-1.6.1s-.1 0 0 0c0 .1 0 0 0 0zm1.6 0zm.1.2zm-.9-.4c0 .1 0 .1 0 0zm.7.4v.1zm.3.1zm-.7-.2v-.1.1zm21.5 3.8zm-.6-.7zm1.1 1c0 .1 0 .1 0 0zm-2.7-2.1zm.9.7zm1.5 2.9c0-.1 0-.1 0 0zm.6-.2zm0-.5c0 .1 0 .1 0 0 0 .1 0 .1 0 0zm-.1.1c.1 0 0 0 0 0zm-9.3-4.9l-.1.1.1-.1zm4.9 1.3zm-5.2-.5zm8.8 4.8c-.1.1-.1 0 0 0-.1 0-.1.1 0 0zm-5.2-1.1zm-3.6-3.7zm3.6-.2zm0-.1c0-.1 0 0 0 0zm-3.3-.4c-.1.1-.1.1 0 0zm2.3.2zm5.1 2.4zm-1.5 2.1zm0-.1c0-.1 0 0 0 0 0 .1 0 0 0 0zm-.1 0zm.6.4zm-.1 0s0-.1 0 0zm-.9-.3z"/><path class="st13" d="M167.5 161.4c.1 0 .4-.1.5 0 .1-.2.1-.2.2-.2l-.1.2.1-.1c0 .1 0 0-.1.1l.1-.1c0 .1.1.1-.1.2l.1.1s.1-.2.1-.1 0 0-.1.1c0 .2.3-.4.3-.3 0-.1.1 0 .1-.1.1-.2-.1.1 0 0 .1-.2.1-.1.1-.3 0 .1 0 0 .1 0 0 .1.1.1 0 .2 0-.1.1-.3.2-.2 0 .2-.1.1-.1.2v-.1.1s.1-.2.1-.1l-.1.1h.1c0 .1 0 .1 0 0 0 .2.1-.1.1 0 0-.1 0-.1.1-.2 0 0 .1-.1.1 0l-.1.1.1-.1v.1c.1-.1.1 0 .1 0l.1-.1c0-.1 0-.1.1-.2 0 .2.1-.2.1-.1s-.1.1-.1.1l-.2.4s.1-.1 0 0l.1-.2c0-.1 0-.2.1-.3.1 0-.1.2 0 .1s.1-.2.1-.1.1 0 0 .2c0 0 0 .1-.1.1-.1.2 0 0 0 .2 0-.1.1-.1.1 0v-.1c.2-.4-.1.3 0 .2l.1-.1v.1c0 .1 0 .1-.1.3 0-.1 0 .1.1 0 0-.1-.1.1-.1-.1l.1-.1h.1v-.1c.1 0 .1-.2.2-.1 0 .1-.1.1-.1.1 0 .1 0 0 .1.1 0 .1 0 0-.1.1h.1c.1-.2 0 0 .1 0s.2-.2.3-.4v.2c0-.1 0 0 0 0s0 .2-.1.3c.1 0 0-.1.1-.2 0-.1 0-.1.1-.2h.1s0 .2-.1.1c0 0 0 .1.1 0 0-.1.1-.1.1-.2v.1s0 .1 0 0c0 .2 0 0 .1 0v.2s0-.1.1-.1c0 .1-.1.3-.1.4 0-.1.1-.3.1-.2-.1.2 0 .1-.1.3 0 .1 0 .1.1.1.1-.1 0-.1.1-.2.1 0 .2-.4.3-.3.1-.1.1 0 .1-.2-.1.2-.1.5-.1.5 0-.1 0-.2.1-.3v.1c.1 0 0 .2.1 0l-.1.3v-.1c0-.1.1-.1.1-.1.1-.1.1 0 0 .1 0-.1.1-.2.1-.3-.1.3 0 .1 0 .3 0 0 0 .1 0 0l-.1.2c.1-.2.1-.2.2-.2-.1.3 0 0 0 .3.1-.2.1-.1.2-.2 0 0 0 .2-.1.3v-.1.2l.1-.2v.1l.1-.1c.1-.2 0-.1.1-.1v.1s0 .1-.1.2c0-.1.2-.4.2-.5 0-.1.1-.1.1-.1l-.1.2.1-.2v.1s-.2.3-.1.4c0 0-.1.1-.1.2v.1c.1 0 .1-.1.1-.1-.1.2-.1.2-.1.3v-.2s.1-.2.1-.1c.1-.3.1-.2.2-.3 0 0 .1 0 0 0-.1.1 0 .2-.1.3 0 0 0-.1.1-.2v.3c0-.1 0-.2.1-.2v.1c-.1.1-.1.3-.1.3s.1 0 .1-.2c0-.1 0-.2.1-.2l.1-.1v.1l.1-.1v.1s.1 0 .1.1l.1-.1c-.1.3.1.2.1.1l.1-.3c0 .1 0 .2-.1.3 0 .1-.1.1-.1.3 0 0 .2-.3.2-.2-.1.2.1 0 0 .1 0 .1 0 0-.1 0 .1.1.1-.2.2-.3.1 0 0 .2 0 .2h.1c-.1.1 0-.1 0-.2-.1.2.1 0 .1 0v-.3c0 .1-.1.3-.1.2.1-.1 0-.1 0-.1 0 .1 0 0-.1.1 0-.1.1-.2.1-.3l-.1.3s.1-.2 0-.1c.1-.1.1-.2.1-.2 0-.2-.1.1-.2.2v-.1c0 .1 0 .1-.1.1 0-.1.1-.1.1-.2s.1-.2.1-.2l-.1.2c0-.1 0-.2.1-.2h-.1l.1-.2v.1s-.2.3-.1-.1c-.1.1-.1.1-.2.1.1-.1 0-.2.1-.3 0-.1-.1.1-.1.1 0-.1.1-.2.1-.3l-.1.1-.1.1c0-.1.1-.2 0-.2l-.1.1v-.1c0 .1 0 .1-.1.1.1-.1 0 0 0-.1h-.1v.1c-.1.1.1-.2 0-.2v.1c0-.2-.1.1-.1-.1 0 0 .1-.2.1-.1 0 0-.1 0-.2.1.1-.2.1-.2.1-.3l-.1.1c0-.1-.1 0 0-.1 0 .1 0 0-.1.1v-.1.1c.1-.3-.1.1-.1-.1 0-.1 0-.1.1-.2l-.1-.1v.1s-.1.1-.1 0c.1-.2 0 0 0-.2l-.1.1s.1-.2 0-.1c0 .1-.1.2-.1.2v-.1h-.1s0-.1.1-.2l-.1.1v-.1.1-.2.1h-.1v-.1c-.1 0 0-.2-.1-.1v-.1c-.1.1 0-.2-.1 0v-.1.1l.1-.1-.1.2v-.1.1c.1-.3 0-.1 0-.3l-.1.2c-.2.3-.1-.3-.3-.1l.1-.1-.1.1c0-.1.1-.1.1-.2-.1.1-.1.2-.2.2 0-.1 0-.1.1-.1-.1 0-.2.1-.2 0h-.1v-.1s0-.1 0 0l.1-.1s-.1.1-.1-.1c0 .1-.1.2-.1.1.1-.2-.1.1-.1-.1 0 0 .1 0 0-.1 0-.1 0 0-.1.1v-.1l-.1.1c.1-.2-.1 0 0-.1 0 0 0 .1-.1.1v-.1l.1-.1s-.1.1-.1.2v-.2c-.1 0 0-.4-.1-.2 0 0 0-.1 0 0v-.1l-.1.1v-.1h-.2c-.1.1 0-.1-.1 0v-.1c-.1.1 0-.2 0-.1s-.1.1-.1.2v-.2s-.1.1-.1 0v-.1h-.1c-.1.1 0-.2-.1.1v-.2c-.1.1-.1.1-.2.1.1-.2 0 0 0-.1v.1c-.1 0-.1-.3-.2-.3v-.1l-.1.1-.2-.2c0 .1-.1.2-.2.1-.1 0-.2.1-.2 0v-.1c-.1.1 0 0-.1 0v.1c-.1.1 0 0 0-.1l-.1.1v-.1.1-.2s-.1.1-.1.2v-.1l-.1-.1v.1c0 .1-.1.2-.1.1.1-.1.1-.2.1-.3 0 .1 0 .1-.1.2 0 .1-.1.1-.1 0v-.2c-.1.1 0 0-.1.2v-.2c-.1.1-.1 0 0-.1-.1.3 0-.1-.2.1v-.2c0 .1-.1.2-.1.2 0-.1.1-.2.1-.3l-.1.2c0-.3-.2-.2-.3-.5-.1 0-.2.1-.3.1v-.1.1l-.1.1c0-.1-.1-.3-.2-.2-.2.3.1-.3-.1-.1v-.1c-.1.1-.2.1-.3.3.1-.3 0 0 0-.2v-.1l-.1.1v-.1s-.1 0-.1-.2c-.2.1-.3 0-.4 0l-.1.1v-.2s-.1.2-.1.1c0 0 0-.1-.1.1v-.2c-.1.2 0-.1 0-.1s-1.3-1.1-2.1 0c-.1.1-.1.2-.2.3v-.1c0 .1-.1.3-.2.5 0 .1.1-.1 0 .1l.1-.2v.2c.1-.1.2-.4.2-.2v.3c0-.1-.1.1-.1.1 0 .1 0-.1.1-.1 0 0 0 .1-.1.2v.1l.1-.1c-.1.3.1-.1 0 .1-.1 0 0 .1-.1.2h.1s-.1.1 0 .1c0 .1 0-.1.1 0 0 .1.1 0 0 .2 0 .1.1-.2.1-.1s0 0-.1.1h.1s-.1.2-.1.1c.1.2-.1.8.1.7 0 .1 0 .1-.1.2.2-.1 0 .3.1.3v-.1c0 .4.2.2.2.4v-.1l.1-.1c0 .1-.1.2 0 .2v-.1c0 .3.2.3.3.5.3 0 .4.3.7.3l.1-.2c-.1.4.1 0 .1.3.2-.1.2.3.4 0v.1c0 .1 0 0 .1 0 0 .1.1 0 .1 0l.1-.1s0 .1 0 0v.1l.1-.1c-.1.2.1 0 0 .2 0 0 .2-.1.2 0v.2c.1 0 .2 0 .3.1l.1-.2v.1c0 .2.1 0 .1.1 0-.1 0 0 0 0 0-.1.1-.2.1-.1l.1-.1c0 .1-.1.2-.1.3.1 0 .2-.2.3-.1-.1.1.1 0 0 .2.1-.1.1-.2.1-.3 0 0 .1 0 0 0 0 .1 0 .1-.1.2v.1c.1-.1.1.2.2.1v-.1c.1-.1 0 .2.1.1l-.1.1c0-.1.1-.2.1-.1s-.1.1-.1.2c0 0 .1 0 .1-.1v-.1c0 .1.1.1.1.1v.1c.6-.5.5-.2.5-.2zm2.6.1s0 .1 0 0zm-.8-.4c0 .1 0 .1 0 0 0 .1 0 .1 0 0z"/><path class="st13" d="M169 161.3v-.1c.1 0 .1.1 0 .1zm1.8.1c-.1 0-.1 0 0 0-.1 0 0 0 0 0zm1.2.5zm0-.2zm-1.6-.4zm1.6.4zm0 .3zm-.7-.6zm.5.5v.1zm.3.2zm-.6-.4v-.1.1zm21 7.1zm-.5-.8c.1-.1 0-.1 0 0zm.8 1.3zm-2.2-2.8zm.9.9c-.1 0-.1 0 0 0-.1 0-.1 0 0 0zm.6 3.2c.1-.1 0-.1 0 0zm.7 0zm.1-.4s-.1 0 0 0c-.1 0-.1 0 0 0zm-.1 0zm-8.6-6.1l-.1.1.1-.1zm4.9 1.5zm-5.2-.8zm7.9 5.8c-.1.1-.1 0 0 0-.1 0-.1.1 0 0zm-4.6-1.9zm-3.3-3.9zm3.6 0zm-.1-.1c.1-.1.1-.1 0 0zm-3.3-.5zm2.4.2zm5 3.1zm-1.9 1.7zm.1-.1s-.1 0 0 0c-.1.1-.1.1 0 0zm-.1 0zm.4.5zm-.1 0zm-.8-.4z"/><path class="st13" d="M187.7 169.2c.1 0 .4-.1.5 0 .1-.2.2-.1.2-.2l-.1.2.1-.1c0 .1 0 0-.1.1l.1-.1c0 .1 0 .1-.1.2l.1.1s.1-.2.1-.1 0 0-.1.1c0 .2.3-.4.4-.2 0-.1.1 0 .1-.1.1-.2-.1.1 0 0 .1-.2.1-.1.2-.2 0 .1.1 0 .1 0v.2c0-.1.2-.2.2-.2-.1.2-.1.1-.1.2l.1-.1v.1l.1-.1-.1.1h.1c0 .1 0 .1 0 0-.1.2.1-.1.1 0 0 0 0-.1.1-.2 0 0 .1-.1.1 0l-.1.1.1-.1v.1c.1-.1.1 0 .1.1l.1-.1c0-.1 0-.1.1-.2-.1.2.2-.2.1 0 0 .1-.1.1-.1.1-.1.2-.2.3-.3.4 0 0 .1 0 0 0l.1-.2c.1-.1.1-.2.2-.2s-.1.2 0 .1c.1 0 .1-.2.1-.1s.1 0 0 .2l-.1.1c-.1.1 0 0-.1.2.1-.1.1-.1.1 0l.1-.1c.3-.3-.2.2-.1.2l.1-.1s-.1.2 0 .1c0 .1 0 .1-.1.3.1 0 0 .1.1 0 0-.1-.1.1 0-.1l.1-.1h.1s0-.1.1-.1.2-.2.2-.1l-.1.1v.1l-.1.1h.1c.1-.2 0 0 .1 0s.2-.2.4-.3c0 .1-.1.1-.1.1 0-.1 0 0 0 0s-.1.2-.1.3c.1 0 .1-.1.1-.1.1-.1.1-.1.1-.2h.1l-.1.1s0 .1.1 0c0-.1.1 0 .2-.2v.1s0 .1 0 0c-.1.1 0 0 .1 0v.2l.1-.1c-.1.1-.2.3-.2.3l.2-.2c-.1.1 0 .1-.2.3-.1.1 0 .1 0 .1.1-.1 0-.1.1-.2.1 0 .3-.3.3-.2.1 0 .1 0 .1-.1-.1.1-.2.4-.2.4.1-.1.1-.2.2-.3v.1c.1 0-.1.2 0 .1l-.1.2.1-.1.1-.1c.1-.1.1 0 0 .1 0-.1.1-.2.2-.2-.2.2 0 .1-.1.2 0 0 0 .1 0 0l-.1.1.2-.2c-.2.3 0 0-.1.3.1-.2.1 0 .2-.2l-.1.2.1-.1c-.1.1 0 .1-.1.2l.1-.1v.1s.1 0 .1-.1c.1-.2.1 0 .1-.1l-.1.1s-.1.1-.1.2c0-.1.3-.3.3-.4l.1-.1-.1.2.1-.2v.1s-.3.3-.2.3c0 0-.1.1-.2.1l-.1.1c.1 0 .1-.1.1-.1-.1.1-.1.2-.2.3l.1-.1.1-.1s.2-.1.1-.1c.1-.2.2-.1.3-.3 0 0 .1 0 0 0-.1.1-.1.2-.2.3 0 0 .1-.1.1-.2 0 0 0 .1-.1.1v.1c.1-.1.1-.1.1-.2v.1l-.2.2s.1 0 .2-.1c0-.1.1-.2.1-.2l.1-.1v.1l.1-.1s0 .1-.1.1l.1-.1-.1.1s.1 0 0 .1c.1 0 0 0 .1-.1-.2.3 0 .2.1.2l.2-.2c-.1.1-.1.2-.2.2l-.2.2s.2-.2.2-.1c-.1.1.1 0-.1.1h-.1c0 .1.2-.2.3-.2.1 0-.1.1-.1.2h.1c-.1.1 0-.1.1-.2-.1.2 0 .1.1 0 .1-.2 0 0 .1-.3-.1 0-.2.2-.2.1l.1-.1c-.1.1-.1 0-.1 0l.2-.2-.2.2.1-.1c.1-.1.1-.2.2-.2.1-.2-.1 0-.2.1h.1-.1c0-.1.1-.1.1-.1s-.1 0 0 0l.2-.2-.2.1c.1-.1.1-.1.1-.2h-.1l.1-.1s-.1 0-.1.1c0 0-.3.2 0-.1-.1.1-.1 0-.2.1.1-.1.1-.2.2-.2 0-.1-.1.1-.1.1 0-.1.2-.2.2-.2h-.1l-.1.1c0-.1.1-.1.1-.2l-.1.1v-.1c0 .1-.1.1-.1.1l.1-.1h-.1l-.1.1c-.1 0 .1-.1.1-.2l-.1.1c.1-.2-.2 0-.1-.1l.1-.1c-.1 0-.1-.1-.2 0 .1-.2.1-.2.2-.3l-.1.1c0-.1-.1 0 0-.1-.1.1 0 0-.1 0l-.1.1c.1-.3-.2.1-.1-.2l.1-.1-.1-.1v.1s-.1.1-.1 0l.1-.1-.1.1c-.1 0 .1-.2 0-.1 0 .1-.1.1-.1.1s0-.1.1-.1c-.1 0 0-.1-.1 0l.1-.1c-.1.1 0 0-.1 0v-.1l-.1.1.1-.1v.1h-.1l.1-.1c-.1 0 0-.2-.1-.1v-.1c-.1.1.1-.2-.1 0 0 0 0-.1.1-.1h-.1l.1-.1-.1.2.1-.1v.1c.1-.2 0-.1.1-.3l-.1.2c-.3.3 0-.3-.2-.2l.1-.1-.1.1c0-.1.1-.1.1-.2-.1 0-.1.2-.2.2 0-.1.1-.1.1-.1-.1 0-.2.1-.2 0-.1 0-.1 0-.1-.1s.1-.1.1-.1 0-.1 0 0l.1-.1s-.1 0 0-.1l-.1.1c.1-.2-.1 0-.1-.1h.1c0-.1-.1 0-.1.1l.1-.1-.1.1c.1-.2-.1 0 0-.2 0 0 0 .1-.1.1 0-.1-.1 0 0-.1l.1-.1-.2.2v-.2c-.1 0 .1-.4-.1-.2l.1-.1-.1.1v-.1s-.1-.1-.2-.1c-.1.1 0-.1-.1 0v-.1c-.1.1 0-.2 0-.1s-.1.1-.2.2v-.2s-.1.1-.1 0v-.1h-.1c-.1.1 0-.2-.1 0v-.2c-.1.1-.2.1-.2.1.1-.2 0 0 0-.1l-.1.1c-.1 0 0-.3-.1-.3l.1-.1-.1.1-.2-.2c-.1 0-.2.2-.2.1-.1 0-.2 0-.2-.1 0 0 0-.1.1-.1-.1.1 0 0-.1 0v.1c-.1.1 0 0 0-.1l-.1.1v-.1.1l.1-.2s-.1 0-.2.2v-.1l-.1-.1v.1c-.1.1-.1.2-.1.1.1-.1.1-.2.1-.3 0 .1 0 .1-.1.2s-.1.1-.1 0v-.2c-.1.1 0 0-.1.2-.1 0 .1-.1 0-.2-.1.1-.1 0 0-.1-.2.3 0-.1-.2.1v-.2c0 .1-.1.2-.1.2 0-.1.1-.2.1-.3l-.1.2c0-.3-.2-.2-.3-.5-.1 0-.2.1-.3 0v-.1.1l-.1.1c0-.1-.1-.3-.2-.2-.2.3.1-.3-.1-.1 0 0 0-.1.1-.1-.1.1-.2.1-.3.2.1-.3 0 0 0-.2l-.1.1v-.2l-.1.1v-.1s-.2 0-.1-.2c-.2.1-.3 0-.4-.1l-.1.1v-.2s-.1.2-.1.1c0 0 0-.1-.1.1v-.2c-.1.2 0-.1 0-.1s-1.3-1.2-2.2-.1c-.1.1-.1.2-.2.3v-.1c0 .1-.1.3-.2.5 0 .1.1-.1 0 .1l.1-.2v.2c.1-.1.2-.4.2-.2v.3c0-.1-.1.1-.1.1 0 .1 0-.1.1-.1 0 0 0 .1-.1.2v.1l.1-.1c-.1.3.1-.1 0 .1-.1 0 0 .1-.1.2h.1s-.1.1 0 .1c0 .1 0-.1.1 0 0 .1.1 0 0 .2 0 .1.1-.2.1-.1s0 0-.1.1h.1s-.1.2-.1.1c.1.2-.1.8.1.7 0 .1 0 .1-.1.2.2-.1 0 .3.1.3v-.1c0 .4.2.2.2.4v-.1l.1-.1c0 .1-.1.2-.1.2v-.1c0 .3.2.3.3.5.2 0 .4.3.6.3l.1-.2c-.1.4.1 0 .1.3.2-.1.1.3.4.1v.1c0 .1 0 0 .1 0 0 .1.1 0 .1 0l.1-.1s0 .1 0 0v.1l.1-.1c-.1.2.1 0 0 .2 0 0 .2-.1.2 0v.2c.1 0 .2 0 .3.1l.1-.1v.1c-.1.2.1 0 .1.1.1-.1 0 0 0 0 0-.1.1-.2.1-.1l.1-.1c0 .1-.1.2-.1.3.1 0 .2-.2.3-.1-.1.1.1 0 0 .2.1-.1.1-.2.2-.3 0 0 .1 0 0 0 0 .1-.1.1-.1.2v.1c.1-.1 0 .2.2.1v-.1c.1-.1 0 .2.1.1l-.1.1c.1-.1.1-.2.1-.1l-.1.1s.1 0 .1-.1v.1s0-.1.1-.2c0 .1 0 .1.1.1v.1c-.6 0-.8.3-.7.3zm2.3.5zm-.6-.5zm-.3.1s0-.1 0 0c0-.1 0-.1 0 0z"/><path class="st13" d="M190.7 169.6c-.1 0-.1 0 0 0-.1.1-.1 0 0 0zm1 .9zm0-.2zm-1.3-.8c-.1 0-.1 0 0 0-.1 0-.1 0 0 0zm1.3.8zm0 .2c-.1 0-.1 0 0 0zm-.5-.7c-.1 0-.1 0 0 0zm.3.6l-.1.1zm.2.2zm-.4-.5s0-.1 0 0c0-.1 0-.1 0 0zm10.3 14s.1 0 0 0c.1 0 0 0 0 0zm.3-.6c.1 0 .1 0 0 0zm-.4.9zm.7-2zm-.2.6s0 .1 0 0zm-1.9 1.8c.1 0 .1 0 0 0zm.5.2zm.3-.2zm0 0zm-.4-6h-.1.1zm1.4 2.6zm-2.2-2.3zm.2 5.6c-.1 0 0-.1 0 0-.1 0-.2 0 0 0zm-1.4-2.5zm1.2-3.1c0 .1 0 0 0 0zm2 1.3zm.1-.1zm-1.4-1.4c-.1 0-.1 0 0 0zm1.1.9zm.5 3.3c-.1 0-.1 0 0 0zm-2.5.2zm.1 0h-.1.1zm-.1 0zm-.1.4zm0-.1zm-.2-.5zm-.9-.5c.1.1.3.1.2.2h.2l-.2.1h.1-.1.2c-.1 0 0 .1-.2.1v.1h.2-.1c-.2.1.5-.1.4 0h.1c.2-.1-.1 0 0 0 .2-.1.1 0 .3-.1h.1c-.1.1 0 .1-.2.1.1 0 .3-.1.3 0-.2.1-.2 0-.2.1h.1-.1c.1 0 0 0 0 0-.1 0-.1 0 0 0-.2.1.1 0 .1 0 .1 0 .1 0 .2-.1 0 0 .2 0 0 0h-.1c.2 0 0 0 0 .1h.1c.1 0 .1 0 .2-.1-.2.1.2 0 .1 0h-.1c-.2 0-.4.1-.5.1.1 0 .1 0 0 0h.2c.1 0 .2-.1.3-.1.1 0-.2.1-.1 0h.2s-.1 0 0 0c-.1 0 0 0-.2.1h-.3.2c.4-.1-.3.1-.2.1h.1l-.1.1c-.1 0-.1 0-.3.1.1 0-.1.1.1 0 .1-.1-.2 0 0-.1h.2s.1 0 0 0h.3-.1c-.1 0 0 0 0 .1h-.1.6-.2c.1 0 0 0 0 0s-.2.1-.3.1h.4-.2.4-.3.2c-.1 0-.3.1-.4.1.1 0 .3-.1.3 0-.2 0-.1.1-.3.1-.1 0-.1.1-.1.1.1 0 .1 0 .2-.1.1 0 .4-.1.4 0h.2c-.2 0-.5.1-.4.1.1 0 .2-.1.3-.1h-.1c.1 0-.2.1 0 0l-.3.1h.3c.1 0 0 0-.1.1.1 0 .2-.1.3 0-.3.1-.1.1-.2.1 0 0-.1 0 0 0h-.2.3l-.3.1h.3s-.2.1-.3.1h.1c-.1 0-.1.1-.2.1h.2-.1.1c.1 0 .4 0 .5-.1h.1-.2.1s-.4 0-.4.1h-.3.2c-.2 0-.2 0-.3.1h.3c.3-.1.2 0 .4 0 .1 0 .1 0 0 0s-.2 0-.3.1h-.1.1-.3.2c.1 0 .2-.1.2 0h.1-.1.1-.1.1l-.1.1h.2c-.3.1-.1.1-.1.1h.3c-.1 0-.2.1-.3 0h-.3.4s-.2 0-.2.1h.3c.2-.1 0 0 .3-.1h-.2.1-.1c.1 0 .3 0 .3-.1h-.3.4c.2-.1-.1 0-.2 0h.1-.1.2s-.1 0 0 0h.2-.2.3s-.3 0 0-.1h-.2c.2 0 .2-.1.3-.1h-.2c.1 0 .3-.1.3 0h-.2c.1 0 .2 0 .2-.1h-.2.1-.1.1-.1c-.1 0 .2 0 .2-.1h-.1c.2-.1-.1 0 0-.1h.1s0-.1-.2 0c.2 0 .2-.1.3-.1h-.1c.1 0 0 0 .1-.1h-.1.1-.1c.3-.1-.2 0 .1-.1h-.1.2v-.1h-.2c.2 0 0 0 .1-.1s.2-.1.1-.1h-.2.1c-.1 0 0 0 0 0h.2-.1.1-.1.1-.1s-.1 0 0 0h.1c-.1 0 .2-.1 0-.1h.1c-.2 0 .2-.1 0 0h.1-.1.1-.2.1-.1c.3-.1.1 0 .3-.1h-.2c-.4 0 .2-.2 0-.2h.1-.2.2-.3.2c-.1 0-.2 0-.1-.1h-.1c-.1 0 0 0 0-.1h.2s-.1 0 0-.1h-.2c.2-.1-.1 0 0-.1h.1-.1c.2-.1 0 0 .1-.1h-.2c.1 0 0 0 .1-.1-.1 0 .4-.2.1-.1h.2-.2.1s0-.1-.1-.1.1-.1 0-.1h.1c-.2 0 .2-.1.1-.1h-.2s.1 0 .1-.1h-.1c-.2 0 .2-.1-.1 0 .1 0 0 0 .1-.1h-.2c.2-.1 0 0 .1-.1h-.1s.3-.2.2-.2h.1-.1c0-.1.1-.2.1-.2h-.2c-.1 0-.1 0-.1-.1h.1c-.1 0 0 0 0 0h-.1c-.1 0 0 0 .1-.1h-.2l.2-.1h-.2.1v-.1h-.3c.1 0 .2-.1.3-.1-.1 0-.1 0-.2.1h-.1.1s.2-.1.1-.1h-.2s.1-.1.2-.1c-.1 0 0 0 .1-.1-.3.1.1-.1-.2 0l.1-.1c-.1 0-.2.1-.3.1.1 0 .2-.1.3-.1l-.3.1c.3-.2 0-.2.2-.3-.1 0-.2 0-.2-.1l.1-.1-.1.1h-.1c.1-.1.2-.2.1-.2-.3.1.3-.1 0-.1h.1-.4c.3-.1 0 0 .1-.1h-.1c.1 0 .1-.1.2-.1h-.2.1s-.1 0 .1-.1c-.2 0-.2-.1-.2-.2h-.1l.1-.1h-.2s.1-.1.2-.1c-.2.1 0 0 0 0s.1-.3 0-.5-.4-.4-1.1-.3c-.1 0-.2.1-.3.1 0 0 .2-.1 0 0-.1.1-.3.1-.4.2h-.1l.2-.1s-.1 0-.1.1c.1 0 .4-.1.3-.1 0 0-.1.1-.2.1l-.1.1s-.1 0-.2.1h-.1.1c-.3.1.1 0-.1.1-.1 0-.1 0-.2.1-.1 0 0 0-.2.1-.1.1.2-.1.1 0h-.1c-.1 0-.2.1-.2 0-.1.1-.6.4-.5.4-.1.1-.1 0-.2.1.2 0-.2.2-.2.2h.1c-.3.2-.1.2-.2.3h.3c-.1 0-.2.1-.2.1s.1 0 .1-.1c-.2.2-.1.2-.2.4.1.1 0 .3.1.4l.2-.1c-.4.2.1 0-.2.2.2 0-.2.2.2.2h-.1c-.1 0 0 0 0 0s.1 0 0 .1h.1s-.1 0 0 0h-.1.1c-.2.1 0 0-.1.1h.1c-.1 0-.1.1-.2.1l.1.1.2-.1h-.1c-.2.1.1 0 0 .1.1-.1 0 0 0 0 .1 0 .2-.1.2 0h.1c-.1 0-.2.1-.3.1 0 0 .3 0 .2.1-.1 0 0 0-.2.1.1 0 .2-.1.4-.1 0 0 .1 0 0 0s-.1.1-.2.1h-.1c.1 0-.1.1 0 .1h.1c.2 0-.1.1 0 .1h-.1.1-.2.2s-.1 0-.1.1c0 0 .1 0 .2-.1-.1 0-.1.1-.1.1.6.1.5.1.4.1.3-.1 0 0 0 0zm1.1 1.1s-.1 0 0 0zm0-.5c-.1 0-.1 0 0 0-.1 0-.1 0 0 0z"/><path class="st13" d="M199.1 183.2h.1c0-.1-.1 0-.1 0zm.7.7zm.1.7zm.2-.1c-.1 0 0 0 0 0zm-.4-.8zm.3.8zm-.2.1zm.3-.5c-.1 0-.1 0 0 0zm-.3.4h-.1zm0 .2zm.1-.4z"/></svg>