<?xml version="1.0" standalone="no"?>
<!DOCTYPE svg PUBLIC "-//W3C//DTD SVG 20010904//EN"
 "http://www.w3.org/TR/2001/REC-SVG-20010904/DTD/svg10.dtd">
<svg version="1.0" xmlns="http://www.w3.org/2000/svg"
 width="700.000000pt" height="700.000000pt" viewBox="0 0 700.000000 700.000000"
 preserveAspectRatio="xMidYMid meet">
<metadata>
Created by potrace 1.11, written by Peter Selinger 2001-2013
</metadata>
<g transform="translate(0.000000,700.000000) scale(0.100000,-0.100000)"
fill="#000000" stroke="none">
<path d="M2669 6916 c-2 -2 -35 -6 -74 -10 -57 -5 -165 -25 -335 -61 -8 -2
-27 -8 -42 -14 -16 -6 -28 -9 -28 -7 0 8 -214 -71 -285 -104 -178 -83 -275
-185 -291 -304 -12 -86 24 -209 90 -308 l18 -27 -53 -26 c-433 -220 -898 -788
-1199 -1465 -28 -63 -55 -124 -60 -135 -67 -149 -177 -527 -204 -700 -39 -248
-46 -332 -47 -520 0 -330 58 -665 166 -960 21 -55 43 -118 51 -140 22 -59 185
-388 244 -491 205 -354 453 -650 738 -879 96 -77 276 -205 288 -205 3 0 18 -8
32 -19 46 -31 232 -127 332 -171 52 -22 104 -45 115 -50 11 -5 88 -32 170 -59
187 -62 361 -107 495 -127 19 -3 46 -7 60 -10 365 -63 870 -59 1210 11 14 3
41 8 60 11 69 10 287 65 400 100 307 96 585 224 840 387 83 53 224 153 256
182 6 6 36 30 65 55 88 72 264 247 368 365 294 333 503 680 635 1055 35 100
98 335 110 410 14 92 36 251 41 304 6 68 6 344 0 426 -7 96 -15 184 -20 210
-2 14 -6 45 -9 70 -3 25 -8 56 -11 70 -3 14 -9 50 -15 80 -6 30 -13 68 -16 84
-31 172 -166 602 -233 751 -126 274 -224 436 -387 639 -84 103 -287 316 -385
401 -278 244 -651 511 -843 604 -137 66 -369 143 -496 165 -14 2 -43 9 -65 14
-45 12 -68 16 -255 42 -149 21 -209 27 -350 36 -52 3 -115 8 -140 9 -25 2
-147 4 -271 4 -224 1 -226 1 -236 24 -19 40 -141 174 -200 219 -32 25 -73 50
-92 56 -32 11 -132 17 -142 8z m1070 -837 c25 -3 75 -10 111 -13 325 -34 747
-182 1066 -376 92 -55 294 -197 314 -219 3 -3 39 -35 79 -71 310 -270 550
-607 715 -1004 51 -123 120 -333 132 -400 3 -17 9 -47 14 -66 11 -40 36 -194
47 -290 4 -36 8 -159 8 -275 0 -261 -9 -357 -51 -560 -32 -148 -82 -317 -137
-455 -43 -110 -169 -364 -193 -391 -8 -8 -14 -19 -14 -23 0 -12 -134 -205
-206 -296 -81 -102 -300 -322 -404 -406 -308 -249 -673 -431 -1056 -528 -54
-14 -115 -28 -134 -31 -19 -3 -48 -8 -65 -12 -33 -6 -48 -8 -115 -17 -103 -15
-133 -17 -305 -20 -232 -4 -376 8 -583 50 -362 73 -741 235 -1038 445 -221
156 -421 347 -586 559 -232 300 -429 715 -504 1061 -17 79 -36 179 -40 214 -3
22 -7 51 -10 65 -22 137 -23 548 0 665 2 11 7 45 11 75 4 30 14 87 22 125 8
39 17 81 19 95 3 14 21 79 40 145 94 320 257 639 460 902 90 117 105 134 234
263 256 257 554 457 884 592 28 11 65 26 81 33 84 36 323 104 440 124 33 6 71
13 85 16 34 7 72 12 155 20 39 4 72 9 74 10 6 7 405 1 450 -6z m1936 -479 c10
-11 16 -20 13 -20 -3 0 -13 9 -23 20 -10 11 -16 20 -13 20 3 0 13 -9 23 -20z
m50 -50 c10 -11 16 -20 13 -20 -3 0 -13 9 -23 20 -10 11 -16 20 -13 20 3 0 13
-9 23 -20z m46 -47 c13 -16 12 -17 -3 -4 -10 7 -18 15 -18 17 0 8 8 3 21 -13z
m130 -150 c13 -16 12 -17 -3 -4 -10 7 -18 15 -18 17 0 8 8 3 21 -13z m50 -60
c13 -16 12 -17 -3 -4 -10 7 -18 15 -18 17 0 8 8 3 21 -13z m30 -40 c13 -16 12
-17 -3 -4 -10 7 -18 15 -18 17 0 8 8 3 21 -13z m30 -40 c13 -16 12 -17 -3 -4
-10 7 -18 15 -18 17 0 8 8 3 21 -13z m30 -40 c13 -16 12 -17 -3 -4 -10 7 -18
15 -18 17 0 8 8 3 21 -13z m50 -70 c13 -16 12 -17 -3 -4 -10 7 -18 15 -18 17
0 8 8 3 21 -13z m97 -158 c-3 -3 -9 2 -12 12 -6 14 -5 15 5 6 7 -7 10 -15 7
-18z m82 -145 c6 -11 8 -20 6 -20 -3 0 -10 9 -16 20 -6 11 -8 20 -6 20 3 0 10
-9 16 -20z m38 -85 c-3 -3 -9 2 -12 12 -6 14 -5 15 5 6 7 -7 10 -15 7 -18z
m20 -40 c-3 -3 -9 2 -12 12 -6 14 -5 15 5 6 7 -7 10 -15 7 -18z m22 -50 c0 -5
-5 -3 -10 5 -5 8 -10 20 -10 25 0 6 5 3 10 -5 5 -8 10 -19 10 -25z m18 -40
c-3 -3 -9 2 -12 12 -6 14 -5 15 5 6 7 -7 10 -15 7 -18z m32 -70 c0 -5 -5 -3
-10 5 -5 8 -10 20 -10 25 0 6 5 3 10 -5 5 -8 10 -19 10 -25z m50 -130 c0 -5
-5 -3 -10 5 -5 8 -10 20 -10 25 0 6 5 3 10 -5 5 -8 10 -19 10 -25z m7 -37 c-3
-8 -6 -5 -6 6 -1 11 2 17 5 13 3 -3 4 -12 1 -19z m41 -129 c-3 -8 -7 -3 -11
10 -4 17 -3 21 5 13 5 -5 8 -16 6 -23z m19 -71 c-3 -8 -6 -5 -6 6 -1 11 2 17
5 13 3 -3 4 -12 1 -19z m60 -280 c-3 -8 -6 -5 -6 6 -1 11 2 17 5 13 3 -3 4
-12 1 -19z m-40 -1230 c-3 -8 -6 -5 -6 6 -1 11 2 17 5 13 3 -3 4 -12 1 -19z"/>
<path d="M2768 5846 c-16 -8 -32 -18 -38 -21 -6 -3 0 -21 14 -43 13 -20 40
-80 60 -132 97 -249 140 -357 152 -385 52 -120 93 -229 89 -234 -3 -3 -8 5
-12 17 -3 12 -9 22 -14 22 -5 0 -9 5 -9 11 0 6 -12 29 -27 52 -16 23 -33 51
-40 62 -6 11 -68 110 -136 220 -69 110 -144 235 -168 277 -45 79 -59 89 -94
64 -11 -7 -23 -14 -28 -15 -22 -2 -123 -34 -130 -41 -5 -4 12 -47 36 -96 37
-74 82 -190 159 -409 6 -16 25 -68 43 -115 19 -47 57 -148 86 -225 28 -77 55
-143 58 -146 3 -3 50 10 103 30 l97 36 -51 105 c-53 110 -250 591 -244 597 9
10 322 -474 391 -607 16 -30 30 -57 32 -59 5 -8 93 31 93 41 0 6 -9 25 -19 42
-41 66 -269 652 -350 899 -13 37 -23 67 -24 67 -1 0 -14 -7 -29 -14z"/>
<path d="M3491 5689 c-6 -33 -51 -282 -55 -309 -3 -19 -12 -78 -20 -130 -22
-143 -39 -256 -51 -355 -3 -22 -8 -56 -10 -75 -3 -19 -7 -53 -10 -75 -2 -22
-6 -56 -9 -75 -11 -77 -23 -183 -31 -275 -3 -38 -8 -90 -10 -115 -11 -112 -15
-152 -21 -250 -3 -58 -8 -121 -10 -140 -22 -212 -22 -895 1 -1120 2 -19 6 -87
10 -150 3 -63 8 -128 10 -145 2 -16 7 -66 10 -110 4 -44 8 -93 10 -110 3 -16
7 -61 10 -100 3 -38 10 -104 15 -145 5 -41 12 -102 15 -135 4 -33 8 -71 10
-85 2 -14 9 -65 15 -115 6 -49 13 -104 16 -121 3 -17 6 -46 9 -65 2 -19 8 -65
14 -104 5 -38 13 -92 16 -120 5 -42 47 -306 60 -384 5 -30 15 -40 16 -15 0 10
2 26 4 34 3 17 31 193 40 255 4 22 8 53 11 69 15 88 60 425 69 506 3 30 8 66
10 80 2 14 7 48 10 75 11 104 15 141 19 175 3 19 8 65 11 103 12 152 17 203
20 217 2 8 7 69 10 135 4 66 8 138 10 160 27 275 27 1063 0 1325 -2 19 -6 80
-9 136 -4 55 -8 109 -10 120 -2 10 -7 55 -10 99 -4 44 -9 98 -11 120 -3 22 -7
63 -10 90 -6 53 -23 200 -30 250 -2 17 -11 82 -20 145 -8 63 -17 124 -19 135
-2 11 -7 42 -10 68 -4 27 -9 56 -11 65 -1 10 -6 37 -9 62 -3 25 -8 54 -10 65
-2 11 -11 63 -20 115 -21 116 -43 227 -45 219z m72 -2173 c103 -44 138 -179
70 -264 -138 -173 -400 3 -289 193 43 73 141 105 219 71z"/>
<path d="M4381 5456 c-91 -110 -166 -206 -168 -212 -3 -10 213 -114 237 -114
6 0 10 8 11 18 0 9 2 24 4 32 1 8 6 33 9 55 4 22 16 90 27 150 11 61 22 126
25 145 3 19 10 55 15 79 5 24 8 45 7 46 -2 1 -77 -88 -167 -199z"/>
<path d="M1210 4388 c14 -13 48 -41 74 -63 27 -22 54 -45 60 -50 6 -6 68 -56
137 -112 l126 -102 56 122 c31 67 53 125 49 129 -6 5 -143 32 -217 42 -28 4
-106 18 -130 23 -11 2 -47 8 -80 14 -33 5 -69 12 -80 15 -17 4 -16 2 5 -18z"/>
<path d="M5877 4263 c-3 -2 -89 -11 -167 -18 -36 -3 -76 -7 -90 -9 -14 -3 -56
-7 -95 -11 -38 -3 -88 -8 -110 -10 -62 -7 -123 -13 -205 -21 -41 -4 -82 -8
-90 -10 -8 -1 -22 -3 -31 -3 -13 -1 -2 -40 60 -206 42 -113 79 -205 83 -205 4
0 91 60 195 133 103 72 198 139 210 147 238 166 293 206 293 211 0 6 -48 8
-53 2z"/>
<path d="M1703 2907 c-22 -17 -177 -126 -343 -242 -166 -115 -304 -213 -306
-217 -2 -4 8 -5 23 -3 16 1 62 6 103 10 41 4 86 8 100 10 14 2 57 6 95 10 39
3 86 8 105 10 19 2 64 6 100 10 36 3 81 8 100 10 19 3 69 7 110 11 104 9 109
10 115 16 4 4 -78 232 -140 391 -9 23 -13 22 -62 -16z"/>
<path d="M5401 2569 c-29 -66 -52 -122 -50 -124 3 -2 20 -7 39 -10 19 -3 58
-10 85 -15 28 -5 67 -12 89 -16 21 -3 48 -8 60 -10 20 -4 110 -20 158 -28 13
-2 41 -7 63 -11 48 -9 57 -18 -120 125 -77 63 -166 136 -198 162 -32 26 -62
48 -65 48 -4 -1 -31 -55 -61 -121z"/>
<path d="M4175 1767 c-105 -40 -192 -75 -195 -79 -5 -7 474 -693 492 -704 6
-4 9 -3 6 2 -6 10 -14 73 -23 194 -4 41 -8 85 -10 98 -2 13 -7 53 -10 90 -3
37 -8 81 -10 97 -2 17 -7 60 -10 95 -8 98 -16 173 -20 195 -2 11 -4 35 -4 53
-1 19 -6 32 -13 31 -7 0 -99 -33 -203 -72z"/>
<path d="M2610 1622 c0 -4 -18 -107 -39 -227 -22 -121 -42 -237 -45 -257 l-6
-38 33 38 c18 20 51 59 73 87 21 27 46 59 56 70 65 79 143 174 159 193 10 12
19 25 19 28 0 7 -230 114 -246 114 -2 0 -4 -4 -4 -8z"/>
</g>
</svg>
