<?xml version="1.0" standalone="no"?>
<!DOCTYPE svg PUBLIC "-//W3C//DTD SVG 20010904//EN"
 "http://www.w3.org/TR/2001/REC-SVG-20010904/DTD/svg10.dtd">
<svg version="1.0" xmlns="http://www.w3.org/2000/svg"
 width="400.000000pt" height="400.000000pt" viewBox="0 0 400.000000 400.000000"
 preserveAspectRatio="xMidYMid meet">
<metadata>
Created by potrace 1.11, written by Peter Selinger 2001-2013
</metadata>
<g transform="translate(0.000000,400.000000) scale(0.100000,-0.100000)"
fill="#000000" stroke="none">
<path d="M2390 3419 c-63 -94 -122 -175 -132 -180 -34 -18 -62 -7 -150 61 -50
39 -99 70 -109 70 -27 0 -51 -28 -94 -106 -21 -38 -57 -100 -80 -139 -23 -38
-54 -90 -68 -115 -46 -78 -42 -75 -69 -58 -44 29 -124 49 -217 55 -80 5 -97
10 -117 30 -27 27 -48 28 -125 7 -74 -21 -107 -53 -93 -92 9 -24 6 -30 -28
-54 -48 -35 -109 -113 -142 -180 -44 -91 -59 -171 -53 -280 4 -81 3 -98 -10
-103 -21 -8 -22 -7 -35 66 -13 72 -37 102 -116 141 -58 28 -160 30 -273 5
-102 -24 -149 -59 -191 -144 -26 -53 -32 -80 -36 -146 l-3 -82 81 -155 c461
-871 681 -1276 736 -1351 45 -61 107 -117 153 -136 69 -29 232 5 600 126 l207
67 229 -30 c161 -21 233 -34 241 -45 14 -19 124 -29 124 -11 0 20 170 3 191
-19 11 -11 47 -22 102 -30 76 -11 89 -11 121 4 72 34 109 118 109 250 1 85
-14 142 -41 159 -10 6 -173 7 -237 1 -41 -4 -24 4 95 45 80 28 180 60 222 72
64 17 78 25 87 47 6 14 117 401 247 860 l237 834 -28 54 c-39 74 -129 164
-201 199 -50 24 -71 29 -134 28 -41 0 -94 -6 -118 -13 -53 -15 -107 -62 -122
-105 -10 -33 -13 -34 -86 -45 -41 -6 -83 -11 -94 -11 -13 0 -76 86 -224 310
-142 214 -211 310 -223 310 -12 0 -56 -57 -133 -171z m240 -15 l101 -146 -33
-52 c-19 -28 -42 -72 -52 -98 -10 -27 -24 -48 -32 -48 -7 0 -39 11 -69 25 -31
13 -71 29 -90 34 l-34 9 -52 -81 c-29 -45 -63 -99 -76 -119 -33 -53 -54 -49
-107 19 -48 60 -117 113 -149 113 -10 0 -42 -18 -71 -41 l-51 -41 -3 56 -3 56
-34 0 c-19 0 -35 2 -35 4 0 3 25 49 56 103 54 94 90 143 104 143 4 0 47 -31
96 -70 94 -73 124 -83 178 -59 15 7 67 75 133 175 59 90 111 164 115 164 3 0
52 -66 108 -146z m812 -298 c95 -21 124 -39 153 -96 l25 -49 -50 31 c-28 17
-53 29 -56 26 -2 -3 20 -39 51 -79 30 -41 55 -82 55 -92 0 -20 -21 -107 -25
-107 -2 0 -24 9 -50 20 -49 21 -95 26 -95 11 0 -7 113 -110 127 -116 1 -1 0
-18 -4 -38 -5 -35 -7 -37 -46 -37 -39 0 -39 0 -23 -22 9 -13 23 -32 31 -44 11
-15 13 -34 9 -67 l-7 -46 -29 15 c-46 24 -52 12 -17 -36 l32 -44 -119 -438
c-104 -384 -121 -437 -136 -432 -22 7 -22 1 -3 -62 11 -39 12 -56 3 -87 l-12
-39 -13 26 c-21 40 -58 43 -136 11 -17 -7 -18 -2 -12 86 3 52 24 435 45 852
27 518 44 767 52 785 20 40 96 78 163 81 11 0 50 -6 87 -13z m-302 -319 c0
-95 -7 -276 -15 -402 -8 -127 -26 -423 -40 -659 -22 -389 -26 -431 -43 -450
-39 -42 -44 -62 -25 -100 9 -20 15 -37 12 -40 -2 -2 -78 -25 -169 -51 -184
-53 -310 -98 -582 -209 -358 -146 -719 -256 -839 -256 -58 0 -60 1 -54 23 4
12 9 30 12 40 9 32 -27 107 -114 237 -94 141 -107 174 -208 525 -72 251 -101
369 -156 645 -36 182 -37 196 -21 208 33 26 378 191 534 256 202 84 327 123
590 185 248 58 1037 216 1101 220 16 1 17 -13 17 -172z m-1629 123 c30 -6 79
-22 109 -37 66 -32 183 -142 160 -151 -8 -3 -76 -27 -151 -52 l-136 -45 -17
120 c-9 66 -21 124 -25 128 -10 10 -29 -92 -38 -203 l-6 -79 -86 -37 c-47 -20
-134 -61 -193 -90 -59 -30 -111 -54 -114 -54 -4 0 -5 42 -2 93 3 77 9 103 35
160 57 120 160 208 284 241 66 18 109 19 180 6z m-842 -391 c91 -25 147 -52
160 -77 5 -10 19 -90 31 -178 35 -257 65 -395 191 -851 84 -308 109 -371 198
-503 l51 -75 -51 -5 c-61 -7 -83 -30 -100 -106 -10 -43 -9 -55 5 -82 20 -39 5
-42 -24 -4 -21 25 -22 34 -16 120 5 91 5 92 -15 81 -11 -6 -26 -24 -33 -41
l-13 -30 -6 38 c-4 22 -7 51 -7 67 0 30 -14 36 -28 10 -11 -20 -13 -18 -102
142 -128 230 -250 497 -250 547 0 31 -4 41 -20 45 -11 3 -20 10 -20 15 0 5 -9
21 -19 35 -13 16 -22 48 -27 94 -5 58 -9 67 -21 58 -17 -15 -35 7 -54 64 -10
29 -10 51 0 108 7 38 10 73 7 77 -4 3 -18 -7 -31 -23 -29 -36 -30 -26 -9 66 9
38 14 74 12 80 -2 7 -17 0 -35 -15 -57 -48 -68 -26 -33 66 11 29 20 60 20 68
-1 16 -58 -41 -97 -95 -26 -37 -38 -27 -36 31 3 73 73 199 136 243 26 19 114
50 141 51 11 0 54 -10 95 -21z m2531 -1264 c15 -18 5 -68 -18 -88 -46 -40
-124 -33 -140 12 -8 22 -7 34 3 47 12 17 13 16 8 -9 -8 -39 12 -57 63 -57 52
0 74 19 74 66 0 29 -3 34 -24 34 -39 0 -56 -11 -56 -35 0 -31 16 -40 29 -18
10 17 10 17 11 0 0 -10 -7 -20 -15 -23 -20 -8 -45 13 -45 37 0 40 83 66 110
34z m-1916 -484 c10 -11 20 -37 23 -59 4 -33 2 -42 -18 -55 -17 -13 -26 -14
-37 -5 -11 10 -10 13 7 20 22 8 25 16 15 42 -9 22 -51 20 -64 -3 -17 -32 -12
-58 16 -80 32 -25 76 -27 94 -5 8 8 19 36 26 62 l13 47 0 -38 c1 -47 -22 -93
-50 -102 -33 -11 -84 3 -109 30 -19 20 -22 32 -18 70 6 49 39 95 68 95 9 0 25
-9 34 -19z"/>
<path d="M2835 2680 c-3 -5 -1 -10 4 -10 6 0 11 5 11 10 0 6 -2 10 -4 10 -3 0
-8 -4 -11 -10z"/>
<path d="M2578 2607 c39 -43 72 -82 72 -88 0 -6 -12 -26 -27 -45 -83 -100
-101 -135 -78 -154 21 -17 59 -8 70 18 5 12 15 22 22 22 7 0 21 17 30 37 10
20 23 38 29 40 6 2 23 -14 38 -37 30 -46 102 -98 116 -84 19 19 -37 184 -63
184 -8 0 -20 6 -26 14 -9 11 -6 22 14 51 14 21 25 42 25 47 0 5 4 7 9 3 6 -3
15 3 20 14 15 26 14 38 -1 23 -7 -7 -18 -12 -26 -12 -8 0 -30 -14 -49 -31 -19
-16 -38 -28 -41 -27 -12 7 -187 92 -197 97 -5 2 23 -30 63 -72z"/>
<path d="M2805 2660 c-3 -5 -1 -10 4 -10 6 0 11 5 11 10 0 6 -2 10 -4 10 -3 0
-8 -4 -11 -10z"/>
<path d="M1642 2542 c-46 -7 -13 -27 73 -45 90 -18 114 -14 102 17 -12 32 -82
42 -175 28z"/>
<path d="M2415 2494 c-43 -22 -48 -29 -31 -44 17 -13 81 -6 91 10 6 9 -15 50
-25 50 -3 0 -18 -7 -35 -16z"/>
<path d="M2000 2447 c0 -21 43 -36 119 -43 75 -6 90 2 69 36 -11 18 -23 20
-100 20 -67 0 -88 -3 -88 -13z"/>
<path d="M1422 2418 c-14 -19 -24 -56 -17 -68 8 -12 37 2 67 32 20 20 20 22 3
35 -23 16 -40 17 -53 1z"/>
<path d="M1351 2216 c-16 -20 -3 -78 18 -74 19 4 45 54 37 74 -7 18 -40 18
-55 0z"/>
<path d="M1395 1990 c-8 -27 18 -68 51 -80 88 -34 96 -18 28 53 -49 51 -69 58
-79 27z"/>
<path d="M1669 1894 c-16 -19 5 -50 39 -57 35 -7 112 3 112 14 0 30 -131 67
-151 43z"/>
<path d="M1965 1870 c-11 -19 15 -48 47 -52 50 -8 108 2 108 19 0 30 -138 60
-155 33z"/>
<path d="M2267 1828 c-12 -39 27 -69 106 -83 28 -4 37 -2 37 8 0 20 -39 53
-84 71 -46 19 -53 20 -59 4z"/>
<path d="M2552 1703 c2 -23 14 -33 61 -56 31 -15 62 -25 67 -22 18 11 -19 64
-60 85 -55 28 -72 26 -68 -7z"/>
<path d="M2762 1508 c-16 -16 -15 -48 3 -72 22 -29 47 -4 43 43 -3 38 -24 51
-46 29z"/>
<path d="M2754 1324 c-10 -20 -31 -42 -46 -50 -49 -25 -28 -64 27 -50 31 8 51
39 59 94 8 54 -13 57 -40 6z"/>
<path d="M2023 1234 c-15 -39 55 -62 130 -42 76 19 50 39 -71 52 -41 4 -54 2
-59 -10z"/>
<path d="M2346 1222 c-9 -16 4 -41 25 -47 25 -8 149 5 149 15 0 19 -34 31 -98
37 -43 4 -72 2 -76 -5z"/>
<path d="M1826 1194 c-27 -30 -24 -54 6 -54 21 0 36 13 55 47 23 41 -24 46
-61 7z"/>
<path d="M1698 1141 c10 -6 8 -10 -9 -14 -13 -4 -26 -3 -29 2 -3 4 -16 4 -30
0 -21 -6 -21 -7 -5 -8 14 -1 6 -8 -23 -21 -61 -28 -150 -115 -163 -161 -17
-55 10 -98 76 -122 86 -30 158 -11 245 65 62 54 80 85 80 136 0 81 -44 132
-115 132 -26 0 -35 -3 -27 -9z m102 -46 c42 -67 26 -123 -53 -188 -61 -49
-100 -67 -150 -67 -83 0 -127 28 -127 80 0 32 76 106 143 140 74 37 115 39
147 5 23 -24 40 -25 40 -1 0 7 -9 22 -20 34 -22 23 -25 32 -11 32 5 0 19 -16
31 -35z"/>
<path d="M1313 2868 c5 -21 5 -21 -7 -6 -16 22 -60 13 -51 -11 4 -9 18 -47 32
-84 19 -50 30 -67 42 -65 10 2 16 13 15 27 -1 21 1 22 11 7 11 -14 35 -23 35
-12 0 19 -64 166 -72 166 -6 0 -8 -10 -5 -22z"/>
<path d="M1565 2824 c-22 -29 -25 -38 -14 -45 25 -15 38 -10 44 19 13 57 13
62 5 62 -4 0 -20 -16 -35 -36z"/>
<path d="M1090 2631 c42 -36 46 -37 60 -10 15 27 13 28 -46 35 l-49 6 35 -31z"/>
</g>
</svg>
